<?xml version="1.0" encoding="UTF-8"?>
<svg version="1.1" xmlns="http://www.w3.org/2000/svg" width="500" height="500">
<path d="M0 0 C1.00869141 -0.00257813 2.01738281 -0.00515625 3.05664062 -0.0078125 C4.11431641 -0.00007812 5.17199219 0.00765625 6.26171875 0.015625 C7.83083008 0.00402344 7.83083008 0.00402344 9.43164062 -0.0078125 C10.44419922 -0.00523437 11.45675781 -0.00265625 12.5 0 C13.42466064 0.00225586 14.34932129 0.00451172 15.30200195 0.00683594 C17.94921875 0.265625 17.94921875 0.265625 22.94921875 2.265625 C23.27921875 23.385625 23.60921875 44.505625 23.94921875 66.265625 C31.01296312 57.67738238 31.01296312 57.67738238 37.76171875 48.890625 C39.1520422 47.01153575 40.54756759 45.13627989 41.94921875 43.265625 C42.50488525 42.39518555 43.06055176 41.52474609 43.63305664 40.62792969 C45.94921875 38.265625 45.94921875 38.265625 49.21728516 37.68212891 C50.48233887 37.70194824 51.74739258 37.72176758 53.05078125 37.7421875 C53.72845551 37.74689056 54.40612976 37.75159363 55.1043396 37.75643921 C57.26201396 37.77773215 59.41720468 37.8343174 61.57421875 37.890625 C63.03252893 37.90713784 64.49086536 37.92148444 65.94921875 37.93359375 C76.55525089 38.06864107 76.55525089 38.06864107 78.94921875 39.265625 C78.06815758 43.71615987 75.57440846 46.57497955 72.76171875 50.015625 C71.75446496 51.26893418 70.74794902 52.52283673 69.7421875 53.77734375 C69.01588135 54.67912354 69.01588135 54.67912354 68.27490234 55.59912109 C66.65382266 57.63696454 65.10737002 59.72356301 63.57421875 61.828125 C61.27649307 64.9310366 58.68158899 67.53325476 55.94921875 70.265625 C53.55549281 73.22022396 51.24227296 76.23244955 48.94921875 79.265625 C52.091385 85.32710884 55.28331664 91.07190721 59.5546875 96.4140625 C60.94921875 98.265625 60.94921875 98.265625 62.31298828 100.54736328 C63.96864379 103.29789573 65.7245107 105.95060613 67.5234375 108.609375 C68.19052734 109.60839844 68.85761719 110.60742188 69.54492188 111.63671875 C70.9430834 113.72808641 72.34939634 115.81402674 73.76367188 117.89453125 C74.75850586 119.39306641 74.75850586 119.39306641 75.7734375 120.921875 C76.38276123 121.82744141 76.99208496 122.73300781 77.61987305 123.66601562 C79.05671154 126.47583313 79.23402274 128.15765328 78.94921875 131.265625 C69.29681139 133.01710243 53.71085817 135.46279515 44.98974609 130.04931641 C41.97596973 126.93718837 40.35439712 123.21074936 38.77929688 119.22167969 C37.40211976 115.97640232 35.47442547 113.09916387 33.57421875 110.140625 C32.94773437 109.10679687 32.32125 108.07296875 31.67578125 107.0078125 C30.19755971 104.66004887 28.65410758 102.4516481 26.94921875 100.265625 C23.46172969 104.0234856 22.44054192 106.330974 22.33984375 111.44140625 C22.30922852 112.48466064 22.27861328 113.52791504 22.24707031 114.6027832 C22.2312793 115.914646 22.21548828 117.22650879 22.19921875 118.578125 C22.11671875 122.765 22.03421875 126.951875 21.94921875 131.265625 C12.70921875 131.265625 3.46921875 131.265625 -6.05078125 131.265625 C-7.30824638 128.75069474 -7.17943203 127.03262989 -7.18449402 124.21716309 C-7.188759 123.14870651 -7.19302399 122.08024994 -7.19741821 120.97941589 C-7.19696503 119.80220474 -7.19651184 118.62499359 -7.19604492 117.41210938 C-7.19940353 116.17632645 -7.20276215 114.94054352 -7.20622253 113.66731262 C-7.21411009 110.2727582 -7.21740096 106.87826492 -7.21803832 103.48370552 C-7.21898664 100.65300208 -7.22266396 97.82230455 -7.22621042 94.99160337 C-7.23435776 88.31585104 -7.23679435 81.6401122 -7.23608398 74.96435547 C-7.23548275 68.06948498 -7.24604296 61.17469261 -7.26182765 54.2798419 C-7.27488486 48.36643971 -7.28026867 42.45306313 -7.27962857 36.53964663 C-7.2793731 33.00501543 -7.28225163 29.47045367 -7.29280663 25.93583679 C-7.30424766 21.99690672 -7.29975197 18.05808465 -7.29370117 14.11914062 C-7.29932068 12.94192947 -7.30494019 11.76471832 -7.31072998 10.55183411 C-7.30653549 9.48337753 -7.302341 8.41492096 -7.29801941 7.31408691 C-7.29883656 5.91593624 -7.29883656 5.91593624 -7.29967022 4.4895401 C-6.77995688 -0.15429102 -3.9701468 0.00972139 0 0 Z " fill="#FB7C02" transform="translate(346.05078125,191.734375)"/>
<path d="M0 0 C1.00160156 -0.020625 2.00320312 -0.04125 3.03515625 -0.0625 C3.99550781 -0.06765625 4.95585937 -0.0728125 5.9453125 -0.078125 C6.81945801 -0.0874707 7.69360352 -0.09681641 8.59423828 -0.10644531 C11.40549084 0.33290694 12.11215099 1.06289105 13.875 3.25 C14.16126585 6.17793722 14.2639967 8.8914718 14.23144531 11.81933594 C14.23348969 12.69656815 14.23553406 13.57380035 14.23764038 14.47761536 C14.24066141 17.39674361 14.22209244 20.31531302 14.203125 23.234375 C14.20006202 25.28574484 14.19819 27.33711677 14.19744873 29.38848877 C14.19283318 33.71301117 14.17838839 38.03734869 14.15625 42.36181641 C14.12845815 47.80891904 14.11717803 53.25587475 14.11243439 58.70304108 C14.09394334 78.039738 14.02349039 97.3745012 13.421875 116.703125 C13.3836261 117.97565125 13.3453772 119.24817749 13.30596924 120.55926514 C13.00408609 128.99182781 13.00408609 128.99182781 11.875 131.25 C7.95834892 131.27904864 4.0417256 131.29681517 0.125 131.3125 C-1.54175781 131.32506836 -1.54175781 131.32506836 -3.2421875 131.33789062 C-4.31210938 131.34111328 -5.38203125 131.34433594 -6.484375 131.34765625 C-7.96115723 131.35551147 -7.96115723 131.35551147 -9.46777344 131.36352539 C-11.86211726 131.26123121 -13.82000696 130.83555899 -16.125 130.25 C-18.5972624 130.82173184 -18.5972624 130.82173184 -21.1875 131.75 C-31.58084747 134.72740458 -40.76676136 132.41177919 -50.125 127.25 C-60.95100289 119.34178599 -65.30960771 106.17567874 -67.875 93.5625 C-67.9575 92.469375 -68.04 91.37625 -68.125 90.25 C-68.18816406 89.56421875 -68.25132813 88.8784375 -68.31640625 88.171875 C-68.60383 82.57174765 -67.68377469 77.47405574 -66.375 72.0625 C-66.21813721 71.39742432 -66.06127441 70.73234863 -65.8996582 70.04711914 C-64.66028478 65.26260273 -62.72084506 61.45461457 -60.125 57.25 C-58.1875 57.5625 -58.1875 57.5625 -56.125 58.25 C-55.795 59.24 -55.465 60.23 -55.125 61.25 C-51.80647256 53.49029291 -51.80647256 53.49029291 -50.125 45.25 C-48.805 45.58 -47.485 45.91 -46.125 46.25 C-46.125 46.91 -46.125 47.57 -46.125 48.25 C-42.87767068 46.62633534 -42.42344864 43.49612161 -41.125 40.25 C-39.64 40.745 -39.64 40.745 -38.125 41.25 C-34.11781127 50.43426143 -35.6866122 60.42254021 -38.125 69.8125 C-40.71478851 79.82019077 -42.12084833 89.77511524 -37.125 99.25 C-34.32963179 102.05035105 -32.79035562 103.16407137 -28.828125 103.67578125 C-27.68859375 103.63839844 -26.5490625 103.60101563 -25.375 103.5625 C-24.22515625 103.53800781 -23.0753125 103.51351562 -21.890625 103.48828125 C-19.21730727 103.55690681 -19.21730727 103.55690681 -18.125 102.25 C-18.00645585 100.3445174 -17.95758014 98.4346741 -17.93554688 96.52563477 C-17.9187941 95.29302917 -17.90204132 94.06042358 -17.88478088 92.79046631 C-17.87106623 91.42411333 -17.85739039 90.05775997 -17.84375 88.69140625 C-17.82596863 87.28150817 -17.80768481 85.87161636 -17.78892517 84.46173096 C-17.74978728 81.46553009 -17.71337747 78.46931415 -17.6791687 75.47305298 C-17.59091697 67.77875598 -17.48491947 60.08469431 -17.37890625 52.390625 C-17.36866991 51.6373675 -17.35843357 50.88410999 -17.34788704 50.1080265 C-17.1835154 38.08982949 -16.94833093 26.07582474 -16.5625 14.0625 C-16.54026367 13.36794708 -16.51802734 12.67339417 -16.49511719 11.95779419 C-16.37927503 8.3882457 -16.2566833 4.81899855 -16.125 1.25 C-10.72750557 0.04086432 -5.51007939 0.02858666 0 0 Z " fill="#FB7C02" transform="translate(150.125,191.75)"/>
<path d="M0 0 C1.26650391 -0.020625 2.53300781 -0.04125 3.83789062 -0.0625 C5.04509766 -0.06765625 6.25230469 -0.0728125 7.49609375 -0.078125 C8.61040771 -0.0874707 9.72472168 -0.09681641 10.87280273 -0.10644531 C11.76040283 0.01118164 12.64800293 0.12880859 13.5625 0.25 C15.84059791 3.66714686 15.82115023 4.92516783 15.84960938 8.94311523 C15.86302368 10.11120224 15.87643799 11.27928925 15.89025879 12.48277283 C15.89553589 13.74529373 15.90081299 15.00781464 15.90625 16.30859375 C15.92859026 18.28833035 15.95094124 20.26806689 15.97393036 22.24779606 C16.01167714 25.72763161 16.03668471 29.20755883 16.0625 32.6875 C16.09329391 36.83473209 16.1263075 40.9818497 16.17443848 45.12892151 C16.20356512 47.71195521 16.22392669 50.29510536 16.23474121 52.87828064 C16.24815552 54.04951981 16.26156982 55.22075897 16.27539062 56.42749023 C16.28268188 57.45768784 16.28997314 58.48788544 16.29748535 59.54930115 C16.56435415 62.26889519 17.16762292 63.92615125 18.5625 66.25 C20.27000683 66.33203325 21.97869348 66.38965342 23.6875 66.4375 C25.11449219 66.48970703 25.11449219 66.48970703 26.5703125 66.54296875 C30.11123539 66.19627264 32.43781816 64.89586826 35.5625 63.25 C35.57280746 62.47547989 35.58311493 61.70095978 35.59373474 60.90296936 C35.69154297 53.61871079 35.79403311 46.33454054 35.90183926 39.05042362 C35.95710231 35.30521202 36.01052755 31.55999266 36.05981445 27.81469727 C36.10740835 24.20311414 36.15974906 20.59162868 36.21544075 16.98016167 C36.23588694 15.59942481 36.25459622 14.21866114 36.27157402 12.83787727 C36.2955678 10.91016686 36.32620264 8.98254251 36.35717773 7.05493164 C36.37272202 5.95572891 36.3882663 4.85652618 36.40428162 3.72401428 C36.5625 1.25 36.5625 1.25 37.5625 0.25 C39.63512076 0.16232888 41.71070294 0.14304127 43.78515625 0.15234375 C45.04521484 0.15556641 46.30527344 0.15878906 47.60351562 0.16210938 C48.94401109 0.17046597 50.28450588 0.17893093 51.625 0.1875 C52.96939942 0.1925134 54.3138006 0.19707658 55.65820312 0.20117188 C58.95967941 0.21300512 62.26106803 0.22949029 65.5625 0.25 C65.5856219 12.22803559 65.6034143 24.20606591 65.61431217 36.18411922 C65.61954134 41.74539411 65.62663958 47.30665379 65.63793945 52.86791992 C65.64876715 58.23007419 65.65477658 63.59221378 65.65737724 68.95437813 C65.65923171 71.00500278 65.66285272 73.0556266 65.66823006 75.10624504 C65.67543893 77.96790203 65.67649101 80.82949757 65.67602539 83.69116211 C65.67962067 84.54783478 65.68321594 85.40450745 65.68692017 86.28713989 C65.67655216 92.13594784 65.67655216 92.13594784 64.5625 93.25 C62.80564326 93.34949077 61.04482667 93.3808026 59.28515625 93.3828125 C58.21458984 93.38410156 57.14402344 93.38539063 56.04101562 93.38671875 C54.91373047 93.38285156 53.78644531 93.37898438 52.625 93.375 C51.50158203 93.37886719 50.37816406 93.38273437 49.22070312 93.38671875 C48.14884766 93.38542969 47.07699219 93.38414062 45.97265625 93.3828125 C44.98402588 93.38168457 43.99539551 93.38055664 42.97680664 93.37939453 C40.5625 93.25 40.5625 93.25 38.5625 92.25 C38.5625 91.26 38.5625 90.27 38.5625 89.25 C37.94375 89.683125 37.325 90.11625 36.6875 90.5625 C27.7063388 95.41232705 18.10116384 96.93715523 8.15625 94.37109375 C-2.37235053 90.71264655 -7.59405841 85.73613407 -12.4921875 75.875 C-14.40146368 70.57320829 -14.56298116 65.09293137 -14.56689453 59.50439453 C-14.57004669 58.20680206 -14.57319885 56.90920959 -14.57644653 55.57229614 C-14.57465756 54.17580124 -14.57260682 52.77930666 -14.5703125 51.3828125 C-14.5709868 49.93789656 -14.57195787 48.49298074 -14.57321167 47.04806519 C-14.57467989 44.03398549 -14.57256046 41.01993559 -14.56787109 38.00585938 C-14.56214347 34.13531214 -14.56547737 30.26483379 -14.57144356 26.39428902 C-14.57504668 23.41756668 -14.57391227 20.44086085 -14.57131577 17.46413803 C-14.57064739 16.03592801 -14.5714718 14.6077165 -14.57379532 13.17950821 C-14.57632102 11.19275184 -14.57179221 9.20599022 -14.56689453 7.21923828 C-14.56609894 6.08785431 -14.56530334 4.95647034 -14.56448364 3.790802 C-14.25206227 -2.46040357 -4.77207975 0.01936917 0 0 Z " fill="#FB7C03" transform="translate(188.4375,229.75)"/>
<path d="M0 0 C1.05078125 1.55859375 1.05078125 1.55859375 0.98046875 3.8984375 C-0.14952534 7.13173993 -1.75418996 9.39517671 -3.82421875 12.12109375 C-4.87222656 13.51521484 -4.87222656 13.51521484 -5.94140625 14.9375 C-6.60398437 15.80246094 -7.2665625 16.66742188 -7.94921875 17.55859375 C-8.95028623 18.8911258 -9.95072655 20.2241309 -10.94921875 21.55859375 C-15.42962316 21.04654753 -17.49478125 19.33899467 -20.94921875 16.55859375 C-26.20025576 14.11625096 -31.28170719 14.35698267 -36.94921875 14.55859375 C-36.62958386 17.52974531 -36.62958386 17.52974531 -34.94921875 20.55859375 C-32.10397743 22.09016785 -29.07109583 22.77708839 -25.94921875 23.55859375 C-14.22749236 26.87444975 -5.43532284 30.70791159 0.80078125 41.62109375 C4.65962642 50.6893799 3.38941993 59.65045392 -0.13671875 68.55859375 C-5.91223279 78.11806526 -13.01546253 83.34145693 -23.80078125 86.015625 C-39.12759824 88.65883537 -52.22585679 85.15545994 -64.94921875 76.55859375 C-65.93921875 75.89859375 -66.92921875 75.23859375 -67.94921875 74.55859375 C-67.94921875 73.89859375 -67.94921875 73.23859375 -67.94921875 72.55859375 C-68.60921875 72.55859375 -69.26921875 72.55859375 -69.94921875 72.55859375 C-70.640625 70.328125 -70.640625 70.328125 -70.94921875 67.55859375 C-69.7265625 65.3828125 -69.7265625 65.3828125 -67.88671875 63.24609375 C-64.8328682 59.62761477 -62.10837434 55.94512279 -59.50390625 51.9921875 C-57.94921875 50.55859375 -57.94921875 50.55859375 -55.55078125 50.1328125 C-52.31524145 50.6623528 -50.91809791 51.80375081 -48.44921875 53.93359375 C-43.27138562 58.3639228 -39.48941029 59.83420236 -32.63671875 59.68359375 C-31.03376953 59.65652344 -31.03376953 59.65652344 -29.3984375 59.62890625 C-28.59019531 59.60570312 -27.78195312 59.5825 -26.94921875 59.55859375 C-26.94921875 57.24859375 -26.94921875 54.93859375 -26.94921875 52.55859375 C-31.93097939 50.47049408 -36.86980037 48.52132624 -42.07421875 47.05859375 C-48.10081193 45.31505107 -54.26184159 42.85535614 -58.94921875 38.55859375 C-58.94921875 37.89859375 -58.94921875 37.23859375 -58.94921875 36.55859375 C-59.93921875 36.22859375 -60.92921875 35.89859375 -61.94921875 35.55859375 C-66.92803626 28.44599731 -67.07159912 21.01961497 -65.94921875 12.55859375 C-63.36835556 4.38272057 -59.01657773 -1.63130261 -51.94921875 -6.44140625 C-51.02496094 -7.07175781 -51.02496094 -7.07175781 -50.08203125 -7.71484375 C-33.99825786 -17.12485225 -13.63385352 -10.0819478 0 0 Z " fill="#FB7C03" transform="translate(329.94921875,238.44140625)"/>
<path d="M0 0 C1.00869141 -0.00257813 2.01738281 -0.00515625 3.05664062 -0.0078125 C4.11431641 -0.00007812 5.17199219 0.00765625 6.26171875 0.015625 C7.83083008 0.00402344 7.83083008 0.00402344 9.43164062 -0.0078125 C10.44419922 -0.00523437 11.45675781 -0.00265625 12.5 0 C13.42466064 0.00225586 14.34932129 0.00451172 15.30200195 0.00683594 C17.94921875 0.265625 17.94921875 0.265625 22.94921875 2.265625 C23.27921875 23.385625 23.60921875 44.505625 23.94921875 66.265625 C26.25921875 63.625625 28.56921875 60.985625 30.94921875 58.265625 C31.44421875 60.245625 31.44421875 60.245625 31.94921875 62.265625 C30.296875 64.84375 30.296875 64.84375 28.01171875 67.515625 C27.26019531 68.40765625 26.50867188 69.2996875 25.734375 70.21875 C25.14527344 70.89421875 24.55617188 71.5696875 23.94921875 72.265625 C22.29921875 71.935625 20.64921875 71.605625 18.94921875 71.265625 C17.67385336 64.42101696 17.82299387 57.61924119 17.8515625 50.67578125 C17.85297745 49.37611923 17.8543924 48.07645721 17.85585022 46.7374115 C17.85964541 43.30319247 17.86944967 39.86901658 17.8805542 36.43481445 C17.8908332 32.92204369 17.89536167 29.40926588 17.90039062 25.89648438 C17.91107499 19.01951188 17.92864708 12.14257496 17.94921875 5.265625 C11.01921875 5.265625 4.08921875 5.265625 -3.05078125 5.265625 C-2.72078125 7.245625 -2.39078125 9.225625 -2.05078125 11.265625 C-1.96830602 12.98521487 -1.92867559 14.70735897 -1.93052673 16.42892456 C-1.92915207 17.42162857 -1.9277774 18.41433258 -1.92636108 19.43711853 C-1.92995636 20.50958328 -1.93355164 21.58204803 -1.93725586 22.68701172 C-1.93710983 23.82905563 -1.93696381 24.97109955 -1.93681335 26.14775085 C-1.93750869 29.91362422 -1.94528341 33.6794478 -1.953125 37.4453125 C-1.95499052 40.05990573 -1.95641379 42.67449931 -1.95741272 45.28909302 C-1.96051568 51.46190484 -1.96871507 57.63469887 -1.97876221 63.80750287 C-1.98995554 70.83773551 -1.9954419 77.86796903 -2.00045764 84.89820838 C-2.01089858 99.35402331 -2.02868034 113.80982331 -2.05078125 128.265625 C4.21921875 127.935625 10.48921875 127.605625 16.94921875 127.265625 C17.84768358 119.96559827 17.89213268 113.03316235 17.49609375 105.68359375 C18.07199524 101.33950924 19.64058502 100.01097906 22.94921875 97.265625 C23.27921875 96.935625 23.60921875 96.605625 23.94921875 96.265625 C25.94880239 96.22481717 27.94967129 96.22308144 29.94921875 96.265625 C30.93921875 99.235625 31.92921875 102.205625 32.94921875 105.265625 C34.59921875 105.595625 36.24921875 105.925625 37.94921875 106.265625 C37.94921875 108.905625 37.94921875 111.545625 37.94921875 114.265625 C38.93921875 114.265625 39.92921875 114.265625 40.94921875 114.265625 C41.27921875 115.915625 41.60921875 117.565625 41.94921875 119.265625 C42.60921875 119.265625 43.26921875 119.265625 43.94921875 119.265625 C44.21734375 119.86375 44.48546875 120.461875 44.76171875 121.078125 C46.80595654 124.8438262 48.36755403 126.0819414 52.51171875 127.390625 C60.18510483 128.92530222 68.15074636 128.94594652 75.94921875 129.265625 C75.94921875 128.275625 75.94921875 127.285625 75.94921875 126.265625 C74.46421875 125.770625 74.46421875 125.770625 72.94921875 125.265625 C71.24388658 121.94471498 70.94921875 120.08069716 70.94921875 116.265625 C69.62921875 116.265625 68.30921875 116.265625 66.94921875 116.265625 C66.45421875 112.305625 66.45421875 112.305625 65.94921875 108.265625 C69.5221568 111.55174463 72.08170156 115.15748362 74.69921875 119.203125 C75.11042969 119.81091797 75.52164063 120.41871094 75.9453125 121.04492188 C78.2368629 124.57360497 79.49608633 127.02740124 78.94921875 131.265625 C69.29681139 133.01710243 53.71085817 135.46279515 44.98974609 130.04931641 C41.97596973 126.93718837 40.35439712 123.21074936 38.77929688 119.22167969 C37.40211976 115.97640232 35.47442547 113.09916387 33.57421875 110.140625 C32.94773437 109.10679687 32.32125 108.07296875 31.67578125 107.0078125 C30.19755971 104.66004887 28.65410758 102.4516481 26.94921875 100.265625 C23.46172969 104.0234856 22.44054192 106.330974 22.33984375 111.44140625 C22.30922852 112.48466064 22.27861328 113.52791504 22.24707031 114.6027832 C22.2312793 115.914646 22.21548828 117.22650879 22.19921875 118.578125 C22.11671875 122.765 22.03421875 126.951875 21.94921875 131.265625 C12.70921875 131.265625 3.46921875 131.265625 -6.05078125 131.265625 C-7.30824638 128.75069474 -7.17943203 127.03262989 -7.18449402 124.21716309 C-7.188759 123.14870651 -7.19302399 122.08024994 -7.19741821 120.97941589 C-7.19696503 119.80220474 -7.19651184 118.62499359 -7.19604492 117.41210938 C-7.19940353 116.17632645 -7.20276215 114.94054352 -7.20622253 113.66731262 C-7.21411009 110.2727582 -7.21740096 106.87826492 -7.21803832 103.48370552 C-7.21898664 100.65300208 -7.22266396 97.82230455 -7.22621042 94.99160337 C-7.23435776 88.31585104 -7.23679435 81.6401122 -7.23608398 74.96435547 C-7.23548275 68.06948498 -7.24604296 61.17469261 -7.26182765 54.2798419 C-7.27488486 48.36643971 -7.28026867 42.45306313 -7.27962857 36.53964663 C-7.2793731 33.00501543 -7.28225163 29.47045367 -7.29280663 25.93583679 C-7.30424766 21.99690672 -7.29975197 18.05808465 -7.29370117 14.11914062 C-7.29932068 12.94192947 -7.30494019 11.76471832 -7.31072998 10.55183411 C-7.30653549 9.48337753 -7.302341 8.41492096 -7.29801941 7.31408691 C-7.29883656 5.91593624 -7.29883656 5.91593624 -7.29967022 4.4895401 C-6.77995688 -0.15429102 -3.9701468 0.00972139 0 0 Z " fill="#E77D15" transform="translate(346.05078125,191.734375)"/>
<path d="M0 0 C1.26650391 -0.020625 2.53300781 -0.04125 3.83789062 -0.0625 C5.04509766 -0.06765625 6.25230469 -0.0728125 7.49609375 -0.078125 C8.61040771 -0.0874707 9.72472168 -0.09681641 10.87280273 -0.10644531 C11.76040283 0.01118164 12.64800293 0.12880859 13.5625 0.25 C15.84059791 3.66714686 15.82115023 4.92516783 15.84960938 8.94311523 C15.86302368 10.11120224 15.87643799 11.27928925 15.89025879 12.48277283 C15.89553589 13.74529373 15.90081299 15.00781464 15.90625 16.30859375 C15.92859026 18.28833035 15.95094124 20.26806689 15.97393036 22.24779606 C16.01167714 25.72763161 16.03668471 29.20755883 16.0625 32.6875 C16.09329391 36.83473209 16.1263075 40.9818497 16.17443848 45.12892151 C16.20356512 47.71195521 16.22392669 50.29510536 16.23474121 52.87828064 C16.24815552 54.04951981 16.26156982 55.22075897 16.27539062 56.42749023 C16.28268188 57.45768784 16.28997314 58.48788544 16.29748535 59.54930115 C16.56435415 62.26889519 17.16762292 63.92615125 18.5625 66.25 C20.27000683 66.33203325 21.97869348 66.38965342 23.6875 66.4375 C25.11449219 66.48970703 25.11449219 66.48970703 26.5703125 66.54296875 C30.11123539 66.19627264 32.43781816 64.89586826 35.5625 63.25 C35.57280746 62.47547989 35.58311493 61.70095978 35.59373474 60.90296936 C35.69154297 53.61871079 35.79403311 46.33454054 35.90183926 39.05042362 C35.95710231 35.30521202 36.01052755 31.55999266 36.05981445 27.81469727 C36.10740835 24.20311414 36.15974906 20.59162868 36.21544075 16.98016167 C36.23588694 15.59942481 36.25459622 14.21866114 36.27157402 12.83787727 C36.2955678 10.91016686 36.32620264 8.98254251 36.35717773 7.05493164 C36.37272202 5.95572891 36.3882663 4.85652618 36.40428162 3.72401428 C36.5625 1.25 36.5625 1.25 37.5625 0.25 C39.63512076 0.16232888 41.71070294 0.14304127 43.78515625 0.15234375 C45.04521484 0.15556641 46.30527344 0.15878906 47.60351562 0.16210938 C48.94401109 0.17046597 50.28450588 0.17893093 51.625 0.1875 C52.96939942 0.1925134 54.3138006 0.19707658 55.65820312 0.20117188 C58.95967941 0.21300512 62.26106803 0.22949029 65.5625 0.25 C65.5856219 12.22803559 65.6034143 24.20606591 65.61431217 36.18411922 C65.61954134 41.74539411 65.62663958 47.30665379 65.63793945 52.86791992 C65.64876715 58.23007419 65.65477658 63.59221378 65.65737724 68.95437813 C65.65923171 71.00500278 65.66285272 73.0556266 65.66823006 75.10624504 C65.67543893 77.96790203 65.67649101 80.82949757 65.67602539 83.69116211 C65.67962067 84.54783478 65.68321594 85.40450745 65.68692017 86.28713989 C65.67655216 92.13594784 65.67655216 92.13594784 64.5625 93.25 C62.80564326 93.34949077 61.04482667 93.3808026 59.28515625 93.3828125 C58.21458984 93.38410156 57.14402344 93.38539063 56.04101562 93.38671875 C54.91373047 93.38285156 53.78644531 93.37898438 52.625 93.375 C51.50158203 93.37886719 50.37816406 93.38273437 49.22070312 93.38671875 C48.14884766 93.38542969 47.07699219 93.38414062 45.97265625 93.3828125 C44.98402588 93.38168457 43.99539551 93.38055664 42.97680664 93.37939453 C40.5625 93.25 40.5625 93.25 38.5625 92.25 C38.5625 91.26 38.5625 90.27 38.5625 89.25 C37.94375 89.683125 37.325 90.11625 36.6875 90.5625 C27.7063388 95.41232705 18.10116384 96.93715523 8.15625 94.37109375 C-2.37235053 90.71264655 -7.59405841 85.73613407 -12.4921875 75.875 C-14.40146368 70.57320829 -14.56298116 65.09293137 -14.56689453 59.50439453 C-14.57004669 58.20680206 -14.57319885 56.90920959 -14.57644653 55.57229614 C-14.57465756 54.17580124 -14.57260682 52.77930666 -14.5703125 51.3828125 C-14.5709868 49.93789656 -14.57195787 48.49298074 -14.57321167 47.04806519 C-14.57467989 44.03398549 -14.57256046 41.01993559 -14.56787109 38.00585938 C-14.56214347 34.13531214 -14.56547737 30.26483379 -14.57144356 26.39428902 C-14.57504668 23.41756668 -14.57391227 20.44086085 -14.57131577 17.46413803 C-14.57064739 16.03592801 -14.5714718 14.6077165 -14.57379532 13.17950821 C-14.57632102 11.19275184 -14.57179221 9.20599022 -14.56689453 7.21923828 C-14.56609894 6.08785431 -14.56530334 4.95647034 -14.56448364 3.790802 C-14.25206227 -2.46040357 -4.77207975 0.01936917 0 0 Z M38.5625 2.25 C38.57821045 4.99038574 38.57821045 4.99038574 38.59423828 7.78613281 C38.62650004 13.82507067 38.64947483 19.86398811 38.66612434 25.90298843 C38.67655763 29.56411812 38.69070844 33.22515449 38.71337891 36.88623047 C38.73512364 40.41995917 38.74707205 43.95359816 38.75225449 47.48738861 C38.75774344 49.49042217 38.77335381 51.49341969 38.78909302 53.49639893 C38.78931961 55.32784454 38.78931961 55.32784454 38.78955078 57.19628906 C38.793992 58.27106506 38.79843323 59.34584106 38.80300903 60.45318604 C38.5613601 63.26325564 38.09388157 64.90262302 36.5625 67.25 C32.95016033 68.89275447 28.71532701 68.36045534 24.8125 68.3125 C24.11511719 68.30798828 23.41773438 68.30347656 22.69921875 68.29882812 C20.98694197 68.2871002 19.27470967 68.26916653 17.5625 68.25 C17.459375 67.610625 17.35625 66.97125 17.25 66.3125 C17.023125 65.631875 16.79625 64.95125 16.5625 64.25 C15.0775 63.755 15.0775 63.755 13.5625 63.25 C12.52983518 60.15200554 12.40740475 57.92740727 12.35717773 54.67700195 C12.33723251 53.53604568 12.31728729 52.39508942 12.29673767 51.21955872 C12.28002518 49.98823715 12.26331268 48.75691559 12.24609375 47.48828125 C12.22531265 46.22735153 12.20453156 44.96642181 12.18312073 43.6672821 C12.12877878 40.31854542 12.07853834 36.96979795 12.03027344 33.62097168 C11.97999643 30.20233771 11.92434276 26.78379174 11.86914062 23.36523438 C11.76196496 16.6602242 11.66069188 9.95514752 11.5625 3.25 C3.6425 3.25 -4.2775 3.25 -12.4375 3.25 C-12.46017318 11.30874406 -12.47848548 19.36746294 -12.48931217 27.42623043 C-12.49451078 31.16901277 -12.50155297 34.91177198 -12.51293945 38.65454102 C-12.52387646 42.27257576 -12.52979955 45.89058837 -12.53237724 49.50863838 C-12.53421213 50.88279124 -12.53779485 52.25694301 -12.54323006 53.63108635 C-13.38059072 66.32749371 -13.38059072 66.32749371 -9.5 77.75 C-7.51627451 79.27911232 -7.51627451 79.27911232 -5.4375 80.25 C-4.8125 82.3125 -4.8125 82.3125 -4.4375 84.25 C-2.54570797 84.9314823 -2.54570797 84.9314823 -0.4375 85.25 C0.5525 84.26 0.5525 84.26 1.5625 83.25 C1.76875 84.19875 1.975 85.1475 2.1875 86.125 C3.23385617 89.44444912 3.23385617 89.44444912 6.12890625 90.41796875 C10.11884016 91.3848128 13.78293592 91.67294559 17.875 91.6875 C19.0038562 91.69330078 19.0038562 91.69330078 20.15551758 91.69921875 C25.60682871 91.58607944 29.21776349 90.49891821 33.7578125 87.36328125 C36.35927436 85.75848335 38.59474592 85.86951871 41.5625 86.25 C41.8925 87.57 42.2225 88.89 42.5625 90.25 C49.2158313 91.27358943 55.83194849 91.616142 62.5625 91.25 C66.78607503 87.02642497 64.67118667 69.82403614 64.67864132 63.66181946 C64.67574566 61.42035967 64.66807024 59.17894718 64.66015625 56.9375 C64.65828441 55.34611049 64.65686414 53.75472038 64.65586853 52.16333008 C64.65210353 48.03383714 64.64232693 43.90438102 64.63116455 39.77490234 C64.62081878 35.53743996 64.61634311 31.29997145 64.61132812 27.0625 C64.60069737 18.79164813 64.58315166 10.52083293 64.5625 2.25 C55.9825 2.25 47.4025 2.25 38.5625 2.25 Z " fill="#9E591E" transform="translate(188.4375,229.75)"/>
<path d="M0 0 C1.00160156 -0.020625 2.00320312 -0.04125 3.03515625 -0.0625 C3.99550781 -0.06765625 4.95585937 -0.0728125 5.9453125 -0.078125 C6.81945801 -0.0874707 7.69360352 -0.09681641 8.59423828 -0.10644531 C11.40549084 0.33290694 12.11215099 1.06289105 13.875 3.25 C14.16126585 6.17793722 14.2639967 8.8914718 14.23144531 11.81933594 C14.23451187 13.13518425 14.23451187 13.13518425 14.23764038 14.47761536 C14.24066141 17.39674361 14.22209244 20.31531302 14.203125 23.234375 C14.20006202 25.28574484 14.19819 27.33711677 14.19744873 29.38848877 C14.19283318 33.71301117 14.17838839 38.03734869 14.15625 42.36181641 C14.12845815 47.80891904 14.11717803 53.25587475 14.11243439 58.70304108 C14.09394334 78.039738 14.02349039 97.3745012 13.421875 116.703125 C13.3836261 117.97565125 13.3453772 119.24817749 13.30596924 120.55926514 C13.00408609 128.99182781 13.00408609 128.99182781 11.875 131.25 C7.95834892 131.27904864 4.0417256 131.29681517 0.125 131.3125 C-1.54175781 131.32506836 -1.54175781 131.32506836 -3.2421875 131.33789062 C-4.31210938 131.34111328 -5.38203125 131.34433594 -6.484375 131.34765625 C-7.96115723 131.35551147 -7.96115723 131.35551147 -9.46777344 131.36352539 C-11.87227397 131.26079728 -13.81306989 130.85178006 -16.125 130.25 C-17.445 130.25 -18.765 130.25 -20.125 130.25 C-20.125 129.26 -20.125 128.27 -20.125 127.25 C-17.485 126.92 -14.845 126.59 -12.125 126.25 C-12.125 127.24 -12.125 128.23 -12.125 129.25 C-4.865 128.92 2.395 128.59 9.875 128.25 C9.875 87.33 9.875 46.41 9.875 4.25 C2.285 3.92 -5.305 3.59 -13.125 3.25 C-13.455 36.25 -13.785 69.25 -14.125 103.25 C-23.19379362 106.65079761 -23.19379362 106.65079761 -27.5 106.5625 C-28.33273438 106.55863281 -29.16546875 106.55476563 -30.0234375 106.55078125 C-32.125 106.25 -32.125 106.25 -34.125 104.25 C-36.19374034 103.6074765 -36.19374034 103.6074765 -38.125 103.25 C-38.228125 102.610625 -38.33125 101.97125 -38.4375 101.3125 C-38.664375 100.631875 -38.89125 99.95125 -39.125 99.25 C-40.115 98.92 -41.105 98.59 -42.125 98.25 C-42.18316623 94.83340509 -42.21865195 91.41693795 -42.25 88 C-42.27513672 86.54787109 -42.27513672 86.54787109 -42.30078125 85.06640625 C-42.30722656 84.13183594 -42.31367187 83.19726562 -42.3203125 82.234375 C-42.33078613 81.37553711 -42.34125977 80.51669922 -42.35205078 79.63183594 C-42.10793323 77.07096404 -41.41490512 75.45488971 -40.125 73.25 C-40.15980469 74.4565625 -40.19460937 75.663125 -40.23046875 76.90625 C-40.25862984 78.52081928 -40.28592749 80.13540379 -40.3125 81.75 C-40.33763672 82.54148437 -40.36277344 83.33296875 -40.38867188 84.1484375 C-40.47270462 90.98310107 -39.5766357 96.56588161 -34.859375 101.73046875 C-31.46768774 103.61527782 -29.23317774 103.68906918 -25.375 103.5625 C-23.65023437 103.52576172 -23.65023437 103.52576172 -21.890625 103.48828125 C-19.21730727 103.55690681 -19.21730727 103.55690681 -18.125 102.25 C-18.00645585 100.3445174 -17.95758014 98.4346741 -17.93554688 96.52563477 C-17.9187941 95.29302917 -17.90204132 94.06042358 -17.88478088 92.79046631 C-17.87106623 91.42411333 -17.85739039 90.05775997 -17.84375 88.69140625 C-17.82596863 87.28150817 -17.80768481 85.87161636 -17.78892517 84.46173096 C-17.74978728 81.46553009 -17.71337747 78.46931415 -17.6791687 75.47305298 C-17.59091697 67.77875598 -17.48491947 60.08469431 -17.37890625 52.390625 C-17.36866991 51.6373675 -17.35843357 50.88410999 -17.34788704 50.1080265 C-17.1835154 38.08982949 -16.94833093 26.07582474 -16.5625 14.0625 C-16.52914551 13.02067062 -16.52914551 13.02067062 -16.49511719 11.95779419 C-16.37927503 8.3882457 -16.2566833 4.81899855 -16.125 1.25 C-10.72750557 0.04086432 -5.51007939 0.02858666 0 0 Z " fill="#9D5927" transform="translate(150.125,191.75)"/>
<path d="M0 0 C0.99 0.33 1.98 0.66 3 1 C7.47788811 11.15387338 5.14124322 22.79095954 2 33 C1.34 33 0.68 33 0 33 C-0.33 40.92 -0.66 48.84 -1 57 C-1.66 55.68 -2.32 54.36 -3 53 C-3.495 52.505 -3.495 52.505 -4 52 C-4.07319621 49.30345146 -4.09242537 46.63308542 -4.0625 43.9375 C-4.05798828 43.17888672 -4.05347656 42.42027344 -4.04882812 41.63867188 C-4.0370068 39.75908129 -4.01907078 37.87953101 -4 36 C-8.17975313 38.15102614 -10.23332592 40.32515649 -12.6875 44.3125 C-13.26886719 45.23675781 -13.85023437 46.16101563 -14.44921875 47.11328125 C-17.05228144 51.95878082 -18.2249848 56.40812566 -18.625 61.875 C-18.69976562 62.84179688 -18.77453125 63.80859375 -18.8515625 64.8046875 C-18.92503906 65.89136719 -18.92503906 65.89136719 -19 67 C-19.33 67 -19.66 67 -20 67 C-20.45460456 58.23623441 -20.40908707 50.78831438 -16 43 C-15.34 42.34 -14.68 41.68 -14 41 C-13.83318891 37.91652174 -13.83318891 37.91652174 -14 35 C-14.45375 35.495 -14.9075 35.99 -15.375 36.5 C-17 38 -17 38 -19 38 C-19.12375 38.763125 -19.2475 39.52625 -19.375 40.3125 C-20 43 -20 43 -22 46 C-22.39013716 47.9896995 -22.73202649 49.99019869 -23 52 C-23.33 52 -23.66 52 -24 52 C-24.53602941 36.93161765 -24.53602941 36.93161765 -21.66796875 29.80859375 C-20.81239186 27.49203175 -20.76346508 25.44419417 -21 23 C-20.01 22.67 -19.02 22.34 -18 22 C-18 20.68 -18 19.36 -18 18 C-17.01 18 -16.02 18 -15 18 C-14.67 18.99 -14.34 19.98 -14 21 C-10.68147256 13.24029291 -10.68147256 13.24029291 -9 5 C-7.68 5.33 -6.36 5.66 -5 6 C-5 6.66 -5 7.32 -5 8 C-1.75267068 6.37633534 -1.29844864 3.24612161 0 0 Z " fill="#F37D06" transform="translate(109,232)"/>
<path d="M0 0 C1.00869141 -0.00257813 2.01738281 -0.00515625 3.05664062 -0.0078125 C4.11431641 -0.00007812 5.17199219 0.00765625 6.26171875 0.015625 C7.83083008 0.00402344 7.83083008 0.00402344 9.43164062 -0.0078125 C10.44419922 -0.00523437 11.45675781 -0.00265625 12.5 0 C13.42466064 0.00225586 14.34932129 0.00451172 15.30200195 0.00683594 C17.94921875 0.265625 17.94921875 0.265625 22.94921875 2.265625 C23.27921875 23.385625 23.60921875 44.505625 23.94921875 66.265625 C26.25921875 63.625625 28.56921875 60.985625 30.94921875 58.265625 C31.44421875 60.245625 31.44421875 60.245625 31.94921875 62.265625 C30.296875 64.84375 30.296875 64.84375 28.01171875 67.515625 C27.26019531 68.40765625 26.50867188 69.2996875 25.734375 70.21875 C25.14527344 70.89421875 24.55617188 71.5696875 23.94921875 72.265625 C22.29921875 71.935625 20.64921875 71.605625 18.94921875 71.265625 C17.67385336 64.42101696 17.82299387 57.61924119 17.8515625 50.67578125 C17.85297745 49.37611923 17.8543924 48.07645721 17.85585022 46.7374115 C17.85964541 43.30319247 17.86944967 39.86901658 17.8805542 36.43481445 C17.8908332 32.92204369 17.89536167 29.40926588 17.90039062 25.89648438 C17.91107499 19.01951188 17.92864708 12.14257496 17.94921875 5.265625 C10.68921875 5.265625 3.42921875 5.265625 -4.05078125 5.265625 C-4.38078125 4.275625 -4.71078125 3.285625 -5.05078125 2.265625 C-5.05078125 44.505625 -5.05078125 86.745625 -5.05078125 130.265625 C3.85921875 130.265625 12.76921875 130.265625 21.94921875 130.265625 C21.94921875 130.595625 21.94921875 130.925625 21.94921875 131.265625 C12.70921875 131.265625 3.46921875 131.265625 -6.05078125 131.265625 C-7.30824638 128.75069474 -7.17943203 127.03262989 -7.18449402 124.21716309 C-7.188759 123.14870651 -7.19302399 122.08024994 -7.19741821 120.97941589 C-7.19696503 119.80220474 -7.19651184 118.62499359 -7.19604492 117.41210938 C-7.19940353 116.17632645 -7.20276215 114.94054352 -7.20622253 113.66731262 C-7.21411009 110.2727582 -7.21740096 106.87826492 -7.21803832 103.48370552 C-7.21898664 100.65300208 -7.22266396 97.82230455 -7.22621042 94.99160337 C-7.23435776 88.31585104 -7.23679435 81.6401122 -7.23608398 74.96435547 C-7.23548275 68.06948498 -7.24604296 61.17469261 -7.26182765 54.2798419 C-7.27488486 48.36643971 -7.28026867 42.45306313 -7.27962857 36.53964663 C-7.2793731 33.00501543 -7.28225163 29.47045367 -7.29280663 25.93583679 C-7.30424766 21.99690672 -7.29975197 18.05808465 -7.29370117 14.11914062 C-7.29932068 12.94192947 -7.30494019 11.76471832 -7.31072998 10.55183411 C-7.30653549 9.48337753 -7.302341 8.41492096 -7.29801941 7.31408691 C-7.29883656 5.91593624 -7.29883656 5.91593624 -7.29967022 4.4895401 C-6.77995688 -0.15429102 -3.9701468 0.00972139 0 0 Z " fill="#A0551A" transform="translate(346.05078125,191.734375)"/>
<path d="M0 0 C1.16781006 0.00523682 2.33562012 0.01047363 3.53881836 0.01586914 C4.79887695 0.0190918 6.05893555 0.02231445 7.35717773 0.02563477 C8.6976732 0.03399136 10.03816799 0.04245632 11.37866211 0.05102539 C12.72306153 0.05603879 14.06746271 0.06060197 15.41186523 0.06469727 C18.71334151 0.07653051 22.01473014 0.09301568 25.31616211 0.11352539 C25.33928401 12.09156098 25.35707641 24.0695913 25.36797428 36.04764462 C25.37320345 41.60891951 25.38030169 47.17017918 25.39160156 52.73144531 C25.40242926 58.09359958 25.40843869 63.45573917 25.41103935 68.81790352 C25.41289382 70.86852818 25.41651483 72.91915199 25.42189217 74.96977043 C25.42910104 77.83142742 25.43015312 80.69302296 25.4296875 83.5546875 C25.43328278 84.41136017 25.43687805 85.26803284 25.44058228 86.15066528 C25.43021427 91.99947323 25.43021427 91.99947323 24.31616211 93.11352539 C22.55930537 93.21301616 20.79848878 93.24432799 19.03881836 93.24633789 C17.96825195 93.24762695 16.89768555 93.24891602 15.79467773 93.25024414 C14.66739258 93.24637695 13.54010742 93.24250977 12.37866211 93.23852539 C11.25524414 93.24239258 10.13182617 93.24625977 8.97436523 93.25024414 C7.90250977 93.24895508 6.8306543 93.24766602 5.72631836 93.24633789 C4.73768799 93.24520996 3.74905762 93.24408203 2.73046875 93.24291992 C0.31616211 93.11352539 0.31616211 93.11352539 -1.68383789 92.11352539 C-1.68383789 91.12352539 -1.68383789 90.13352539 -1.68383789 89.11352539 C-2.30258789 89.54665039 -2.92133789 89.97977539 -3.55883789 90.42602539 C-12.56819033 95.29107571 -22.32968969 96.92206703 -32.26586914 94.09399414 C-41.20502536 90.83174419 -41.20502536 90.83174419 -43.68383789 87.11352539 C-41.70383789 87.44352539 -39.72383789 87.77352539 -37.68383789 88.11352539 C-37.68383789 88.77352539 -37.68383789 89.43352539 -37.68383789 90.11352539 C-36.94133789 90.07227539 -36.19883789 90.03102539 -35.43383789 89.98852539 C-32.68383789 90.11352539 -32.68383789 90.11352539 -30.87524414 91.10571289 C-24.49606209 94.03945437 -16.08013153 92.37887939 -9.68383789 90.11352539 C-8.35253675 89.77216612 -7.02025641 89.43426584 -5.68383789 89.11352539 C-5.68383789 88.45352539 -5.68383789 87.79352539 -5.68383789 87.11352539 C-3.30883789 86.92602539 -3.30883789 86.92602539 -0.68383789 87.11352539 C0.30616211 88.59852539 0.30616211 88.59852539 1.31616211 90.11352539 C3.54115125 90.52922547 3.54115125 90.52922547 6.10522461 90.40649414 C7.04624023 90.39682617 7.98725586 90.3871582 8.95678711 90.37719727 C9.94163086 90.35206055 10.92647461 90.32692383 11.94116211 90.30102539 C12.93374023 90.28749023 13.92631836 90.27395508 14.94897461 90.26000977 C17.40526962 90.22458243 19.86035676 90.1726477 22.31616211 90.11352539 C23.11394474 79.00378514 23.50847973 67.93729017 23.63256836 56.80102539 C23.65321518 55.20963091 23.67421317 53.61824096 23.69554138 52.02685547 C23.74996639 47.89741753 23.7997163 43.76793694 23.84838867 39.63842773 C23.89919612 35.40092302 23.9545685 31.16347801 24.00952148 26.92602539 C24.11612518 18.65524182 24.21735127 10.38440574 24.31616211 2.11352539 C15.73616211 2.11352539 7.15616211 2.11352539 -1.68383789 2.11352539 C-1.63743164 6.39836914 -1.59102539 10.68321289 -1.54321289 15.09790039 C-1.51748508 18.51662733 -1.49579539 21.93532687 -1.47683716 25.35409546 C-1.45572273 28.96192888 -1.42751296 32.56938584 -1.38208008 36.17700195 C-1.33858664 39.65240452 -1.31469368 43.12744227 -1.30432892 46.60309601 C-1.29335174 48.57298323 -1.26213089 50.54272386 -1.23065186 52.51239014 C-1.23034973 53.71333313 -1.23004761 54.91427612 -1.22973633 56.15161133 C-1.22085388 57.20862244 -1.21197144 58.26563354 -1.20281982 59.35467529 C-1.79817384 62.7692923 -3.05492926 63.94361576 -5.68383789 66.11352539 C-6.67383789 65.61852539 -6.67383789 65.61852539 -7.68383789 65.11352539 C-6.69383789 64.45352539 -5.70383789 63.79352539 -4.68383789 63.11352539 C-4.21230387 60.41586129 -4.21230387 60.41586129 -4.26733398 57.2109375 C-4.25076752 55.97302963 -4.23420105 54.73512177 -4.21713257 53.45970154 C-4.21367946 52.10342449 -4.21039783 50.74714699 -4.20727539 49.39086914 C-4.19297202 48.00605236 -4.17721621 46.62124988 -4.1600647 45.23646545 C-4.11815332 41.5888859 -4.09319422 37.94139494 -4.0725708 34.29364014 C-4.03679199 28.45088126 -3.97590639 22.60834089 -3.91408157 16.76581001 C-3.89493115 14.72000817 -3.88324411 12.67426473 -3.87265015 10.62840271 C-3.862388 9.393647 -3.85212585 8.1588913 -3.84155273 6.88671875 C-3.83505707 5.79354843 -3.8285614 4.70037811 -3.8218689 3.57408142 C-3.62844923 0.12616104 -3.47265018 0.14689187 0 0 Z " fill="#9E5C24" transform="translate(228.683837890625,229.886474609375)"/>
<path d="M0 0 C3.81248426 -0.02887236 7.6249407 -0.04675492 11.4375 -0.0625 C12.52611328 -0.07087891 13.61472656 -0.07925781 14.73632812 -0.08789062 C15.77080078 -0.09111328 16.80527344 -0.09433594 17.87109375 -0.09765625 C18.82943115 -0.10289307 19.78776855 -0.10812988 20.77514648 -0.11352539 C23 0 23 0 24 1 C24.09600136 2.606892 24.12187889 4.21801769 24.12025452 5.82777405 C24.12162918 6.87250381 24.12300385 7.91723358 24.12442017 8.99362183 C24.11902725 10.72746628 24.11902725 10.72746628 24.11352539 12.49633789 C24.11367142 13.70592667 24.11381744 14.91551544 24.1139679 16.16175842 C24.11338893 19.48806351 24.10835973 22.81430719 24.10139394 26.1406014 C24.09515978 29.61329929 24.09455655 33.08599793 24.09336853 36.55870056 C24.0902554 43.13896193 24.08204225 49.71920676 24.07201904 56.29946083 C24.06085734 63.78906112 24.05534731 71.27866218 24.05032361 78.7682687 C24.03985962 94.17885539 24.02226053 109.58942557 24 125 C23.67 125 23.34 125 23 125 C21.58194932 112.18729759 21.87363472 99.31967605 21.90234375 86.44921875 C21.90421168 83.9791517 21.90563381 81.50908428 21.90663147 79.03901672 C21.91042709 72.5766597 21.92023176 66.11432559 21.93133545 59.65197754 C21.94161349 53.04207672 21.94614272 46.43217215 21.95117188 39.82226562 C21.961857 26.88149879 21.97942948 13.9407549 22 1 C12.1 1.495 12.1 1.495 2 2 C0.29249613 5.41500774 0.85593471 9.32597304 0.8581543 13.08374023 C0.85467987 14.02530975 0.85120544 14.96687927 0.84762573 15.9369812 C0.84026236 17.98590438 0.83492008 20.03483557 0.83133507 22.08376884 C0.82418587 25.3234955 0.80853189 28.56306926 0.78999329 31.80274963 C0.73744372 41.01536998 0.68951481 50.22790675 0.67407227 59.44067383 C0.66401403 65.07115784 0.63474558 70.701258 0.59275246 76.33159065 C0.58040766 78.48100957 0.57532751 80.63048262 0.57755089 82.77993584 C0.57989298 85.78266529 0.55782117 88.78428527 0.5300293 91.78686523 C0.53663071 92.67995895 0.54323212 93.57305267 0.55003357 94.49320984 C0.45866326 100.48364802 0.45866326 100.48364802 -1.86125183 103.09535217 C-4.61215831 104.25893076 -6.18821185 103.85915749 -9 103 C-6.35122304 101.58101234 -3.91985181 100.68088981 -1 100 C-1.00222061 98.77668976 -1.00444122 97.55337952 -1.00672913 96.29299927 C-1.02696778 84.78559768 -1.04197565 73.2781997 -1.05181217 61.77078438 C-1.05703915 55.85418076 -1.06413347 49.93759147 -1.07543945 44.02099609 C-1.08627487 38.31519301 -1.09227823 32.60940373 -1.09487724 26.90359116 C-1.09673031 24.72261208 -1.10034866 22.54163378 -1.10573006 20.36066055 C-1.11294914 17.31480503 -1.11399057 14.26900718 -1.11352539 11.22314453 C-1.11712067 10.31396271 -1.12071594 9.40478088 -1.12442017 8.4680481 C-1.11405216 2.22810432 -1.11405216 2.22810432 0 0 Z " fill="#ED8015" transform="translate(137,195)"/>
<path d="M0 0 C0.33 0 0.66 0 1 0 C0.97643433 0.93066284 0.97643433 0.93066284 0.95239258 1.88012695 C0.89003786 4.69082528 0.85100852 7.50137812 0.8125 10.3125 C0.78736328 11.28896484 0.76222656 12.26542969 0.73632812 13.27148438 C0.72666016 14.20927734 0.71699219 15.14707031 0.70703125 16.11328125 C0.6913208 16.97735596 0.67561035 17.84143066 0.65942383 18.73168945 C1.07586063 21.5052481 2.04495305 22.09391781 4 24 C4 25.32 4 26.64 4 28 C4.66 28 5.32 28 6 28 C6 28.66 6 29.32 6 30 C6.99 30 7.98 30 9 30 C9 30.99 9 31.98 9 33 C9.66 33 10.32 33 11 33 C11.33 33.66 11.66 34.32 12 35 C13.86001353 35.31755209 13.86001353 35.31755209 16.0625 35.375 C20.36530647 35.74945309 23.27148616 36.9376971 27.0078125 39.0234375 C29.14586177 40.07150087 31.1121581 40.57426095 33.4375 41.0625 C34.613125 41.371875 35.78875 41.68125 37 42 C38.04976964 45.14930893 38.10131595 47.38814456 38.0625 50.6875 C38.05347656 51.68136719 38.04445313 52.67523438 38.03515625 53.69921875 C38.02355469 54.45847656 38.01195312 55.21773438 38 56 C34.20960634 58.12999997 31.34263862 58.16702456 27 58 C27 57.34 27 56.68 27 56 C25.02 55.67 23.04 55.34 21 55 C24.28519475 53.90493508 26.73663415 53.90039392 30.1875 53.9375 C31.81751953 53.95103516 31.81751953 53.95103516 33.48046875 53.96484375 C34.31191406 53.97644531 35.14335937 53.98804688 36 54 C36 51.69 36 49.38 36 47 C31.01823936 44.91190033 26.07941838 42.96273249 20.875 41.5 C14.84840682 39.75645732 8.68737716 37.29676239 4 33 C4 32.34 4 31.68 4 31 C3.01 30.67 2.02 30.34 1 30 C-3.99989855 22.85728779 -3.81925048 15.49383831 -3 7 C-2.26598735 4.29044473 -1.42438275 2.43332054 0 0 Z " fill="#CC7321" transform="translate(267,244)"/>
<path d="M0 0 C2.64751415 2.64751415 2.71520084 4.29761096 3 8 C2.28533995 11.31342387 1.58315596 13.35204894 -0.6875 15.875 C-4.04936462 17.51050171 -6.30903222 17.51803057 -10 17 C-13.58311824 14.42950213 -14.78702567 12.74541015 -16 8.5 C-16 4.53767228 -15.56387464 2.99118708 -13 0 C-8.65348778 -2.85627946 -4.59647312 -1.82641316 0 0 Z " fill="#CA7A26" transform="translate(209,168)"/>
<path d="M0 0 C7.30627306 3.4095941 7.30627306 3.4095941 9 6 C8.62245749 10.44575573 6.78466824 13.06011637 4.125 16.5625 C3.42632812 17.49191406 2.72765625 18.42132813 2.0078125 19.37890625 C1.34523438 20.24386719 0.68265625 21.10882813 0 22 C-1.00106748 23.33253205 -2.0015078 24.66553715 -3 26 C-7.48040441 25.48795378 -9.5455625 23.78040092 -13 21 C-18.25103701 18.55765721 -23.33248844 18.79838892 -29 19 C-28.68036511 21.97115156 -28.68036511 21.97115156 -27 25 C-24.10596396 26.44437265 -21.14164535 27.26307084 -18 28 C-18 28.33 -18 28.66 -18 29 C-22.62 29 -27.24 29 -32 29 C-33.125 20.375 -33.125 20.375 -32 17 C-29.02076997 16.97272322 -26.04179621 16.95302872 -23.0625 16.9375 C-22.23169922 16.92912109 -21.40089844 16.92074219 -20.54492188 16.91210938 C-15.54673441 16.89266117 -10.79398483 17.18800562 -5.85913086 18.00927734 C-3.65988552 18.20757495 -3.65988552 18.20757495 -1.5 15.6875 C-0.63695576 14.1412124 0.20805926 12.58388148 1 11 C1.66 11 2.32 11 3 11 C4.0326802 8.21176345 4.04509293 7.1322726 3.0625 4.25 C2.711875 3.5075 2.36125 2.765 2 2 C1.34 2 0.68 2 0 2 C0 1.34 0 0.68 0 0 Z " fill="#EA8016" transform="translate(322,234)"/>
<path d="M0 0 C0.33 0 0.66 0 1 0 C1 33.66 1 67.32 1 102 C-6.93564356 105.4009901 -6.93564356 105.4009901 -11.3125 105.3125 C-12.57513672 105.30669922 -12.57513672 105.30669922 -13.86328125 105.30078125 C-16 105 -16 105 -18 103 C-20.06874034 102.3574765 -20.06874034 102.3574765 -22 102 C-22.103125 101.360625 -22.20625 100.72125 -22.3125 100.0625 C-22.539375 99.381875 -22.76625 98.70125 -23 98 C-23.99 97.67 -24.98 97.34 -26 97 C-26.05816623 93.58340509 -26.09365195 90.16693795 -26.125 86.75 C-26.15013672 85.29787109 -26.15013672 85.29787109 -26.17578125 83.81640625 C-26.18222656 82.88183594 -26.18867187 81.94726562 -26.1953125 80.984375 C-26.20578613 80.12553711 -26.21625977 79.26669922 -26.22705078 78.38183594 C-25.98293323 75.82096404 -25.28990512 74.20488971 -24 72 C-24.03480469 73.2065625 -24.06960937 74.413125 -24.10546875 75.65625 C-24.13362984 77.27081928 -24.16092749 78.88540379 -24.1875 80.5 C-24.21263672 81.29148437 -24.23777344 82.08296875 -24.26367188 82.8984375 C-24.34770462 89.73310107 -23.4516357 95.31588161 -18.734375 100.48046875 C-15.34268774 102.36527782 -13.10817774 102.43906918 -9.25 102.3125 C-7.52523437 102.27576172 -7.52523437 102.27576172 -5.765625 102.23828125 C-3.09230727 102.30690681 -3.09230727 102.30690681 -2 101 C-1.88145585 99.0945174 -1.83258014 97.1846741 -1.81054688 95.27563477 C-1.7937941 94.04302917 -1.77704132 92.81042358 -1.75978088 91.54046631 C-1.74606623 90.17411333 -1.73239039 88.80775997 -1.71875 87.44140625 C-1.70096863 86.03150817 -1.68268481 84.62161636 -1.66392517 83.21173096 C-1.62478728 80.21553009 -1.58837747 77.21931415 -1.5541687 74.22305298 C-1.46591697 66.52875598 -1.35991947 58.83469431 -1.25390625 51.140625 C-1.24366991 50.3873675 -1.23343357 49.63410999 -1.22288704 48.8580265 C-1.0585154 36.83982949 -0.82333093 24.82582474 -0.4375 12.8125 C-0.40414551 11.77067062 -0.40414551 11.77067062 -0.37011719 10.70779419 C-0.25427503 7.1382457 -0.1316833 3.56899855 0 0 Z " fill="#692D0D" transform="translate(134,193)"/>
<path d="M0 0 C8.88110671 1.09596636 16.89353947 4.12363772 22.9375 11 C28.18249278 18.62908041 30.17791317 25.8655941 28.65625 35.08203125 C26.75854084 43.35288032 22.6917074 48.85607475 17 55 C16.34 54.67 15.68 54.34 15 54 C15.639375 53.236875 16.27875 52.47375 16.9375 51.6875 C19.14232781 49.11753287 19.14232781 49.11753287 20 46 C20.66 46 21.32 46 22 46 C22 45.34 22 44.68 22 44 C22.66 44 23.32 44 24 44 C24.05455703 41.02058002 24.09393851 38.04218469 24.125 35.0625 C24.14175781 34.23169922 24.15851563 33.40089844 24.17578125 32.54492188 C24.21868172 27.03221121 24.18407838 21.1517518 22 16 C21.01 15.67 20.02 15.34 19 15 C19 14.34 19 13.68 19 13 C18.01 12.67 17.02 12.34 16 12 C15.34 11.01 14.68 10.02 14 9 C12.04614933 8.21011855 12.04614933 8.21011855 9.875 7.8125 C7.956875 7.4103125 7.956875 7.4103125 6 7 C5.88785156 6.36578125 5.77570313 5.7315625 5.66015625 5.078125 C5.44230469 4.39234375 5.22445313 3.7065625 5 3 C2.50965614 1.70339566 2.50965614 1.70339566 0 1 C0 0.67 0 0.34 0 0 Z " fill="#B96D20" transform="translate(304,263)"/>
<path d="M0 0 C3.57293805 3.28611963 6.13248281 6.89185862 8.75 10.9375 C9.16121094 11.54529297 9.57242188 12.15308594 9.99609375 12.77929688 C12.28764415 16.30797997 13.54686758 18.76177624 13 23 C3.3659138 24.74815296 -12.4332756 27.27827281 -21.04003906 21.67089844 C-24.52732299 17.99169395 -26.24864981 13.69564906 -28 9 C-28.98271425 6.9914501 -29.97685572 4.98825948 -31 3 C-30.01 3.33 -29.02 3.66 -28 4 C-28 4.66 -28 5.32 -28 6 C-27.01 6 -26.02 6 -25 6 C-24.67 7.65 -24.34 9.3 -24 11 C-23.34 11 -22.68 11 -22 11 C-21.731875 11.598125 -21.46375 12.19625 -21.1875 12.8125 C-19.14326221 16.5782012 -17.58166472 17.8163164 -13.4375 19.125 C-5.76411392 20.65967722 2.20152761 20.68032152 10 21 C10 20.01 10 19.02 10 18 C9.01 17.67 8.02 17.34 7 17 C5.29466783 13.67908998 5 11.81507216 5 8 C3.68 8 2.36 8 1 8 C0.67 5.36 0.34 2.72 0 0 Z " fill="#BE712B" transform="translate(412,300)"/>
<path d="M0 0 C0.99 0.33 1.98 0.66 3 1 C5.04102015 5.50105768 5.21732794 9.4816192 5.125 14.375 C5.10695313 15.62023437 5.08890625 16.86546875 5.0703125 18.1484375 C5.04710938 19.08945313 5.02390625 20.03046875 5 21 C4.67 21 4.34 21 4 21 C3.505 16.05 3.505 16.05 3 11 C2.896875 12.2375 2.79375 13.475 2.6875 14.75 C2.3514803 18.78223642 1.70573211 19.39235718 -1 23 C-0.67 19.7 -0.34 16.4 0 13 C-1.65 12.67 -3.3 12.34 -5 12 C-5.14179687 12.57492188 -5.28359375 13.14984375 -5.4296875 13.7421875 C-5.61789063 14.48726562 -5.80609375 15.23234375 -6 16 C-6.16757813 16.68320313 -6.33515625 17.36640625 -6.5078125 18.0703125 C-7.16152205 20.24658608 -7.80152991 22.06368177 -9 24 C-12.6875 25.5 -12.6875 25.5 -16 26 C-16 23.36 -16 20.72 -16 18 C-15.34 18.99 -14.68 19.98 -14 21 C-10.68147256 13.24029291 -10.68147256 13.24029291 -9 5 C-7.68 5.33 -6.36 5.66 -5 6 C-5 6.66 -5 7.32 -5 8 C-1.75267068 6.37633534 -1.29844864 3.24612161 0 0 Z " fill="#DF9B30" transform="translate(109,232)"/>
<path d="M0 0 C0.99 0.33 1.98 0.66 3 1 C2.34 1 1.68 1 1 1 C1 2.32 1 3.64 1 5 C0.01 5.495 0.01 5.495 -1 6 C-1.37238718 8.32741989 -1.69836866 10.66235715 -2 13 C-2.33386719 14.09183594 -2.66773437 15.18367188 -3.01171875 16.30859375 C-6.23420374 28.34514837 -4.43849362 45.24286084 1.5 56.3125 C4.01449267 60.41466913 6.58823799 63.02231358 11 65 C11 65.66 11 66.32 11 67 C12.65 67.66 14.3 68.32 16 69 C14.02 69.99 14.02 69.99 12 71 C-0.50073839 61.13266589 -6.11348816 48.69025705 -8 33 C-8.69457176 26.66466362 -7.72313428 20.9552585 -6.25 14.8125 C-6.09321777 14.14710205 -5.93643555 13.4817041 -5.77490234 12.79614258 C-4.53448905 8.01228595 -2.59570434 4.20438665 0 0 Z " fill="#A9601E" transform="translate(90,249)"/>
<path d="M0 0 C8.58 0 17.16 0 26 0 C26.02275025 9.11130177 26.04102906 18.22258413 26.05181217 27.33390808 C26.05699205 31.56636627 26.06399874 35.79880373 26.07543945 40.03125 C26.08644487 44.12912189 26.0923135 48.22697407 26.09487724 52.32485962 C26.09670015 53.87464711 26.10025818 55.42443374 26.10573006 56.97421265 C26.1408736 67.35735313 25.77113553 77.64489196 25 88 C24.67 88 24.34 88 24 88 C23.67 59.95 23.34 31.9 23 3 C20.65061112 1.82530556 19.04926795 1.79965111 16.4296875 1.68359375 C15.53378906 1.64169922 14.63789063 1.59980469 13.71484375 1.55664062 C12.77769531 1.51732422 11.84054688 1.47800781 10.875 1.4375 C9.93011719 1.39431641 8.98523438 1.35113281 8.01171875 1.30664062 C5.67462908 1.20040928 3.3374317 1.09836824 1 1 C1 2.65 1 4.3 1 6 C0.67 6 0.34 6 0 6 C0 4.02 0 2.04 0 0 Z " fill="#E38327" transform="translate(227,232)"/>
<path d="M0 0 C0.33 0 0.66 0 1 0 C3.08640454 8.86304649 2.76912574 18.34648207 0 27 C-0.66 27 -1.32 27 -2 27 C-2.33 34.92 -2.66 42.84 -3 51 C-3.66 49.68 -4.32 48.36 -5 47 C-5.33 46.67 -5.66 46.34 -6 46 C-6.07319621 43.30345146 -6.09242537 40.63308542 -6.0625 37.9375 C-6.05798828 37.17888672 -6.05347656 36.42027344 -6.04882812 35.63867188 C-6.0370068 33.75908129 -6.01907078 31.87953101 -6 30 C-6.66 29.67 -7.32 29.34 -8 29 C-7.0409375 27.9790625 -7.0409375 27.9790625 -6.0625 26.9375 C-3.64969997 23.50108784 -3.44985018 21.12362667 -3 17 C-2.67515625 16.40832031 -2.3503125 15.81664062 -2.015625 15.20703125 C-0.64040833 12.21857965 -0.57134111 9.52235179 -0.375 6.25 C-0.30023438 5.07953125 -0.22546875 3.9090625 -0.1484375 2.703125 C-0.09945312 1.81109375 -0.05046875 0.9190625 0 0 Z " fill="#E58620" transform="translate(111,238)"/>
<path d="M0 0 C0.66 0 1.32 0 2 0 C3.9451 2.91765 4.45276317 4.62537285 5 8 C6.32 8.33 7.64 8.66 9 9 C9 10.65 9 12.3 9 14 C12.60992379 13.34414811 12.60992379 13.34414811 16 12 C16.33 14.31 16.66 16.62 17 19 C18.2065625 18.9690625 18.2065625 18.9690625 19.4375 18.9375 C22 19 22 19 23 20 C31.88654253 20.69426114 39.61557677 21.29665305 47.1953125 16.046875 C49 15 49 15 52.5625 15.1875 C53.366875 15.455625 54.17125 15.72375 55 16 C55.495 17.485 55.495 17.485 56 19 C58.64 19.33 61.28 19.66 64 20 C64 20.33 64 20.66 64 21 C62.54257537 21.08096803 61.08387193 21.13917774 59.625 21.1875 C58.81289062 21.22230469 58.00078125 21.25710938 57.1640625 21.29296875 C56.44992188 21.19628906 55.73578125 21.09960938 55 21 C54.34 20.01 53.68 19.02 53 18 C50.43717258 17.27034634 50.43717258 17.27034634 48 17 C48 17.66 48 18.32 48 19 C39.94839456 23.30667268 31.19638096 24.49687855 22.21875 22.328125 C20.10859964 21.62028975 18.04847168 20.86904859 16 20 C16 19.34 16 18.68 16 18 C14.453125 17.9690625 14.453125 17.9690625 12.875 17.9375 C7.71273866 16.6885658 5.83499787 14.34699674 3 10 C1.19581262 6.67649693 0 3.84817273 0 0 Z " fill="#EC7D16" transform="translate(175,300)"/>
<path d="M0 0 C2.12560437 0.30836232 4.25047065 0.62181614 6.375 0.9375 C8.15003906 1.19853516 8.15003906 1.19853516 9.9609375 1.46484375 C13 2 13 2 15 3 C15 3.66 15 4.32 15 5 C24.93039609 5.2117857 34.22064638 4.97091588 44 3 C46.33039427 2.63811284 48.66324163 2.31864887 51 2 C46.37472662 7.52815209 38.08211946 8.67437859 31.265625 9.39453125 C19.86008276 9.71398108 9.59256371 7.24632055 0 1 C0 0.67 0 0.34 0 0 Z " fill="#D67B26" transform="translate(268,316)"/>
<path d="M0 0 C-3.35242273 1.1426994 -5.04936466 0.83055778 -8.3125 -0.4375 C-16.48602156 -3.08902931 -26.07130742 -3.45019899 -34 0 C-35.8871875 0.12375 -35.8871875 0.12375 -37.8125 0.25 C-42.86398174 0.77719449 -46.46999961 3.46171322 -50 7 C-51.2200402 9.09886614 -51.2200402 9.09886614 -52 11 C-52.66 11 -53.32 11 -54 11 C-52.47464359 4.70790479 -47.19316081 1.20606338 -42.1171875 -2.30078125 C-30.41491473 -9.03326036 -11.14937551 -6.96835969 0 0 Z " fill="#A75D1F" transform="translate(322,233)"/>
<path d="M0 0 C0.99 0.33 1.98 0.66 3 1 C2.25556641 1.81791016 2.25556641 1.81791016 1.49609375 2.65234375 C-3.2540276 7.92524885 -7.71862182 13.34055321 -12 19 C-11.59007812 19.74765625 -11.18015625 20.4953125 -10.7578125 21.265625 C-10.21898437 22.25046875 -9.68015625 23.2353125 -9.125 24.25 C-8.59132813 25.22453125 -8.05765625 26.1990625 -7.5078125 27.203125 C-6.29580534 29.45130408 -5.12452433 31.7072805 -4 34 C-4.66 34 -5.32 34 -6 34 C-6 33.34 -6 32.68 -6 32 C-6.61875 31.9175 -7.2375 31.835 -7.875 31.75 C-10 31 -10 31 -11 29.1875 C-11.33 28.465625 -11.66 27.74375 -12 27 C-12.680625 26.38125 -13.36125 25.7625 -14.0625 25.125 C-16.5903111 22.35256202 -17.07643497 20.74531342 -17 17 C-14.6875 14.375 -14.6875 14.375 -12 12 C-11.31822584 10.67432801 -10.64808564 9.34246312 -10 8 C-7 6 -7 6 -4 6 C-4 5.34 -4 4.68 -4 4 C-3.34 4 -2.68 4 -2 4 C-2 3.01 -2 2.02 -2 1 C-1.34 0.67 -0.68 0.34 0 0 Z " fill="#EA8018" transform="translate(407,252)"/>
<path d="M0 0 C0.6819191 -0.00095673 1.3638382 -0.00191345 2.06642151 -0.00289917 C3.51148572 -0.00358089 4.95655297 -0.00172719 6.40161133 0.00244141 C8.61611818 0.00778166 10.83042144 0.00250045 13.04492188 -0.00390625 C14.44661503 -0.00324531 15.84830806 -0.00196381 17.25 0 C18.53189209 0.00112793 19.81378418 0.00225586 21.13452148 0.00341797 C24.19140625 0.1328125 24.19140625 0.1328125 26.19140625 1.1328125 C25.59825021 4.16684287 24.71746896 6.07111384 22.79296875 8.48046875 C22.07367188 9.38829102 22.07367188 9.38829102 21.33984375 10.31445312 C20.83710938 10.93513672 20.334375 11.55582031 19.81640625 12.1953125 C19.07390625 13.13213867 19.07390625 13.13213867 18.31640625 14.08789062 C16.05650527 16.91880936 13.78886306 19.60240831 11.19140625 22.1328125 C11.76774764 17.37799604 13.74209146 14.16233038 16.19140625 10.1328125 C16.85140625 10.1328125 17.51140625 10.1328125 18.19140625 10.1328125 C18.52140625 8.8128125 18.85140625 7.4928125 19.19140625 6.1328125 C20.51140625 5.8028125 21.83140625 5.4728125 23.19140625 5.1328125 C23.19140625 4.1428125 23.19140625 3.1528125 23.19140625 2.1328125 C13.29140625 2.1328125 3.39140625 2.1328125 -6.80859375 2.1328125 C-7.13859375 3.1228125 -7.46859375 4.1128125 -7.80859375 5.1328125 C-8.46859375 5.1328125 -9.12859375 5.1328125 -9.80859375 5.1328125 C-7.17193419 -0.31628393 -6.18356786 0.00544568 0 0 Z " fill="#AB6728" transform="translate(398.80859375,229.8671875)"/>
<path d="M0 0 C2.97 0 5.94 0 9 0 C10.83691257 3.78187881 11.15837626 5.94568308 10 10 C8.56496445 10.36402369 7.12683494 10.71586591 5.6875 11.0625 C4.88699219 11.25972656 4.08648437 11.45695313 3.26171875 11.66015625 C1 12 1 12 -2 11 C-2.17700355 6.39790775 -2.10814567 4.21629134 0 0 Z " fill="#EE8619" transform="translate(197,168)"/>
<path d="M0 0 C2.72977064 -0.08126109 5.4571017 -0.14061663 8.1875 -0.1875 C9.34088867 -0.22520508 9.34088867 -0.22520508 10.51757812 -0.26367188 C15.28292438 -0.32502826 18.01009503 0.13718683 22 3 C22.66 3 23.32 3 24 3 C24.268125 3.61875 24.53625 4.2375 24.8125 4.875 C25.95556848 7.2995233 25.95556848 7.2995233 29 9 C24.51959559 8.48795378 22.4544375 6.78040092 19 4 C13.74896299 1.55765721 8.66751156 1.79838892 3 2 C3.31963489 4.97115156 3.31963489 4.97115156 5 8 C7.89403604 9.44437265 10.85835465 10.26307084 14 11 C14 11.33 14 11.66 14 12 C9.38 12 4.76 12 0 12 C-1.125 3.375 -1.125 3.375 0 0 Z " fill="#EF7F13" transform="translate(290,251)"/>
<path d="M0 0 C1.32 0 2.64 0 4 0 C3.17867579 6.98125575 -1.3341828 11.83079156 -6.18359375 16.5859375 C-8.67708878 18.52710997 -10.87906763 18.9238797 -14 19 C-14.66 16.36 -15.32 13.72 -16 11 C-15.01 10.67 -14.02 10.34 -13 10 C-13 8.68 -13 7.36 -13 6 C-12.34 6 -11.68 6 -11 6 C-11 8.64 -11 11.28 -11 14 C-10.01 13.34 -9.02 12.68 -8 12 C-6.68 12 -5.36 12 -4 12 C-3.79503906 11.38511719 -3.59007813 10.77023438 -3.37890625 10.13671875 C-2.25260417 6.7578125 -1.12630208 3.37890625 0 0 Z " fill="#F9A52C" transform="translate(104,244)"/>
<path d="M0 0 C0.33 0 0.66 0 1 0 C1.07608273 7.45639508 1.12861377 14.91269 1.16479492 22.36938477 C1.17987863 24.90588115 1.20034831 27.44235148 1.22631836 29.97875977 C1.26271881 33.62522822 1.27973082 37.27135173 1.29296875 40.91796875 C1.30845261 42.05147263 1.32393646 43.1849765 1.33988953 44.35282898 C1.34011612 45.41355118 1.34034271 46.47427338 1.34057617 47.56713867 C1.34723801 48.49757492 1.35389984 49.42801117 1.36076355 50.38664246 C0.92524789 53.54150145 -0.15171511 55.42941971 -2 58 C-5.31032968 59.50204386 -9.0400262 59.13309249 -12.625 59.125 C-13.77226562 59.12757813 -14.91953125 59.13015625 -16.1015625 59.1328125 C-19 59 -19 59 -21 58 C-21.72693904 56.02111039 -22.39816251 54.02045442 -23 52 C-22.01 52.66 -21.02 53.32 -20 54 C-20 54.66 -20 55.32 -20 56 C-13.65065488 56.20666946 -7.97205763 56.33689212 -2 54 C-0.75660024 51.51320048 -0.84172513 49.78202912 -0.79467773 46.99951172 C-0.77473251 45.95858368 -0.75478729 44.91765564 -0.73423767 43.84518433 C-0.70916893 42.1545134 -0.70916893 42.1545134 -0.68359375 40.4296875 C-0.66281265 39.27832306 -0.64203156 38.12695862 -0.62062073 36.94070435 C-0.55508335 33.2521986 -0.49622072 29.56361997 -0.4375 25.875 C-0.39431877 23.37889862 -0.35070462 20.8828047 -0.30664062 18.38671875 C-0.19939769 12.25789019 -0.09763911 6.12898867 0 0 Z " fill="#EE7F18" transform="translate(227,240)"/>
<path d="M0 0 C1.32 0.33 2.64 0.66 4 1 C3.67 1.99 3.34 2.98 3 4 C2.34 4 1.68 4 1 4 C-2.05235155 7.13047304 -2.40239882 9.57403356 -2.51171875 13.859375 C-2.54483154 14.86452148 -2.57794434 15.86966797 -2.61206055 16.90527344 C-2.64940308 18.80841309 -2.64940308 18.80841309 -2.6875 20.75 C-2.790625 24.7925 -2.89375 28.835 -3 33 C-11.91 33 -20.82 33 -30 33 C-30 32.67 -30 32.34 -30 32 C-17.625 31.505 -17.625 31.505 -5 31 C-5.07887541 23.32663773 -5.07887541 23.32663773 -5.18017578 15.65356445 C-5.1851709 14.691521 -5.19016602 13.72947754 -5.1953125 12.73828125 C-5.20578613 11.75899658 -5.21625977 10.77971191 -5.22705078 9.77075195 C-4.98597685 6.82887228 -4.23055542 4.66762274 -3 2 C-2.01 2 -1.02 2 0 2 C0 1.34 0 0.68 0 0 Z " fill="#DC812D" transform="translate(371,289)"/>
<path d="M0 0 C0.33 0 0.66 0 1 0 C1 11.22 1 22.44 1 34 C-4.81625 34.0309375 -4.81625 34.0309375 -10.75 34.0625 C-11.96655273 34.071604 -13.18310547 34.08070801 -14.43652344 34.09008789 C-15.88333496 34.09383423 -15.88333496 34.09383423 -17.359375 34.09765625 C-18.34389648 34.10289307 -19.32841797 34.10812988 -20.34277344 34.11352539 C-22.74727397 34.01079728 -24.68806989 33.60178006 -27 33 C-28.32 33 -29.64 33 -31 33 C-31 32.01 -31 31.02 -31 30 C-27.04 29.505 -27.04 29.505 -23 29 C-23 29.99 -23 30.98 -23 32 C-15.74 31.67 -8.48 31.34 -1 31 C-0.67 20.77 -0.34 10.54 0 0 Z " fill="#B87334" transform="translate(161,289)"/>
<path d="M0 0 C0.33 0 0.66 0 1 0 C0.97643433 0.93066284 0.97643433 0.93066284 0.95239258 1.88012695 C0.89003786 4.69082528 0.85100852 7.50137812 0.8125 10.3125 C0.78736328 11.28896484 0.76222656 12.26542969 0.73632812 13.27148438 C0.72666016 14.20927734 0.71699219 15.14707031 0.70703125 16.11328125 C0.6913208 16.97735596 0.67561035 17.84143066 0.65942383 18.73168945 C1.07407386 21.49334786 2.03239487 22.12438509 4 24 C3.6875 27.1875 3.6875 27.1875 3 30 C3.66 30 4.32 30 5 30 C5.66 31.32 6.32 32.64 7 34 C6.01 33.67 5.02 33.34 4 33 C4 32.34 4 31.68 4 31 C3.01 30.67 2.02 30.34 1 30 C-3.99989855 22.85728779 -3.81925048 15.49383831 -3 7 C-2.26598735 4.29044473 -1.42438275 2.43332054 0 0 Z " fill="#B7691A" transform="translate(267,244)"/>
<path d="M0 0 C2.64 0.66 5.28 1.32 8 2 C8 2.66 8 3.32 8 4 C7.34 4 6.68 4 6 4 C5.34 5.98 4.68 7.96 4 10 C3.34 10 2.68 10 2 10 C1.87625 10.763125 1.7525 11.52625 1.625 12.3125 C1 15 1 15 -1 18 C-1.39013716 19.9896995 -1.73202649 21.99019869 -2 24 C-2.33 24 -2.66 24 -3 24 C-3.30654742 15.38261147 -3.39589303 8.06524596 0 0 Z " fill="#FC9B1E" transform="translate(88,260)"/>
<path d="M0 0 C0.33 0 0.66 0 1 0 C1.33 21.12 1.66 42.24 2 64 C4.31 61.36 6.62 58.72 9 56 C9.33 57.32 9.66 58.64 10 60 C9.278125 60.556875 8.55625 61.11375 7.8125 61.6875 C5.05730146 63.95288546 2.52221037 66.47778963 0 69 C0 46.23 0 23.46 0 0 Z " fill="#705138" transform="translate(368,194)"/>
<path d="M0 0 C0.94875 0.04125 1.8975 0.0825 2.875 0.125 C5.04449153 5.42820151 5.04449153 5.42820151 4.3125 8.4375 C2.875 10.125 2.875 10.125 0.5 11.125 C-2.125 11.125 -2.125 11.125 -4.5 9.5 C-6.125 7.125 -6.125 7.125 -6 4.5 C-4.66489729 0.87614979 -3.90948703 0.15637948 0 0 Z " fill="#E48F30" transform="translate(282.125,176.875)"/>
<path d="M0 0 C3.19659635 0.59448895 4.76035915 1.78038421 7.25 3.8515625 C8.01699219 4.47804688 8.78398437 5.10453125 9.57421875 5.75 C10.94800055 6.94295001 12.27595304 8.19001554 13.5625 9.4765625 C10.9225 9.4765625 8.2825 9.4765625 5.5625 9.4765625 C5.2325 8.1565625 4.9025 6.8365625 4.5625 5.4765625 C-2.15173321 6.67553272 -6.2520594 9.09100369 -11.4375 13.4765625 C-9.96103678 10.30543951 -8.1997257 7.54193307 -6.125 4.7265625 C-5.55136719 3.92734375 -4.97773438 3.128125 -4.38671875 2.3046875 C-2.4375 0.4765625 -2.4375 0.4765625 0 0 Z " fill="#8B541D" transform="translate(274.4375,288.5234375)"/>
<path d="M0 0 C0.66 0.99 1.32 1.98 2 3 C-3 8 -3 8 -5.0625 9.875 C-7.59101071 12.64820529 -9.29974437 15.68482976 -11 19 C-11.36480469 19.68191406 -11.72960937 20.36382812 -12.10546875 21.06640625 C-15.03076224 26.96979636 -15.75524727 32.45286446 -16 39 C-16.33 39 -16.66 39 -17 39 C-17.54772596 28.44106064 -17.06367998 19.90951748 -10.375 11.375 C-9.59125 10.59125 -8.8075 9.8075 -8 9 C-7.34 9 -6.68 9 -6 9 C-5.7525 8.443125 -5.505 7.88625 -5.25 7.3125 C-3.78393985 4.60028873 -1.97010529 2.36412635 0 0 Z " fill="#FD8B10" transform="translate(106,260)"/>
<path d="M0 0 C0.33 0 0.66 0 1 0 C1 6.27 1 12.54 1 19 C-6.92 19 -14.84 19 -23 19 C-23.33 17.35 -23.66 15.7 -24 14 C-23.34 14.66 -22.68 15.32 -22 16 C-19.76964703 16.27741245 -19.76964703 16.27741245 -17.2109375 16.1953125 C-15.79941406 16.18564453 -15.79941406 16.18564453 -14.359375 16.17578125 C-13.37453125 16.15902344 -12.3896875 16.14226562 -11.375 16.125 C-10.38242188 16.11597656 -9.38984375 16.10695313 -8.3671875 16.09765625 C-5.91135612 16.07404249 -3.45564826 16.0381707 -1 16 C-0.67 10.72 -0.34 5.44 0 0 Z " fill="#B56D2E" transform="translate(252,304)"/>
<path d="M0 0 C0.33 0 0.66 0 1 0 C1 19.14 1 38.28 1 58 C1.66 58 2.32 58 3 58 C3 59.32 3 60.64 3 62 C2.01 61.67 1.02 61.34 0 61 C0 40.87 0 20.74 0 0 Z " fill="#D48236" transform="translate(201,232)"/>
<path d="M0 0 C0.33 0 0.66 0 1 0 C0.96519531 1.2065625 0.93039063 2.413125 0.89453125 3.65625 C0.86637016 5.27081928 0.83907251 6.88540379 0.8125 8.5 C0.78736328 9.29148437 0.76222656 10.08296875 0.73632812 10.8984375 C0.65953861 17.14398501 1.37075164 22.86487094 5.54296875 27.83984375 C10.05692094 30.8527192 13.57137033 31.71428265 19 32 C19 32.33 19 32.66 19 33 C17.37536158 33.05395478 15.75021459 33.09277195 14.125 33.125 C12.76761719 33.15980469 12.76761719 33.15980469 11.3828125 33.1953125 C9 33 9 33 7 31 C4.93125966 30.3574765 4.93125966 30.3574765 3 30 C2.8453125 29.0409375 2.8453125 29.0409375 2.6875 28.0625 C2.460625 27.381875 2.23375 26.70125 2 26 C1.01 25.67 0.02 25.34 -1 25 C-1.02908357 21.58335127 -1.04682691 18.1667345 -1.0625 14.75 C-1.07087891 13.78191406 -1.07925781 12.81382812 -1.08789062 11.81640625 C-1.09111328 10.88183594 -1.09433594 9.94726562 -1.09765625 8.984375 C-1.10289307 8.12553711 -1.10812988 7.26669922 -1.11352539 6.38183594 C-1.00539986 4.11329256 -0.63582423 2.17368285 0 0 Z " fill="#945625" transform="translate(109,265)"/>
<path d="M0 0 C7.30627306 3.4095941 7.30627306 3.4095941 9 6 C8.62132844 10.45132287 6.77221053 13.10508271 4.125 16.625 C3.42632812 17.56601563 2.72765625 18.50703125 2.0078125 19.4765625 C0.42184418 21.4698223 -1.14600877 23.26261199 -3 25 C-2.57405412 23.55903414 -2.13373367 22.12231288 -1.6875 20.6875 C-1.44386719 19.88699219 -1.20023437 19.08648437 -0.94921875 18.26171875 C0.05892577 15.85959663 1.14449817 14.77818925 3 13 C3.97715609 11.19809386 3.97715609 11.19809386 4.6875 9.3125 C5.120625 8.219375 5.55375 7.12625 6 6 C4.68 5.34 3.36 4.68 2 4 C2 3.34 2 2.68 2 2 C1.34 2 0.68 2 0 2 C0 1.34 0 0.68 0 0 Z " fill="#885F35" transform="translate(322,234)"/>
<path d="M0 0 C0.33 0.66 0.66 1.32 1 2 C0.67 2.66 0.34 3.32 0 4 C-0.33333333 7.5 -0.33333333 7.5 0 11 C0.99 11.66 1.98 12.32 3 13 C3 13.66 3 14.32 3 15 C4.98 15 6.96 15 9 15 C9 14.34 9 13.68 9 13 C9.99 13 10.98 13 12 13 C12.66 11.68 13.32 10.36 14 9 C14.33 10.32 14.66 11.64 15 13 C12.14979467 15.76383547 10.46655624 16.92501775 6.5 17.5625 C2.01051403 16.84097547 0.64897749 15.66182182 -2 12 C-3.17805879 7.87679425 -3.46054428 5.94111222 -1.5625 2.0625 C-1.046875 1.381875 -0.53125 0.70125 0 0 Z " fill="#895830" transform="translate(196,168)"/>
<path d="M0 0 C7.875 0.875 7.875 0.875 9 2 C9.07226502 3.85287502 9.0838122 5.70833878 9.0625 7.5625 C9.05347656 8.57441406 9.04445313 9.58632813 9.03515625 10.62890625 C9.02355469 11.41136719 9.01195312 12.19382812 9 13 C5.20960634 15.12999997 2.34263862 15.16702456 -2 15 C-2 14.34 -2 13.68 -2 13 C-4.97 12.505 -4.97 12.505 -8 12 C-4.71480525 10.90493508 -2.26336585 10.90039392 1.1875 10.9375 C2.81751953 10.95103516 2.81751953 10.95103516 4.48046875 10.96484375 C5.31191406 10.97644531 6.14335937 10.98804688 7 11 C7 8.69 7 6.38 7 4 C4.69 3.01 2.38 2.02 0 1 C0 0.67 0 0.34 0 0 Z " fill="#C06318" transform="translate(296,287)"/>
<path d="M0 0 C0.33 0 0.66 0 1 0 C1.97945122 4.08882017 2.13391426 7.92638351 2.125 12.125 C2.12757812 13.34445313 2.13015625 14.56390625 2.1328125 15.8203125 C2 19 2 19 1 22 C-1.0625 22.6875 -1.0625 22.6875 -3 23 C-3.6875 21.375 -3.6875 21.375 -4 19 C-3.54625 18.195625 -3.0925 17.39125 -2.625 16.5625 C-0.19213011 11.22890062 -0.24959605 5.80095642 0 0 Z " fill="#DCBF7B" transform="translate(111,238)"/>
<path d="M0 0 C0.625 2.8125 0.625 2.8125 1 6 C0.01 7.485 0.01 7.485 -1 9 C-5.875 8.125 -5.875 8.125 -7 7 C-7.04080783 5.00041636 -7.04254356 2.99954746 -7 1 C-3.375 -1.125 -3.375 -1.125 0 0 Z " fill="#BA844D" transform="translate(111,202)"/>
<path d="M0 0 C0.66 0.33 1.32 0.66 2 1 C1.67 1.33 1.34 1.66 1 2 C3.64 2.33 6.28 2.66 9 3 C8.67 4.32 8.34 5.64 8 7 C6.5437328 7.36256858 5.08488815 7.71479793 3.625 8.0625 C2.81289062 8.25972656 2.00078125 8.45695313 1.1640625 8.66015625 C-1 9 -1 9 -3 8 C-3.36923077 3.44615385 -3.36923077 3.44615385 -1.5 1.1875 C-1.005 0.795625 -0.51 0.40375 0 0 Z " fill="#F88406" transform="translate(199,171)"/>
<path d="M0 0 C0.99 0.33 1.98 0.66 3 1 C2.34 1 1.68 1 1 1 C1.01160156 1.80824219 1.02320312 2.61648437 1.03515625 3.44921875 C1.04869141 5.05216797 1.04869141 5.05216797 1.0625 6.6875 C1.07410156 7.74324219 1.08570312 8.79898438 1.09765625 9.88671875 C1.00789377 12.74834657 0.77347034 15.24605147 0 18 C-2.26669413 19.51112942 -4.4031954 20.13439847 -7 21 C-7 18.36 -7 15.72 -7 13 C-6.01 14.485 -6.01 14.485 -5 16 C-1.68147256 8.24029291 -1.68147256 8.24029291 0 0 Z " fill="#A97126" transform="translate(100,237)"/>
<path d="M0 0 C3.63571341 3.3188393 6.13932359 7.00064151 8.75 11.125 C9.16121094 11.75792969 9.57242187 12.39085937 9.99609375 13.04296875 C13 17.74343335 13 17.74343335 13 20 C12.01 20.33 11.02 20.66 10 21 C10 20.01 10 19.02 10 18 C9.01 17.67 8.02 17.34 7 17 C5.29466783 13.67908998 5 11.81507216 5 8 C3.68 8 2.36 8 1 8 C0.67 5.36 0.34 2.72 0 0 Z " fill="#A16123" transform="translate(412,300)"/>
<path d="M0 0 C0.99 0.33 1.98 0.66 3 1 C5.04102015 5.50105768 5.21732794 9.4816192 5.125 14.375 C5.10695313 15.62023437 5.08890625 16.86546875 5.0703125 18.1484375 C5.04710938 19.08945313 5.02390625 20.03046875 5 21 C4.67 21 4.34 21 4 21 C3.67 16.05 3.34 11.1 3 6 C-0.11785113 6.64644661 -0.11785113 6.64644661 -1 9 C-1.66 9 -2.32 9 -3 9 C-3.33 9.66 -3.66 10.32 -4 11 C-3.21681311 7.08406554 -1.60820142 3.63593365 0 0 Z " fill="#664E2E" transform="translate(109,232)"/>
<path d="M0 0 C-9.21285496 6.67137773 -20.16774477 6.39469756 -31 6 C-31 5.67 -31 5.34 -31 5 C-29.45892578 4.85304688 -29.45892578 4.85304688 -27.88671875 4.703125 C-20.19809145 3.89687925 -13.38786474 2.85056789 -6.234375 -0.29296875 C-3.7047111 -1.09343932 -2.46287025 -0.88685924 0 0 Z " fill="#895125" transform="translate(319,319)"/>
<path d="M0 0 C7.55778894 -0.37788945 7.55778894 -0.37788945 9.71875 1.46875 C13.19073026 3.7992573 16.65362305 3.56861676 20.75 3.6875 C21.93916016 3.73874023 21.93916016 3.73874023 23.15234375 3.79101562 C25.10107504 3.87319104 27.05051362 3.93828045 29 4 C29 4.33 29 4.66 29 5 C21.74 5 14.48 5 7 5 C7 4.01 7 3.02 7 2 C6.01 2.495 6.01 2.495 5 3 C3.00039988 3.039992 0.99952758 3.04346799 -1 3 C-0.67 2.01 -0.34 1.02 0 0 Z " fill="#ED7E15" transform="translate(131,316)"/>
<path d="M0 0 C1.32 0.33 2.64 0.66 4 1 C3.67 1.99 3.34 2.98 3 4 C2.34 4 1.68 4 1 4 C-2.05235155 7.13047304 -2.40239882 9.57403356 -2.51171875 13.859375 C-2.54716797 14.97441406 -2.58261719 16.08945312 -2.61914062 17.23828125 C-2.64169922 18.39714844 -2.66425781 19.55601562 -2.6875 20.75 C-2.72166016 21.92433594 -2.75582031 23.09867187 -2.79101562 24.30859375 C-2.87345173 27.20563389 -2.94261811 30.10237298 -3 33 C-3.33 33 -3.66 33 -4 33 C-4.02473868 29.06731133 -4.04287835 25.13465287 -4.05493164 21.2019043 C-4.06242729 19.20685232 -4.07513345 17.21182214 -4.08789062 15.21679688 C-4.09111328 13.96318359 -4.09433594 12.70957031 -4.09765625 11.41796875 C-4.10289307 10.26063232 -4.10812988 9.1032959 -4.11352539 7.91088867 C-4 5 -4 5 -3 2 C-2.01 2 -1.02 2 0 2 C0 1.34 0 0.68 0 0 Z " fill="#B16E2F" transform="translate(371,289)"/>
<path d="M0 0 C0.99 0.33 1.98 0.66 3 1 C2.50371094 1.54527344 2.00742187 2.09054688 1.49609375 2.65234375 C-3.2540276 7.92524885 -7.71862182 13.34055321 -12 19 C-12.33 17.68 -12.66 16.36 -13 15 C-12.34 15 -11.68 15 -11 15 C-10.67 13.68 -10.34 12.36 -10 11 C-9.01 11 -8.02 11 -7 11 C-6.814375 10.1028125 -6.814375 10.1028125 -6.625 9.1875 C-6 7 -6 7 -4 4 C-3.34 4 -2.68 4 -2 4 C-2 3.01 -2 2.02 -2 1 C-1.34 0.67 -0.68 0.34 0 0 Z " fill="#9C6434" transform="translate(407,252)"/>
<path d="M0 0 C1.85625 -0.061875 1.85625 -0.061875 3.75 -0.125 C4.79414062 -0.15980469 4.79414062 -0.15980469 5.859375 -0.1953125 C8 0 8 0 9.8125 1 C12.98417927 2.44991052 15.78745874 2.18912113 19.25 2.125 C21.14492187 2.09792969 21.14492187 2.09792969 23.078125 2.0703125 C24.04234375 2.04710937 25.0065625 2.02390625 26 2 C23.05521806 4.94478194 20.2936236 4.78551255 16.2421875 5.11328125 C10.52126605 4.91339363 5.32904512 2.9740342 0 1 C0 0.67 0 0.34 0 0 Z " fill="#995724" transform="translate(104,320)"/>
<path d="M0 0 C0.66 0.33 1.32 0.66 2 1 C1.57771147 3.46185226 1.13804346 5.91830534 0.6875 8.375 C0.56955078 9.07367188 0.45160156 9.77234375 0.33007812 10.4921875 C-0.01798989 12.34855026 -0.50252727 14.17798054 -1 16 C-1.99 16.66 -2.98 17.32 -4 18 C-3.67 16.02 -3.34 14.04 -3 12 C-3.99 11.67 -4.98 11.34 -6 11 C-5.47599609 10.18595703 -5.47599609 10.18595703 -4.94140625 9.35546875 C-4.25884766 8.28232422 -4.25884766 8.28232422 -3.5625 7.1875 C-3.11003906 6.47980469 -2.65757813 5.77210938 -2.19140625 5.04296875 C-0.85913661 2.91865448 -0.85913661 2.91865448 0 0 Z " fill="#E68B13" transform="translate(108,244)"/>
<path d="M0 0 C9.9 0 19.8 0 30 0 C30 0.99 30 1.98 30 3 C29.38125 3.268125 28.7625 3.53625 28.125 3.8125 C25.7004767 4.95556848 25.7004767 4.95556848 24 8 C24.33 6.02 24.66 4.04 25 2 C16.75 2 8.5 2 0 2 C0 1.34 0 0.68 0 0 Z " fill="#E9811F" transform="translate(392,232)"/>
<path d="M0 0 C2.12560437 0.30836232 4.25047065 0.62181614 6.375 0.9375 C8.15003906 1.19853516 8.15003906 1.19853516 9.9609375 1.46484375 C13 2 13 2 15 3 C15.625 5.0625 15.625 5.0625 16 7 C9.87903309 5.94513949 5.24493326 4.34782974 0 1 C0 0.67 0 0.34 0 0 Z " fill="#AD6120" transform="translate(268,316)"/>
<path d="M0 0 C1.65 0.33 3.3 0.66 5 1 C3.92598892 3.91517292 3.22189824 5.77810176 1 8 C0.3574765 10.06874034 0.3574765 10.06874034 0 12 C-1.65 12.33 -3.3 12.66 -5 13 C-5 13.99 -5 14.98 -5 16 C-5.66 16 -6.32 16 -7 16 C-7.33 16.66 -7.66 17.32 -8 18 C-7.67 16.02 -7.34 14.04 -7 12 C-5.35 11.67 -3.7 11.34 -2 11 C-2 9.68 -2 8.36 -2 7 C-1.34 6.67 -0.68 6.34 0 6 C0 4.02 0 2.04 0 0 Z " fill="#E9821D" transform="translate(410,240)"/>
<path d="M0 0 C0.66 0 1.32 0 2 0 C3.9451 2.91765 4.45276317 4.62537285 5 8 C6.32 8.33 7.64 8.66 9 9 C9.33 11.64 9.66 14.28 10 17 C4.63051436 13.62489474 2.25745536 8.75410963 0 3 C0 2.01 0 1.02 0 0 Z " fill="#A65B18" transform="translate(175,300)"/>
<path d="M0 0 C2.22855574 -0.0814222 4.45797655 -0.13938079 6.6875 -0.1875 C8.54955078 -0.23970703 8.54955078 -0.23970703 10.44921875 -0.29296875 C14.21845091 0.018024 15.93399351 0.89522798 19 3 C19.66 3 20.32 3 21 3 C21.268125 3.61875 21.53625 4.2375 21.8125 4.875 C22.95556848 7.2995233 22.95556848 7.2995233 26 9 C21.51959559 8.48795378 19.4544375 6.78040092 16 4 C10.74896299 1.55765721 5.66751156 1.79838892 0 2 C0 1.34 0 0.68 0 0 Z " fill="#875020" transform="translate(293,251)"/>
<path d="M0 0 C1.29349365 0.00523682 2.5869873 0.01047363 3.91967773 0.01586914 C4.9496714 0.01799156 4.9496714 0.01799156 6.00047302 0.02015686 C8.20144949 0.0257706 10.40232557 0.03832532 12.60327148 0.05102539 C14.09220231 0.05603863 15.58113473 0.06060184 17.07006836 0.06469727 C20.72700223 0.07574446 24.38387707 0.09301826 28.04077148 0.11352539 C28.04077148 0.44352539 28.04077148 0.77352539 28.04077148 1.11352539 C12.69577148 1.60852539 12.69577148 1.60852539 -2.95922852 2.11352539 C-3.28922852 3.10352539 -3.61922852 4.09352539 -3.95922852 5.11352539 C-4.61922852 5.11352539 -5.27922852 5.11352539 -5.95922852 5.11352539 C-3.55085595 0.1362221 -3.55085595 0.1362221 0 0 Z " fill="#6F3809" transform="translate(394.959228515625,229.886474609375)"/>
<path d="M0 0 C0.94875 0.04125 1.8975 0.0825 2.875 0.125 C5.04449153 5.42820151 5.04449153 5.42820151 4.3125 8.4375 C2.875 10.125 2.875 10.125 0.5 11.125 C-2.125 11.125 -2.125 11.125 -4.5 9.5 C-6.125 7.125 -6.125 7.125 -6 4.5 C-4.66489729 0.87614979 -3.90948703 0.15637948 0 0 Z M-2.125 1.125 C-4.39339983 2.95765325 -4.39339983 2.95765325 -4.3125 5.6875 C-4.39503323 8.07189723 -4.39503323 8.07189723 -3.125 9.125 C-1.12541636 9.16580783 0.87545254 9.16754356 2.875 9.125 C3.04181109 6.20847826 3.04181109 6.20847826 2.875 3.125 C2.215 2.465 1.555 1.805 0.875 1.125 C-0.115 1.125 -1.105 1.125 -2.125 1.125 Z " fill="#6F4D31" transform="translate(282.125,176.875)"/>
<path d="M0 0 C1.32 0 2.64 0 4 0 C3.46968862 4.5076467 1.74778884 7.41954788 -1 11 C-1.66 11 -2.32 11 -3 11 C-2.53199289 6.94393835 -2.12046792 3.53411321 0 0 Z " fill="#EFB23A" transform="translate(104,244)"/>
<path d="M0 0 C12.87 0.495 12.87 0.495 26 1 C25.67 1.66 25.34 2.32 25 3 C13.615 2.505 13.615 2.505 2 2 C1.67 3.65 1.34 5.3 1 7 C0.67 7 0.34 7 0 7 C0 4.69 0 2.38 0 0 Z " fill="#DA7B28" transform="translate(135,193)"/>
<path d="M0 0 C0.99 0.33 1.98 0.66 3 1 C3 1.66 3 2.32 3 3 C3.99 3 4.98 3 6 3 C6.86355778 4.95421035 7.71559934 6.91351347 8.5625 8.875 C9.03816406 9.96554687 9.51382812 11.05609375 10.00390625 12.1796875 C10.33261719 13.11039062 10.66132813 14.04109375 11 15 C10.67 15.66 10.34 16.32 10 17 C2.51708428 5.47835991 2.51708428 5.47835991 0 0 Z " fill="#9C581F" transform="translate(381,303)"/>
<path d="M0 0 C3.23387892 2.95267206 5.22245249 5.87922748 7.25 9.75 C7.77078125 10.73484375 8.2915625 11.7196875 8.828125 12.734375 C9.21484375 13.48203125 9.6015625 14.2296875 10 15 C9.34 15 8.68 15 8 15 C8 14.34 8 13.68 8 13 C7.38640625 12.91363281 6.7728125 12.82726562 6.140625 12.73828125 C4 12 4 12 2.734375 10.29296875 C2.40953125 9.59816406 2.0846875 8.90335937 1.75 8.1875 C1.41484375 7.50042969 1.0796875 6.81335938 0.734375 6.10546875 C0 4 0 4 0 0 Z " fill="#AB652D" transform="translate(393,271)"/>
<path d="M0 0 C0 3 0 3 -1.375 5.5 C-5.02300763 8.97429298 -9.06219306 10.19214511 -14 11 C-14.99 10.67 -15.98 10.34 -17 10 C-13.27034861 7.96564469 -11.33094958 7 -7 7 C-7 6.34 -7 5.68 -7 5 C-5.35 4.34 -3.7 3.68 -2 3 C-2 2.34 -2 1.68 -2 1 C-1.34 0.67 -0.68 0.34 0 0 Z " fill="#E8811C" transform="translate(323,310)"/>
<path d="M0 0 C1.24546405 2.49092811 0.7767578 3.41080733 0 6 C0.99 6.6496875 0.99 6.6496875 2 7.3125 C2.66 7.869375 3.32 8.42625 4 9 C4 9.99 4 10.98 4 12 C5.32 12.33 6.64 12.66 8 13 C6.25 13.6875 6.25 13.6875 4 14 C1.75 12.6875 1.75 12.6875 0 11 C0 10.34 0 9.68 0 9 C-0.66 9 -1.32 9 -2 9 C-2.6875 6.75 -2.6875 6.75 -3 4 C-1.5625 1.6875 -1.5625 1.6875 0 0 Z " fill="#A46122" transform="translate(262,302)"/>
<path d="M0 0 C0.99 0 1.98 0 3 0 C3.33 1.32 3.66 2.64 4 4 C5.65 4.33 7.3 4.66 9 5 C9 6.98 9 8.96 9 11 C4.57128343 8.78564172 2.45699405 6.27698964 0 2 C0 1.34 0 0.68 0 0 Z " fill="#E9821A" transform="translate(375,293)"/>
<path d="M0 0 C0.33 1.32 0.66 2.64 1 4 C0.278125 4.556875 -0.44375 5.11375 -1.1875 5.6875 C-3.97457299 7.97909334 -6.48641528 10.41459857 -9 13 C-9 11.02 -9 9.04 -9 7 C-8.01 7.495 -8.01 7.495 -7 8 C-4.69 5.36 -2.38 2.72 0 0 Z " fill="#8B4E15" transform="translate(377,250)"/>
<path d="M0 0 C2.03833424 1.2739589 4.03852126 2.61061923 6 4 C6 4.66 6 5.32 6 6 C8.475 6.99 8.475 6.99 11 8 C9.02 8.99 9.02 8.99 7 10 C5.82174642 9.09827532 4.65768423 8.17798498 3.5 7.25 C2.8503125 6.73953125 2.200625 6.2290625 1.53125 5.703125 C0 4 0 4 0 0 Z " fill="#BF6E25" transform="translate(95,310)"/>
<path d="M0 0 C4.41603145 4.11147756 6.90858792 8.36927518 9 14 C8.01 14 7.02 14 6 14 C4.39453125 11.953125 4.39453125 11.953125 2.8125 9.25 C2.28269531 8.36828125 1.75289063 7.4865625 1.20703125 6.578125 C0 4 0 4 0 0 Z " fill="#9E5E28" transform="translate(403,286)"/>
<path d="M0 0 C0.66 0 1.32 0 2 0 C0.64002446 6.04433574 -2.85651794 9.63494136 -7 14 C-7.66 13.67 -8.32 13.34 -9 13 C-8.360625 12.236875 -7.72125 11.47375 -7.0625 10.6875 C-4.85767219 8.11753287 -4.85767219 8.11753287 -4 5 C-3.34 5 -2.68 5 -2 5 C-2 4.34 -2 3.68 -2 3 C-1.34 3 -0.68 3 0 3 C0 2.01 0 1.02 0 0 Z " fill="#9B6331" transform="translate(328,304)"/>
<path d="M0 0 C1.32 0 2.64 0 4 0 C4 1.65 4 3.3 4 5 C3.34 5 2.68 5 2 5 C1.67 9.95 1.34 14.9 1 20 C0.67 20 0.34 20 0 20 C0 13.4 0 6.8 0 0 Z " fill="#B98340" transform="translate(107,260)"/>
<path d="M0 0 C0.66 0 1.32 0 2 0 C2.08126087 2.08268593 2.13930839 4.16628658 2.1875 6.25 C2.22230469 7.41015625 2.25710937 8.5703125 2.29296875 9.765625 C1.97982934 13.22268407 1.34290892 14.51565563 -1 17 C-0.90460938 16.32453125 -0.80921875 15.6490625 -0.7109375 14.953125 C-0.60007812 14.06109375 -0.48921875 13.1690625 -0.375 12.25 C-0.25898437 11.36828125 -0.14296875 10.4865625 -0.0234375 9.578125 C0.00207817 6.77140122 -0.55156156 5.36615134 -2 3 C-1.34 2.01 -0.68 1.02 0 0 Z " fill="#EBA039" transform="translate(109,238)"/>
<path d="M0 0 C0.66 0.33 1.32 0.66 2 1 C-0.7479213 5.27454425 -3.69250989 9.14126153 -7 13 C-7.33 12.01 -7.66 11.02 -8 10 C-4.78688525 4.26229508 -4.78688525 4.26229508 -1 3 C-0.67 2.01 -0.34 1.02 0 0 Z " fill="#ED8017" transform="translate(269,296)"/>
<path d="M0 0 C0.66 0.99 1.32 1.98 2 3 C1.278125 3.70125 0.55625 4.4025 -0.1875 5.125 C-2.14939608 7.07022274 -3.90664273 9.08769025 -5.625 11.25 C-8 14 -8 14 -11 15 C-10 13 -9 11 -8 9 C-7.34 9 -6.68 9 -6 9 C-5.7525 8.443125 -5.505 7.88625 -5.25 7.3125 C-3.78393985 4.60028873 -1.97010529 2.36412635 0 0 Z " fill="#FDA331" transform="translate(106,260)"/>
<path d="M0 0 C0.33 0.99 0.66 1.98 1 3 C-0.1875 4.75 -0.1875 4.75 -2 7 C-2.65620504 8.22366104 -3.30144279 9.45324613 -3.9375 10.6875 C-6 14 -6 14 -8.25 14.9375 C-8.8275 14.958125 -9.405 14.97875 -10 15 C-8.37815499 11.41486894 -6.20743761 8.41007677 -3.875 5.25 C-3.15054687 4.26515625 -2.42609375 3.2803125 -1.6796875 2.265625 C-1.12539063 1.51796875 -0.57109375 0.7703125 0 0 Z " fill="#9B5517" transform="translate(388,235)"/>
<path d="M0 0 C1.32 0.33 2.64 0.66 4 1 C4 1.99 4 2.98 4 4 C1.06225537 4.05390357 -1.87450232 4.0936255 -4.8125 4.125 C-5.64587891 4.14175781 -6.47925781 4.15851563 -7.33789062 4.17578125 C-8.14033203 4.18222656 -8.94277344 4.18867188 -9.76953125 4.1953125 C-10.87711792 4.21102295 -10.87711792 4.21102295 -12.00708008 4.22705078 C-14 4 -14 4 -17 2 C-11.39 2 -5.78 2 0 2 C0 1.34 0 0.68 0 0 Z " fill="#ED7D11" transform="translate(418,317)"/>
<path d="M0 0 C0 0.99 0 1.98 0 3 C-11.92307692 5.38461538 -11.92307692 5.38461538 -17 2 C-14.54187409 1.66507287 -12.08352273 1.3319903 -9.625 1 C-8.92632812 0.90460938 -8.22765625 0.80921875 -7.5078125 0.7109375 C-2.2265625 0 -2.2265625 0 0 0 Z " fill="#EF811B" transform="translate(130,319)"/>
<path d="M0 0 C0.33 0.66 0.66 1.32 1 2 C0.40832031 2.15855469 -0.18335938 2.31710937 -0.79296875 2.48046875 C-6.21569926 4.08163388 -9.35950451 5.65489248 -13 10 C-13 5.67008153 -10.88494631 4.08622163 -8 1 C-5.07175348 0.02391783 -3.04386724 -0.08226668 0 0 Z " fill="#B9641A" transform="translate(277,292)"/>
<path d="M0 0 C1.485 0.99 1.485 0.99 3 2 C3 2.66 3 3.32 3 4 C7.29 4 11.58 4 16 4 C13 7 13 7 10.80859375 7.328125 C9.63490234 7.28945313 9.63490234 7.28945313 8.4375 7.25 C7.25994141 7.22679687 7.25994141 7.22679687 6.05859375 7.203125 C4 7 4 7 2 6 C1.27306096 4.02111039 0.60183749 2.02045442 0 0 Z " fill="#924E16" transform="translate(204,292)"/>
<path d="M0 0 C0.99 0.495 0.99 0.495 2 1 C2.99 0.67 3.98 0.34 5 0 C4.45276317 3.37462715 3.9451 5.08235 2 8 C1.60986284 9.9896995 1.26797351 11.99019869 1 14 C0.67 14 0.34 14 0 14 C0 9.38 0 4.76 0 0 Z " fill="#FA8A12" transform="translate(85,270)"/>
<path d="M0 0 C7.04819277 3.28915663 7.04819277 3.28915663 9 6 C9 7.32 9 8.64 9 10 C7.68 10.33 6.36 10.66 5 11 C5.33 9.35 5.66 7.7 6 6 C4.68 5.34 3.36 4.68 2 4 C2 3.34 2 2.68 2 2 C1.34 2 0.68 2 0 2 C0 1.34 0 0.68 0 0 Z " fill="#915C29" transform="translate(322,234)"/>
<path d="M0 0 C2 1.3125 2 1.3125 4 3 C4 3.99 4 4.98 4 6 C4.99 5.67 5.98 5.34 7 5 C8 8 8 8 7.0625 10.1875 C6.5365625 11.0846875 6.5365625 11.0846875 6 12 C0.44419134 4.88610478 0.44419134 4.88610478 0 0 Z " fill="#EF7D13" transform="translate(88,298)"/>
<path d="M0 0 C0.33 1.32 0.66 2.64 1 4 C1.99 3.67 2.98 3.34 4 3 C4.33 4.65 4.66 6.3 5 8 C3.68 8.33 2.36 8.66 1 9 C-1.62386487 5.93882432 -2 5.26826873 -2 1 C-1.34 0.67 -0.68 0.34 0 0 Z " fill="#F27F0E" transform="translate(179,300)"/>
<path d="M0 0 C1.65 0.33 3.3 0.66 5 1 C4.67 2.65 4.34 4.3 4 6 C2.35 5.67 0.7 5.34 -1 5 C-0.67 3.35 -0.34 1.7 0 0 Z " fill="#514434" transform="translate(325,163)"/>
<path d="M0 0 C0.99 0 1.98 0 3 0 C3.33 2.64 3.66 5.28 4 8 C5.32 8 6.64 8 8 8 C7.67 9.32 7.34 10.64 7 12 C7 11.34 7 10.68 7 10 C6.37609375 9.92910156 5.7521875 9.85820312 5.109375 9.78515625 C3 9 3 9 1.953125 6.93359375 C1.72109375 6.10988281 1.4890625 5.28617187 1.25 4.4375 C1.00765625 3.61121094 0.7653125 2.78492188 0.515625 1.93359375 C0.34546875 1.29550781 0.1753125 0.65742188 0 0 Z " fill="#EC811C" transform="translate(409,300)"/>
<path d="M0 0 C0.66 0 1.32 0 2 0 C2.4125 0.86625 2.825 1.7325 3.25 2.625 C4.93393198 6.0596324 4.93393198 6.0596324 7.25 9.1875 C7.8275 10.115625 8.405 11.04375 9 12 C8.67 12.99 8.34 13.98 8 15 C1.48063781 5.77448747 1.48063781 5.77448747 0 0 Z " fill="#8F4B1C" transform="translate(86,298)"/>
<path d="M0 0 C0.22429687 0.61359375 0.44859375 1.2271875 0.6796875 1.859375 C2.42512806 4.68926087 4.0309923 5.13933057 7.125 6.25 C8.49011719 6.75273437 8.49011719 6.75273437 9.8828125 7.265625 C10.58148438 7.50796875 11.28015625 7.7503125 12 8 C12 8.33 12 8.66 12 9 C6.76824163 9.38281159 3.62197306 8.21854707 -1 6 C-0.67 4.02 -0.34 2.04 0 0 Z " fill="#834B1A" transform="translate(292,254)"/>
<path d="M0 0 C1.65 0 3.3 0 5 0 C5.33 0.99 5.66 1.98 6 3 C5.67 3.66 5.34 4.32 5 5 C3.35 5 1.7 5 0 5 C-0.33 4.01 -0.66 3.02 -1 2 C-0.67 1.34 -0.34 0.68 0 0 Z " fill="#524E46" transform="translate(172,164)"/>
<path d="M0 0 C7.875 0.875 7.875 0.875 9 2 C9.07179964 3.51928038 9.08392007 5.04167482 9.0625 6.5625 C9.05347656 7.38878906 9.04445313 8.21507812 9.03515625 9.06640625 C9.02355469 9.70449219 9.01195312 10.34257812 9 11 C8.34 11 7.68 11 7 11 C7 8.69 7 6.38 7 4 C4.69 3.01 2.38 2.02 0 1 C0 0.67 0 0.34 0 0 Z " fill="#844315" transform="translate(296,287)"/>
<path d="M0 0 C-0.33 1.32 -0.66 2.64 -1 4 C-3.31 4 -5.62 4 -8 4 C-8 3.01 -8 2.02 -8 1 C-2.25 0 -2.25 0 0 0 Z " fill="#A35B23" transform="translate(138,318)"/>
<path d="M0 0 C0.99 0 1.98 0 3 0 C3.33 1.98 3.66 3.96 4 6 C4.66 6 5.32 6 6 6 C6.66 7.32 7.32 8.64 8 10 C7.01 9.67 6.02 9.34 5 9 C5 8.34 5 7.68 5 7 C4.01 6.67 3.02 6.34 2 6 C0.8125 2.9375 0.8125 2.9375 0 0 Z " fill="#7A4A21" transform="translate(266,268)"/>
<path d="M0 0 C0.66 0.33 1.32 0.66 2 1 C0.576875 2.36125 0.576875 2.36125 -0.875 3.75 C-3.14549867 6.00978877 -4.83296506 7.96570916 -6 11 C-6.66 11 -7.32 11 -8 11 C-6.52670958 5.99081256 -3.72484762 3.48192278 0 0 Z " fill="#89471D" transform="translate(276,233)"/>
<path d="M0 0 C1.32 0 2.64 0 4 0 C3.52797514 4.24822374 1.03344482 6.19989709 -2 9 C-1.67 7.35 -1.34 5.7 -1 4 C-0.34 4 0.32 4 1 4 C0.67 2.68 0.34 1.36 0 0 Z " fill="#76562E" transform="translate(421,231)"/>
<path d="M0 0 C0.99 0.66 1.98 1.32 3 2 C1.35 2.66 -0.3 3.32 -2 4 C-1.72382467 5.94074861 -1.72382467 5.94074861 -1 8 C-0.01 8.66 0.98 9.32 2 10 C-2.875 9.125 -2.875 9.125 -4 8 C-4.04080783 6.00041636 -4.04254356 3.99954746 -4 2 C-2.68 1.34 -1.36 0.68 0 0 Z " fill="#492F1F" transform="translate(108,201)"/>
<path d="M0 0 C1.65 0 3.3 0 5 0 C5 1.65 5 3.3 5 5 C4.67 4.01 4.34 3.02 4 2 C3.4225 2.350625 2.845 2.70125 2.25 3.0625 C-0.35801776 4.14917407 -1.39417629 3.93065133 -4 3 C-2.68 2.67 -1.36 2.34 0 2 C0 1.34 0 0.68 0 0 Z " fill="#A96126" transform="translate(223,317)"/>
<path d="M0 0 C2.72869407 0.03287583 5.2966618 0.56397771 8 1 C8 1.99 8 2.98 8 4 C4.7 3.34 1.4 2.68 -2 2 C-1.34 1.34 -0.68 0.68 0 0 Z " fill="#ED7D12" transform="translate(270,314)"/>
<path d="M0 0 C0.99 0.33 1.98 0.66 3 1 C3 1.66 3 2.32 3 3 C3.99 3 4.98 3 6 3 C6 3.99 6 4.98 6 6 C6.66 6.33 7.32 6.66 8 7 C6.35 6.67 4.7 6.34 3 6 C2.67 5.01 2.34 4.02 2 3 C1.34 3 0.68 3 0 3 C0 2.01 0 1.02 0 0 Z " fill="#E07F26" transform="translate(270,271)"/>
<path d="M0 0 C0.66 0 1.32 0 2 0 C1.44739574 3.31562557 0.83174295 6.15062207 -1 9 C-1.99 9.33 -2.98 9.66 -4 10 C-3.67 8.35 -3.34 6.7 -3 5 C-2.34 5 -1.68 5 -1 5 C-0.67 3.35 -0.34 1.7 0 0 Z " fill="#E7841B" transform="translate(326,240)"/>
<path d="M0 0 C0.33 1.32 0.66 2.64 1 4 C2.94074861 3.72382467 2.94074861 3.72382467 5 3 C5.66 2.01 6.32 1.02 7 0 C7 1.98 7 3.96 7 6 C5.00045254 6.04254356 2.99958364 6.04080783 1 6 C0 5 0 5 -0.0625 2.4375 C-0.041875 1.633125 -0.02125 0.82875 0 0 Z " fill="#DD974E" transform="translate(278,180)"/>
<path d="M0 0 C3.3 0.99 6.6 1.98 10 3 C10 3.33 10 3.66 10 4 C6.7 4 3.4 4 0 4 C0 2.68 0 1.36 0 0 Z " fill="#E87D1E" transform="translate(284,297)"/>
<path d="M0 0 C2.86697492 1.28519565 4.97607712 2.57129254 7 5 C7 5.66 7 6.32 7 7 C5.02 6.34 3.04 5.68 1 5 C0.67 3.35 0.34 1.7 0 0 Z " fill="#AB6B2A" transform="translate(321,270)"/>
<path d="M0 0 C2 1.75 2 1.75 4 4 C4 5.32 4 6.64 4 8 C3.01 8 2.02 8 1 8 C0.67 5.36 0.34 2.72 0 0 Z " fill="#B2692B" transform="translate(412,300)"/>
<path d="M0 0 C2.64 0 5.28 0 8 0 C7.67 0.66 7.34 1.32 7 2 C4.35139573 2.59355614 1.70802678 2.74209269 -1 3 C-0.67 2.01 -0.34 1.02 0 0 Z " fill="#EF811B" transform="translate(120,298)"/>
<path d="M0 0 C0.66 0 1.32 0 2 0 C4.1519437 3.22791555 4.20086443 4.28400809 4 8 C3.01 8 2.02 8 1 8 C0.67 5.36 0.34 2.72 0 0 Z " fill="#E77E18" transform="translate(304,288)"/>
<path d="M0 0 C1.10868317 3.32604951 1.54177532 6.53058454 2 10 C1.34 10 0.68 10 0 10 C-2.14915785 6.77626323 -2.38286803 5.73296326 -2 2 C-1.34 1.34 -0.68 0.68 0 0 Z " fill="#E67F27" transform="translate(393,268)"/>
<path d="M0 0 C0.99 0.33 1.98 0.66 3 1 C3 1.66 3 2.32 3 3 C2.34 3 1.68 3 1 3 C0.34 4.98 -0.32 6.96 -1 9 C-1.66 9 -2.32 9 -3 9 C-2.01 6.03 -1.02 3.06 0 0 Z " fill="#FE9413" transform="translate(93,261)"/>
<path d="M0 0 C1 3 1 3 0.0625 5.1875 C-0.4634375 6.0846875 -0.4634375 6.0846875 -1 7 C-2.9375 6.625 -2.9375 6.625 -5 6 C-5.33 5.34 -5.66 4.68 -6 4 C-4.7934375 3.566875 -4.7934375 3.566875 -3.5625 3.125 C-0.8673532 2.26737432 -0.8673532 2.26737432 0 0 Z " fill="#CB8138" transform="translate(320,252)"/>
<path d="M0 0 C0.99 0.33 1.98 0.66 3 1 C1.38405168 3.04119788 -0.2856382 5.04072937 -2 7 C-2.66 7 -3.32 7 -4 7 C-3.43628586 3.73045798 -2.50037734 2.17424117 0 0 Z " fill="#EA821D" transform="translate(275,236)"/>
<path d="M0 0 C4.12751449 0.60698743 7.3321148 2.03810791 11 4 C9.4375 4.75 9.4375 4.75 7 5 C4.49713591 3.86915563 2.32992278 2.47860484 0 1 C0 0.67 0 0.34 0 0 Z " fill="#744017" transform="translate(311,229)"/>
<path d="M0 0 C2.64 0 5.28 0 8 0 C5 2 5 2 2 2 C1.67 3.65 1.34 5.3 1 7 C0.67 7 0.34 7 0 7 C0 4.69 0 2.38 0 0 Z " fill="#C07333" transform="translate(135,193)"/>
<path d="M0 0 C0.99 0 1.98 0 3 0 C3.28875 1.134375 3.5775 2.26875 3.875 3.4375 C4.24625 4.613125 4.6175 5.78875 5 7 C5.66 7.33 6.32 7.66 7 8 C6.01 8 5.02 8 4 8 C0 2.74285714 0 2.74285714 0 0 Z " fill="#A05F1F" transform="translate(375,293)"/>
<path d="M0 0 C0.33 0.66 0.66 1.32 1 2 C1.66 2 2.32 2 3 2 C3.66 4.31 4.32 6.62 5 9 C3.0625 8.4375 3.0625 8.4375 1 7 C0.25 3.375 0.25 3.375 0 0 Z " fill="#E38126" transform="translate(400,284)"/>
<path d="M0 0 C4.31392226 0.4793247 6.16569547 1.7457985 9 5 C2.25 3.375 2.25 3.375 0 0 Z " fill="#845728" transform="translate(274,278)"/>
<path d="M0 0 C0.6875 1.8125 0.6875 1.8125 1 4 C-0.3125 5.75 -0.3125 5.75 -2 7 C-2.66 7 -3.32 7 -4 7 C-3.43628586 3.73045798 -2.50037734 2.17424117 0 0 Z " fill="#A35F1C" transform="translate(377,250)"/>
<path d="M0 0 C0.66 0 1.32 0 2 0 C1.46930939 3.82097239 0.50298434 6.06171403 -2 9 C-2.66 8.67 -3.32 8.34 -4 8 C-2.68 5.36 -1.36 2.72 0 0 Z " fill="#FCCB59" transform="translate(105,246)"/>
<path d="M0 0 C1.32 0.33 2.64 0.66 4 1 C3.01 2.485 3.01 2.485 2 4 C1.34 4 0.68 4 0 4 C-0.33 4.99 -0.66 5.98 -1 7 C-2 4 -2 4 -1.0625 1.8125 C-0.5365625 0.9153125 -0.5365625 0.9153125 0 0 Z " fill="#F28313" transform="translate(98,265)"/>
<path d="M0 0 C0.66 0 1.32 0 2 0 C2 1.98 2 3.96 2 6 C0.35 6.33 -1.3 6.66 -3 7 C-2.67 6.01 -2.34 5.02 -2 4 C-1.34 4 -0.68 4 0 4 C0 2.68 0 1.36 0 0 Z " fill="#EAA64F" transform="translate(91,250)"/>
<path d="M0 0 C0.99 0 1.98 0 3 0 C2.67 2.31 2.34 4.62 2 7 C1.34 7 0.68 7 0 7 C0 4.69 0 2.38 0 0 Z " fill="#D47C2B" transform="translate(290,251)"/>
<path d="M0 0 C0 0.99 0 1.98 0 3 C-3.75 4.125 -3.75 4.125 -6 3 C-6 2.34 -6 1.68 -6 1 C-4 0 -4 0 0 0 Z " fill="#F1800A" transform="translate(398,233)"/>
</svg>
