<?xml version="1.0" encoding="UTF-8"?>
<!DOCTYPE svg PUBLIC "-//W3C//DTD SVG 1.1//EN" "http://www.w3.org/Graphics/SVG/1.1/DTD/svg11.dtd">
<svg xmlns="http://www.w3.org/2000/svg" version="1.1" width="640px" height="640px" style="shape-rendering:geometricPrecision; text-rendering:geometricPrecision; image-rendering:optimizeQuality; fill-rule:evenodd; clip-rule:evenodd" xmlns:xlink="http://www.w3.org/1999/xlink">
<g><path style="opacity:0.008" fill="#020001" d="M 435.5,247.5 C 435.5,302.5 435.5,357.5 435.5,412.5C 434.351,412.209 433.684,411.376 433.5,410C 434.827,356.144 434.827,302.31 433.5,248.5C 433.957,247.702 434.624,247.369 435.5,247.5 Z"/></g>
<g><path style="opacity:0.225" fill="#270f00" d="M 435.5,247.5 C 447.322,246.505 459.322,246.172 471.5,246.5C 471.543,275.727 471.543,305.06 471.5,334.5C 471.5,335.167 471.5,335.833 471.5,336.5C 470.833,336.5 470.5,336.167 470.5,335.5C 470.5,306.167 470.5,276.833 470.5,247.5C 458.833,247.5 447.167,247.5 435.5,247.5 Z"/></g>
<g><path style="opacity:1" fill="#fc7c02" d="M 171.5,408.5 C 168.994,409.75 166.327,410.416 163.5,410.5C 158.97,410.403 154.47,410.736 150,411.5C 136.474,411.961 127.141,405.961 122,393.5C 119.261,390.595 116.094,388.262 112.5,386.5C 112.5,385.5 112.5,384.5 112.5,383.5C 109.872,375.062 108.538,366.395 108.5,357.5C 109.117,357.611 109.617,357.944 110,358.5C 110.475,355.094 112.142,352.427 115,350.5C 116.202,345.565 118.535,341.232 122,337.5C 124.134,334.301 126.967,331.968 130.5,330.5C 131.372,332.466 131.205,334.466 130,336.5C 124.948,342.712 120.115,349.045 115.5,355.5C 113.676,361.384 113.176,367.384 114,373.5C 115.402,365.665 118.069,358.332 122,351.5C 126.967,347.534 131.634,343.201 136,338.5C 135.102,348.181 135.436,357.847 137,367.5C 138.034,370.986 139.367,374.319 141,377.5C 149.439,383.253 158.605,384.753 168.5,382C 169.252,381.329 169.586,380.496 169.5,379.5C 171.371,379.141 172.871,378.141 174,376.5C 174.5,334.168 174.667,291.835 174.5,249.5C 184.5,249.5 194.5,249.5 204.5,249.5C 204.5,302.833 204.5,356.167 204.5,409.5C 195.827,409.666 187.16,409.5 178.5,409C 177.531,405.925 175.531,404.925 172.5,406C 171.748,406.671 171.414,407.504 171.5,408.5 Z"/></g>
<g><path style="opacity:1" fill="#eb7d18" d="M 468.5,249.5 C 469.498,277.995 469.831,306.662 469.5,335.5C 467.508,307.52 466.842,279.186 467.5,250.5C 457.833,250.5 448.167,250.5 438.5,250.5C 438.5,303.5 438.5,356.5 438.5,409.5C 448.167,409.5 457.833,409.5 467.5,409.5C 466.488,398.852 466.321,388.186 467,377.5C 468.2,375.588 469.867,374.255 472,373.5C 472.684,372.216 472.517,371.049 471.5,370C 477.948,368.391 482.948,370.391 486.5,376C 488.764,375.302 490.597,375.802 492,377.5C 492.333,377.167 492.667,376.833 493,376.5C 493.905,379.232 493.238,379.899 491,378.5C 489.72,378.613 488.887,379.28 488.5,380.5C 490.333,384.834 492.167,389.167 494,393.5C 497.232,398.915 501.398,403.582 506.5,407.5C 514.479,408.665 522.479,408.832 530.5,408C 530.018,406.992 529.852,405.825 530,404.5C 526.387,402.71 526.054,400.71 529,398.5C 529.906,401.121 530.406,400.954 530.5,398C 529.46,395.869 527.96,394.036 526,392.5C 525.187,390.564 524.687,388.564 524.5,386.5C 525.967,389.29 528.3,390.956 531.5,391.5C 532.167,392.167 532.833,392.833 533.5,393.5C 535.4,398.299 538.067,402.632 541.5,406.5C 541.5,408.167 541.5,409.833 541.5,411.5C 528.829,411.667 516.162,411.5 503.5,411C 503.026,409.271 502.026,408.105 500.5,407.5C 499.617,404.296 497.95,401.629 495.5,399.5C 493.012,396.534 491.012,393.201 489.5,389.5C 487.557,385.867 485.557,382.201 483.5,378.5C 483.043,377.702 482.376,377.369 481.5,377.5C 480.532,374.9 479.199,372.566 477.5,370.5C 475.815,372.571 474.148,374.571 472.5,376.5C 471.833,376.833 471.167,377.167 470.5,377.5C 469.883,377.611 469.383,377.944 469,378.5C 468.5,389.161 468.333,399.828 468.5,410.5C 458.167,410.5 447.833,410.5 437.5,410.5C 437.5,356.833 437.5,303.167 437.5,249.5C 447.833,249.5 458.167,249.5 468.5,249.5 Z"/></g>
<g><path style="opacity:0.997" fill="#c67f3f" d="M 206.5,247.5 C 206.5,248.167 206.5,248.833 206.5,249.5C 195.581,248.523 184.581,248.19 173.5,248.5C 173.832,290.337 173.499,332.003 172.5,373.5C 172.5,331.5 172.5,289.5 172.5,247.5C 183.833,247.5 195.167,247.5 206.5,247.5 Z"/></g>
<g><path style="opacity:0.639" fill="#78441b" d="M 206.5,247.5 C 206.833,247.5 207.167,247.5 207.5,247.5C 207.285,301.295 207.618,355.295 208.5,409.5C 208.471,411.029 207.804,412.196 206.5,413C 195.466,413.765 184.466,413.599 173.5,412.5C 173.926,410.861 173.926,409.528 173.5,408.5C 173.56,407.957 173.893,407.624 174.5,407.5C 175.429,408.689 175.762,410.022 175.5,411.5C 185.833,411.5 196.167,411.5 206.5,411.5C 206.5,357.5 206.5,303.5 206.5,249.5C 206.5,248.833 206.5,248.167 206.5,247.5 Z"/></g>
<g><path style="opacity:0.984" fill="#6e411b" d="M 389.5,292.5 C 382.485,292.578 375.485,292.911 368.5,293.5C 375.436,291.437 382.436,291.104 389.5,292.5 Z"/></g>
<g><path style="opacity:0.125" fill="#432009" d="M 391.5,292.5 C 397.3,292.991 402.633,294.657 407.5,297.5C 401.95,296.204 396.617,294.537 391.5,292.5 Z"/></g>
<g><path style="opacity:0.2" fill="#271004" d="M 503.5,295.5 C 516.656,294.504 529.99,294.171 543.5,294.5C 543.737,295.791 543.404,296.791 542.5,297.5C 529.876,295.519 516.876,294.852 503.5,295.5 Z"/></g>
<g><path style="opacity:0.999" fill="#fa7d05" d="M 389.5,292.5 C 390.167,292.5 390.833,292.5 391.5,292.5C 396.617,294.537 401.95,296.204 407.5,297.5C 409.674,297.75 411.341,298.75 412.5,300.5C 413.812,303.145 415.812,305.145 418.5,306.5C 418.987,307.446 419.32,308.446 419.5,309.5C 418.078,312.014 416.912,314.681 416,317.5C 413.09,318.45 411.923,320.45 412.5,323.5C 409.243,323.764 407.243,325.43 406.5,328.5C 402.619,327.226 398.952,325.393 395.5,323C 394.207,322.51 392.873,322.343 391.5,322.5C 391.167,322.5 390.833,322.5 390.5,322.5C 385.577,319.121 380.244,318.621 374.5,321C 369.037,328.787 371.037,333.787 380.5,336C 384.996,337.745 389.662,338.579 394.5,338.5C 396.553,338.402 398.22,339.069 399.5,340.5C 402.747,343.079 406.414,344.745 410.5,345.5C 412.879,351.261 415.546,356.927 418.5,362.5C 420.197,363.364 421.363,364.697 422,366.5C 422.5,373.158 422.666,379.825 422.5,386.5C 420.713,390.075 418.879,393.741 417,397.5C 415.736,399.607 413.903,400.607 411.5,400.5C 411.5,401.5 411.5,402.5 411.5,403.5C 409.019,403.774 407.353,405.107 406.5,407.5C 392.072,411.863 377.405,413.03 362.5,411C 354.891,408.341 347.557,405.508 340.5,402.5C 338.887,399.714 337.054,397.047 335,394.5C 334.333,393.167 334.333,391.833 335,390.5C 339.333,384.833 344.333,379.833 350,375.5C 358.458,381.209 367.792,384.542 378,385.5C 381.746,385.675 385.246,384.842 388.5,383C 391.387,380.152 392.054,376.985 390.5,373.5C 389.5,372.167 388.5,370.833 387.5,369.5C 386.251,367.864 384.584,366.697 382.5,366C 372.025,362.498 361.692,358.998 351.5,355.5C 342.782,346.356 338.782,335.356 339.5,322.5C 339.232,320.901 339.566,319.568 340.5,318.5C 342.071,316.365 343.404,314.032 344.5,311.5C 348.758,307.909 352.758,303.909 356.5,299.5C 360.583,297.459 364.583,295.459 368.5,293.5C 375.485,292.911 382.485,292.578 389.5,292.5 Z"/></g>
<g><path style="opacity:0.998" fill="#935c2a" d="M 503.5,296.5 C 503.5,296.167 503.5,295.833 503.5,295.5C 516.876,294.852 529.876,295.519 542.5,297.5C 542.291,298.922 541.791,300.255 541,301.5C 538.151,304.574 535.317,307.574 532.5,310.5C 532.694,307.67 533.361,305.004 534.5,302.5C 535.5,302.5 536.5,302.5 537.5,302.5C 539.28,301.01 539.946,299.01 539.5,296.5C 527.5,296.5 515.5,296.5 503.5,296.5 Z"/></g>
<g><path style="opacity:1" fill="#de842e" d="M 503.5,296.5 C 515.5,296.5 527.5,296.5 539.5,296.5C 539.946,299.01 539.28,301.01 537.5,302.5C 537.714,300.856 537.38,299.356 536.5,298C 525.5,297.333 514.5,297.333 503.5,298C 502.035,301.965 499.368,304.799 495.5,306.5C 497.033,302.296 499.7,298.963 503.5,296.5 Z"/></g>
<g><path style="opacity:1" fill="#fc7c01" d="M 291.5,405.5 C 290.221,404.285 289.221,404.618 288.5,406.5C 285.426,406.873 282.426,407.539 279.5,408.5C 275.121,410.681 270.454,411.681 265.5,411.5C 258.399,410.806 251.399,409.64 244.5,408C 240.711,404.761 237.378,401.094 234.5,397C 234.905,396.055 235.572,395.388 236.5,395C 233.143,393.488 231.143,390.988 230.5,387.5C 229.5,387.5 228.5,387.5 227.5,387.5C 226.557,357.849 226.224,328.183 226.5,298.5C 236.167,298.5 245.833,298.5 255.5,298.5C 255.333,322.502 255.5,346.502 256,370.5C 256.074,375.066 258.241,378.066 262.5,379.5C 265.694,380.758 269.027,381.424 272.5,381.5C 272.833,381.5 273.167,381.5 273.5,381.5C 277.22,381.436 280.886,380.936 284.5,380C 287.079,378.924 288.746,377.091 289.5,374.5C 290.498,349.005 290.831,323.339 290.5,297.5C 300.833,297.5 311.167,297.5 321.5,297.5C 321.5,335.167 321.5,372.833 321.5,410.5C 311.833,410.5 302.167,410.5 292.5,410.5C 292.784,408.585 292.451,406.919 291.5,405.5 Z"/></g>
<g><path style="opacity:0.945" fill="#1a1215" d="M 143.5,303.5 C 142.207,302.158 141.374,300.491 141,298.5C 139.724,300.858 138.558,303.192 137.5,305.5C 137.042,302.606 137.709,300.106 139.5,298C 142.806,298.041 144.139,299.874 143.5,303.5 Z"/></g>
<g><path style="opacity:0.259" fill="#311404" d="M 503.5,295.5 C 503.5,295.833 503.5,296.167 503.5,296.5C 499.7,298.963 497.033,302.296 495.5,306.5C 494.167,307.5 492.833,308.5 491.5,309.5C 493.311,306.556 495.144,303.556 497,300.5C 498.777,298.21 500.944,296.543 503.5,295.5 Z"/></g>
<g><path style="opacity:0.82" fill="#bb8944" d="M 132.5,306.5 C 132.281,307.675 132.614,308.675 133.5,309.5C 134.518,308.807 135.518,308.141 136.5,307.5C 135.963,310.741 134.296,311.741 131.5,310.5C 131.44,309.957 131.107,309.624 130.5,309.5C 129.641,312 128.641,314.333 127.5,316.5C 128.162,312.534 128.495,308.534 128.5,304.5C 130.199,304.527 131.533,305.194 132.5,306.5 Z"/></g>
<g><path style="opacity:0.259" fill="#563218" d="M 354.5,299.5 C 352.498,302.334 349.998,304.667 347,306.5C 345.906,308.078 345.072,309.745 344.5,311.5C 343.404,314.032 342.071,316.365 340.5,318.5C 342.024,309.76 346.691,303.427 354.5,299.5 Z"/></g>
<g><path style="opacity:0.992" fill="#b67233" d="M 368.5,293.5 C 364.583,295.459 360.583,297.459 356.5,299.5C 352.758,303.909 348.758,307.909 344.5,311.5C 345.072,309.745 345.906,308.078 347,306.5C 349.998,304.667 352.498,302.334 354.5,299.5C 358.396,295.89 363.063,293.89 368.5,293.5 Z"/></g>
<g><path style="opacity:0.373" fill="#22190d" d="M 132.5,306.5 C 131.533,305.194 130.199,304.527 128.5,304.5C 128.495,308.534 128.162,312.534 127.5,316.5C 126.833,317.5 126.167,318.5 125.5,319.5C 126.089,314.519 126.589,309.519 127,304.5C 129.913,301.867 131.746,302.533 132.5,306.5 Z"/></g>
<g><path style="opacity:1" fill="#fc7c02" d="M 469.5,335.5 C 469.833,335.5 470.167,335.5 470.5,335.5C 470.5,336.167 470.833,336.5 471.5,336.5C 476.786,332.716 481.62,328.383 486,323.5C 489.857,318.162 493.024,312.495 495.5,306.5C 499.368,304.799 502.035,301.965 503.5,298C 514.5,297.333 525.5,297.333 536.5,298C 537.38,299.356 537.714,300.856 537.5,302.5C 536.5,302.5 535.5,302.5 534.5,302.5C 533.361,305.004 532.694,307.67 532.5,310.5C 532.5,311.167 532.167,311.5 531.5,311.5C 526.039,315.353 521.373,320.02 517.5,325.5C 515.983,325.511 514.816,326.177 514,327.5C 513.586,327.043 513.086,326.709 512.5,326.5C 511.61,329.394 510.276,332.061 508.5,334.5C 507.914,334.291 507.414,333.957 507,333.5C 506.506,335.134 506.34,336.801 506.5,338.5C 504.011,338.298 501.677,338.798 499.5,340C 500.337,341.011 500.67,342.178 500.5,343.5C 498.891,343.094 497.557,343.094 496.5,343.5C 500.294,350.819 504.294,358.152 508.5,365.5C 511.872,367.215 513.205,369.715 512.5,373C 516.679,377.346 520.679,381.846 524.5,386.5C 524.687,388.564 525.187,390.564 526,392.5C 527.96,394.036 529.46,395.869 530.5,398C 530.406,400.954 529.906,401.121 529,398.5C 526.054,400.71 526.387,402.71 530,404.5C 529.852,405.825 530.018,406.992 530.5,408C 522.479,408.832 514.479,408.665 506.5,407.5C 501.398,403.582 497.232,398.915 494,393.5C 492.167,389.167 490.333,384.834 488.5,380.5C 488.887,379.28 489.72,378.613 491,378.5C 493.238,379.899 493.905,379.232 493,376.5C 492.667,376.833 492.333,377.167 492,377.5C 490.597,375.802 488.764,375.302 486.5,376C 482.948,370.391 477.948,368.391 471.5,370C 472.517,371.049 472.684,372.216 472,373.5C 469.867,374.255 468.2,375.588 467,377.5C 466.321,388.186 466.488,398.852 467.5,409.5C 457.833,409.5 448.167,409.5 438.5,409.5C 438.5,356.5 438.5,303.5 438.5,250.5C 448.167,250.5 457.833,250.5 467.5,250.5C 466.842,279.186 467.508,307.52 469.5,335.5 Z"/></g>
<g><path style="opacity:0.29" fill="#371d0b" d="M 491.5,309.5 C 488.406,314.022 485.073,318.356 481.5,322.5C 483.625,317.257 486.958,312.923 491.5,309.5 Z"/></g>
<g><path style="opacity:0.953" fill="#905929" d="M 412.5,300.5 C 416.714,302.375 420.38,305.042 423.5,308.5C 420.163,313.823 416.497,318.823 412.5,323.5C 411.923,320.45 413.09,318.45 416,317.5C 416.912,314.681 418.078,312.014 419.5,309.5C 419.32,308.446 418.987,307.446 418.5,306.5C 415.812,305.145 413.812,303.145 412.5,300.5 Z"/></g>
<g><path style="opacity:0.945" fill="#3c301e" d="M 143.5,307.5 C 144.88,307.962 145.547,308.962 145.5,310.5C 145.214,313.072 145.214,315.572 145.5,318C 144.956,318.717 144.289,319.217 143.5,319.5C 143.5,316.833 143.5,314.167 143.5,311.5C 143.5,310.167 143.5,308.833 143.5,307.5 Z"/></g>
<g><path style="opacity:1" fill="#a96428" d="M 531.5,311.5 C 529.984,314.533 527.984,317.2 525.5,319.5C 523.413,320.585 522.08,322.251 521.5,324.5C 520.876,326.754 519.543,328.421 517.5,329.5C 517.5,328.167 517.5,326.833 517.5,325.5C 521.373,320.02 526.039,315.353 531.5,311.5 Z"/></g>
<g><path style="opacity:1" fill="#da8432" d="M 468.5,249.5 C 458.167,249.5 447.833,249.5 437.5,249.5C 437.5,303.167 437.5,356.833 437.5,410.5C 447.833,410.5 458.167,410.5 468.5,410.5C 468.333,399.828 468.5,389.161 469,378.5C 469.383,377.944 469.883,377.611 470.5,377.5C 470.828,389.012 470.495,400.346 469.5,411.5C 458.5,411.5 447.5,411.5 436.5,411.5C 436.5,357.167 436.5,302.833 436.5,248.5C 447.346,248.172 458.013,248.506 468.5,249.5 Z"/></g>
<g><path style="opacity:0.992" fill="#d37923" d="M 495.5,306.5 C 493.024,312.495 489.857,318.162 486,323.5C 481.62,328.383 476.786,332.716 471.5,336.5C 471.5,335.833 471.5,335.167 471.5,334.5C 474.457,330.208 477.79,326.208 481.5,322.5C 485.073,318.356 488.406,314.022 491.5,309.5C 492.833,308.5 494.167,307.5 495.5,306.5 Z"/></g>
<g><path style="opacity:0.016" fill="#340e01" d="M 525.5,319.5 C 524.92,321.749 523.587,323.415 521.5,324.5C 522.08,322.251 523.413,320.585 525.5,319.5 Z"/></g>
<g><path style="opacity:0.969" fill="#8f5826" d="M 435.5,247.5 C 447.167,247.5 458.833,247.5 470.5,247.5C 470.5,276.833 470.5,306.167 470.5,335.5C 470.167,335.5 469.833,335.5 469.5,335.5C 469.831,306.662 469.498,277.995 468.5,249.5C 458.013,248.506 447.346,248.172 436.5,248.5C 436.5,302.833 436.5,357.167 436.5,411.5C 447.5,411.5 458.5,411.5 469.5,411.5C 469.5,411.833 469.5,412.167 469.5,412.5C 458.167,413.833 446.833,413.833 435.5,412.5C 435.5,357.5 435.5,302.5 435.5,247.5 Z"/></g>
<g><path style="opacity:0.976" fill="#f9e09a" d="M 143.5,311.5 C 143.5,314.167 143.5,316.833 143.5,319.5C 143.5,320.833 143.5,322.167 143.5,323.5C 142.055,326.937 141.055,330.603 140.5,334.5C 140.167,334.5 139.833,334.5 139.5,334.5C 140.042,326.59 141.375,318.923 143.5,311.5 Z"/></g>
<g><path style="opacity:0.361" fill="#3a3424" d="M 143.5,323.5 C 143.26,328.12 142.26,332.453 140.5,336.5C 140.5,335.833 140.5,335.167 140.5,334.5C 141.055,330.603 142.055,326.937 143.5,323.5 Z"/></g>
<g><path style="opacity:1" fill="#a1652c" d="M 391.5,322.5 C 392.873,322.343 394.207,322.51 395.5,323C 398.952,325.393 402.619,327.226 406.5,328.5C 407.243,325.43 409.243,323.764 412.5,323.5C 411.023,326.821 408.857,329.488 406,331.5C 401.033,328.697 396.2,325.697 391.5,322.5 Z"/></g>
<g><path style="opacity:0.604" fill="#43230e" d="M 120.5,327.5 C 120.217,328.289 119.717,328.956 119,329.5C 118.824,326.118 118.324,322.785 117.5,319.5C 116.16,320.867 114.827,322.2 113.5,323.5C 113.69,319.643 115.69,317.976 119.5,318.5C 119.19,321.713 119.523,324.713 120.5,327.5 Z"/></g>
<g><path style="opacity:0.031" fill="#2a1706" d="M 113.5,324.5 C 111.814,327.872 110.147,331.205 108.5,334.5C 108.592,330.316 110.259,326.983 113.5,324.5 Z"/></g>
<g><path style="opacity:0.402" fill="#431f05" d="M 289.5,295.5 C 300.993,294.341 312.659,294.174 324.5,295C 325.022,295.561 325.355,296.228 325.5,297C 324.842,335.64 324.175,374.14 323.5,412.5C 323.5,373.833 323.5,335.167 323.5,296.5C 312.346,295.505 301.012,295.172 289.5,295.5 Z"/></g>
<g><path style="opacity:1" fill="#a55f24" d="M 390.5,322.5 C 386.524,321.669 382.524,321.503 378.5,322C 373.389,323.955 372.389,327.121 375.5,331.5C 381.886,334.001 388.22,336.335 394.5,338.5C 389.662,338.579 384.996,337.745 380.5,336C 371.037,333.787 369.037,328.787 374.5,321C 380.244,318.621 385.577,319.121 390.5,322.5 Z"/></g>
<g><path style="opacity:1" fill="#f3b951" d="M 143.5,303.5 C 143.5,304.833 143.5,306.167 143.5,307.5C 143.5,308.833 143.5,310.167 143.5,311.5C 141.375,318.923 140.042,326.59 139.5,334.5C 137.034,335.381 134.7,337.214 132.5,340C 131.668,340.688 131.002,340.521 130.5,339.5C 136.657,331.519 140.323,322.519 141.5,312.5C 141.635,310.192 140.969,308.192 139.5,306.5C 138.097,314.311 134.763,321.311 129.5,327.5C 128.522,327.189 127.855,326.522 127.5,325.5C 128.501,322.827 130.001,320.493 132,318.5C 132.602,315.779 132.435,313.113 131.5,310.5C 134.296,311.741 135.963,310.741 136.5,307.5C 136.328,306.508 136.662,305.842 137.5,305.5C 138.558,303.192 139.724,300.858 141,298.5C 141.374,300.491 142.207,302.158 143.5,303.5 Z"/></g>
<g><path style="opacity:0.999" fill="#f69e29" d="M 131.5,310.5 C 132.435,313.113 132.602,315.779 132,318.5C 130.001,320.493 128.501,322.827 127.5,325.5C 127.855,326.522 128.522,327.189 129.5,327.5C 122.027,333.821 116.194,341.487 112,350.5C 111.83,348.285 111.163,346.285 110,344.5C 109.722,345.416 109.222,346.082 108.5,346.5C 108.5,345.167 108.5,343.833 108.5,342.5C 108.5,339.833 108.5,337.167 108.5,334.5C 110.147,331.205 111.814,327.872 113.5,324.5C 113.5,324.167 113.5,323.833 113.5,323.5C 114.827,322.2 116.16,320.867 117.5,319.5C 118.324,322.785 118.824,326.118 119,329.5C 119.717,328.956 120.217,328.289 120.5,327.5C 120.5,327.167 120.5,326.833 120.5,326.5C 121.833,325.833 122.833,324.833 123.5,323.5C 123.66,321.847 124.326,320.514 125.5,319.5C 126.167,318.5 126.833,317.5 127.5,316.5C 128.641,314.333 129.641,312 130.5,309.5C 131.107,309.624 131.44,309.957 131.5,310.5 Z"/></g>
<g><path style="opacity:0.027" fill="#200600" d="M 123.5,323.5 C 122.833,324.833 121.833,325.833 120.5,326.5C 120.5,324.5 121.5,323.5 123.5,323.5 Z"/></g>
<g><path style="opacity:0.364" fill="#71421e" d="M 289.5,295.5 C 301.012,295.172 312.346,295.505 323.5,296.5C 323.167,296.5 322.833,296.5 322.5,296.5C 311.5,296.5 300.5,296.5 289.5,296.5C 289.5,322.5 289.5,348.5 289.5,374.5C 288.746,377.091 287.079,378.924 284.5,380C 280.886,380.936 277.22,381.436 273.5,381.5C 278.38,380.586 282.88,378.586 287,375.5C 287.982,354.817 288.149,334.15 287.5,313.5C 287.504,307.128 288.171,301.128 289.5,295.5 Z"/></g>
<g><path style="opacity:1" fill="#ed7f1a" d="M 258.5,368.5 C 258.34,370.199 258.506,371.866 259,373.5C 259.417,374.756 260.25,375.423 261.5,375.5C 261.833,376.833 262.167,378.167 262.5,379.5C 258.241,378.066 256.074,375.066 256,370.5C 255.5,346.502 255.333,322.502 255.5,298.5C 245.833,298.5 236.167,298.5 226.5,298.5C 226.224,328.183 226.557,357.849 227.5,387.5C 228.5,387.5 229.5,387.5 230.5,387.5C 231.143,390.988 233.143,393.488 236.5,395C 235.572,395.388 234.905,396.055 234.5,397C 237.378,401.094 240.711,404.761 244.5,408C 251.399,409.64 258.399,410.806 265.5,411.5C 270.454,411.681 275.121,410.681 279.5,408.5C 278.194,409.467 277.527,410.801 277.5,412.5C 267.36,412.996 257.36,412.329 247.5,410.5C 245.343,409.593 243.01,408.927 240.5,408.5C 239.415,406.413 237.749,405.08 235.5,404.5C 233.413,403.415 232.08,401.749 231.5,399.5C 227.589,393.434 225.255,386.768 224.5,379.5C 224.5,351.833 224.5,324.167 224.5,296.5C 235.5,296.5 246.5,296.5 257.5,296.5C 257.169,320.672 257.502,344.672 258.5,368.5 Z"/></g>
<g><path style="opacity:0.434" fill="#814d24" d="M 258.5,344.5 C 258.5,352.5 258.5,360.5 258.5,368.5C 257.502,344.672 257.169,320.672 257.5,296.5C 246.5,296.5 235.5,296.5 224.5,296.5C 224.5,324.167 224.5,351.833 224.5,379.5C 224.167,379.5 223.833,379.5 223.5,379.5C 223.12,351.447 222.954,323.447 223,295.5C 235,294.167 247,294.167 259,295.5C 259.479,311.839 259.312,328.172 258.5,344.5 Z"/></g>
<g><path style="opacity:1" fill="#ea8321" d="M 206.5,249.5 C 206.5,303.5 206.5,357.5 206.5,411.5C 196.167,411.5 185.833,411.5 175.5,411.5C 175.762,410.022 175.429,408.689 174.5,407.5C 173.893,407.624 173.56,407.957 173.5,408.5C 173.167,408.5 172.833,408.5 172.5,408.5C 172.167,408.5 171.833,408.5 171.5,408.5C 171.414,407.504 171.748,406.671 172.5,406C 175.531,404.925 177.531,405.925 178.5,409C 187.16,409.5 195.827,409.666 204.5,409.5C 204.5,356.167 204.5,302.833 204.5,249.5C 194.5,249.5 184.5,249.5 174.5,249.5C 174.667,291.835 174.5,334.168 174,376.5C 172.871,378.141 171.371,379.141 169.5,379.5C 171.385,377.947 172.385,375.947 172.5,373.5C 173.499,332.003 173.832,290.337 173.5,248.5C 184.581,248.19 195.581,248.523 206.5,249.5 Z"/></g>
<g><path style="opacity:1" fill="#e68225" d="M 322.5,296.5 C 322.5,334.833 322.5,373.167 322.5,411.5C 312.167,411.5 301.833,411.5 291.5,411.5C 291.5,409.5 291.5,407.5 291.5,405.5C 292.451,406.919 292.784,408.585 292.5,410.5C 302.167,410.5 311.833,410.5 321.5,410.5C 321.5,372.833 321.5,335.167 321.5,297.5C 311.167,297.5 300.833,297.5 290.5,297.5C 290.831,323.339 290.498,349.005 289.5,374.5C 289.5,348.5 289.5,322.5 289.5,296.5C 300.5,296.5 311.5,296.5 322.5,296.5 Z"/></g>
<g><path style="opacity:0.192" fill="#411e05" d="M 207.5,247.5 C 207.167,247.5 206.833,247.5 206.5,247.5C 195.167,247.5 183.833,247.5 172.5,247.5C 172.5,289.5 172.5,331.5 172.5,373.5C 172.385,375.947 171.385,377.947 169.5,379.5C 168.167,379.5 166.833,379.5 165.5,379.5C 169.399,378.41 171.233,375.743 171,371.5C 171.283,330.248 171.283,288.915 171,247.5C 183.265,246.17 195.431,246.17 207.5,247.5 Z"/></g>
<g><path style="opacity:0.894" fill="#8e5527" d="M 517.5,329.5 C 513.19,334.814 508.857,340.148 504.5,345.5C 504.343,344.127 504.51,342.793 505,341.5C 507.333,338.5 509.667,335.5 512,332.5C 513.264,330.393 515.097,329.393 517.5,329.5 Z"/></g>
<g><path style="opacity:1" fill="#7b4b23" d="M 339.5,322.5 C 338.782,335.356 342.782,346.356 351.5,355.5C 342.469,349.787 337.803,341.453 337.5,330.5C 337.382,327.514 338.048,324.848 339.5,322.5 Z"/></g>
<g><path style="opacity:0.996" fill="#eb7c18" d="M 517.5,325.5 C 517.5,326.833 517.5,328.167 517.5,329.5C 515.097,329.393 513.264,330.393 512,332.5C 509.667,335.5 507.333,338.5 505,341.5C 504.51,342.793 504.343,344.127 504.5,345.5C 501.811,347.815 502.145,349.815 505.5,351.5C 507.664,353.822 509.331,356.489 510.5,359.5C 512.673,363.852 515.34,367.852 518.5,371.5C 519.338,371.842 519.672,372.508 519.5,373.5C 521.425,377.693 523.092,382.026 524.5,386.5C 520.679,381.846 516.679,377.346 512.5,373C 513.205,369.715 511.872,367.215 508.5,365.5C 504.294,358.152 500.294,350.819 496.5,343.5C 497.557,343.094 498.891,343.094 500.5,343.5C 500.67,342.178 500.337,341.011 499.5,340C 501.677,338.798 504.011,338.298 506.5,338.5C 506.34,336.801 506.506,335.134 507,333.5C 507.414,333.957 507.914,334.291 508.5,334.5C 510.276,332.061 511.61,329.394 512.5,326.5C 513.086,326.709 513.586,327.043 514,327.5C 514.816,326.177 515.983,325.511 517.5,325.5 Z"/></g>
<g><path style="opacity:1" fill="#f18514" d="M 139.5,334.5 C 139.833,334.5 140.167,334.5 140.5,334.5C 140.5,335.167 140.5,335.833 140.5,336.5C 139.224,338.562 138.39,340.896 138,343.5C 137.181,349.681 137.347,355.681 138.5,361.5C 139.832,365.162 141.165,368.828 142.5,372.5C 143.183,376.02 145.183,378.52 148.5,380C 151.598,380.918 154.765,381.418 158,381.5C 160.866,381.7 163.366,381.033 165.5,379.5C 166.833,379.5 168.167,379.5 169.5,379.5C 169.586,380.496 169.252,381.329 168.5,382C 158.605,384.753 149.439,383.253 141,377.5C 139.367,374.319 138.034,370.986 137,367.5C 135.436,357.847 135.102,348.181 136,338.5C 131.634,343.201 126.967,347.534 122,351.5C 118.069,358.332 115.402,365.665 114,373.5C 113.176,367.384 113.676,361.384 115.5,355.5C 120.115,349.045 124.948,342.712 130,336.5C 131.205,334.466 131.372,332.466 130.5,330.5C 126.967,331.968 124.134,334.301 122,337.5C 118.535,341.232 116.202,345.565 115,350.5C 112.142,352.427 110.475,355.094 110,358.5C 109.617,357.944 109.117,357.611 108.5,357.5C 108.5,353.833 108.5,350.167 108.5,346.5C 109.222,346.082 109.722,345.416 110,344.5C 111.163,346.285 111.83,348.285 112,350.5C 116.194,341.487 122.027,333.821 129.5,327.5C 134.763,321.311 138.097,314.311 139.5,306.5C 140.969,308.192 141.635,310.192 141.5,312.5C 140.323,322.519 136.657,331.519 130.5,339.5C 131.002,340.521 131.668,340.688 132.5,340C 134.7,337.214 137.034,335.381 139.5,334.5 Z"/></g>
<g><path style="opacity:1" fill="#673e1b" d="M 399.5,340.5 C 403.582,341.376 407.249,343.043 410.5,345.5C 406.414,344.745 402.747,343.079 399.5,340.5 Z"/></g>
<g><path style="opacity:0.047" fill="#3e1705" d="M 504.5,345.5 C 504.517,347.565 504.85,349.565 505.5,351.5C 502.145,349.815 501.811,347.815 504.5,345.5 Z"/></g>
<g><path style="opacity:0.306" fill="#351909" d="M 108.5,334.5 C 108.5,337.167 108.5,339.833 108.5,342.5C 105.926,353.704 106.093,365.038 109,376.5C 109.67,379.174 110.837,381.507 112.5,383.5C 112.5,384.5 112.5,385.5 112.5,386.5C 110.163,384.035 108.663,381.035 108,377.5C 104.513,362.972 104.68,348.639 108.5,334.5 Z"/></g>
<g><path style="opacity:0.165" fill="#271002" d="M 140.5,336.5 C 138.95,344.752 138.283,353.085 138.5,361.5C 137.347,355.681 137.181,349.681 138,343.5C 138.39,340.896 139.224,338.562 140.5,336.5 Z"/></g>
<g><path style="opacity:0.137" fill="#2c1001" d="M 414.5,349.5 C 417.908,350.578 419.908,352.911 420.5,356.5C 418.529,354.192 416.529,351.858 414.5,349.5 Z"/></g>
<g><path style="opacity:0.294" fill="#3b180b" d="M 258.5,344.5 C 259.33,352.99 259.83,361.657 260,370.5C 260.608,372.154 261.108,373.821 261.5,375.5C 260.25,375.423 259.417,374.756 259,373.5C 258.506,371.866 258.34,370.199 258.5,368.5C 258.5,360.5 258.5,352.5 258.5,344.5 Z"/></g>
<g><path style="opacity:1" fill="#a9672f" d="M 322.5,296.5 C 322.833,296.5 323.167,296.5 323.5,296.5C 323.5,335.167 323.5,373.833 323.5,412.5C 312.209,413.792 300.876,413.792 289.5,412.5C 289.357,410.738 289.691,409.071 290.5,407.5C 290.043,406.702 289.376,406.369 288.5,406.5C 289.221,404.618 290.221,404.285 291.5,405.5C 291.5,407.5 291.5,409.5 291.5,411.5C 301.833,411.5 312.167,411.5 322.5,411.5C 322.5,373.167 322.5,334.833 322.5,296.5 Z"/></g>
<g><path style="opacity:0.98" fill="#c87227" d="M 410.5,345.5 C 412.167,346.5 413.5,347.833 414.5,349.5C 416.529,351.858 418.529,354.192 420.5,356.5C 422.446,358.734 423.613,361.401 424,364.5C 424.667,370.833 424.667,377.167 424,383.5C 423.768,384.737 423.268,385.737 422.5,386.5C 422.666,379.825 422.5,373.158 422,366.5C 421.363,364.697 420.197,363.364 418.5,362.5C 415.546,356.927 412.879,351.261 410.5,345.5 Z"/></g>
<g><path style="opacity:0.537" fill="#311304" d="M 510.5,359.5 C 514.156,362.803 516.822,366.803 518.5,371.5C 515.34,367.852 512.673,363.852 510.5,359.5 Z"/></g>
<g><path style="opacity:1" fill="#cc7e36" d="M 108.5,342.5 C 108.5,343.833 108.5,345.167 108.5,346.5C 108.5,350.167 108.5,353.833 108.5,357.5C 108.538,366.395 109.872,375.062 112.5,383.5C 110.837,381.507 109.67,379.174 109,376.5C 106.093,365.038 105.926,353.704 108.5,342.5 Z"/></g>
<g><path style="opacity:1" fill="#aa6428" d="M 351.5,355.5 C 361.692,358.998 372.025,362.498 382.5,366C 384.584,366.697 386.251,367.864 387.5,369.5C 386.833,369.5 386.167,369.5 385.5,369.5C 375.299,366.615 365.299,363.115 355.5,359C 353.907,358.051 352.574,356.885 351.5,355.5 Z"/></g>
<g><path style="opacity:1" fill="#6f4220" d="M 363.5,379.5 C 362.022,379.762 360.689,379.429 359.5,378.5C 356.434,375.765 353.101,373.431 349.5,371.5C 347.839,373.827 345.839,375.827 343.5,377.5C 344.412,375.405 345.579,373.405 347,371.5C 347.956,370.106 349.289,369.439 351,369.5C 355.032,373.035 359.198,376.368 363.5,379.5 Z"/></g>
<g><path style="opacity:0.984" fill="#663716" d="M 261.5,375.5 C 264.796,378.312 268.463,380.312 272.5,381.5C 269.027,381.424 265.694,380.758 262.5,379.5C 262.167,378.167 261.833,376.833 261.5,375.5 Z"/></g>
<g><path style="opacity:1" fill="#cb7527" d="M 363.5,379.5 C 370.535,382.842 377.868,383.842 385.5,382.5C 389.459,380.927 391.125,377.927 390.5,373.5C 392.054,376.985 391.387,380.152 388.5,383C 385.246,384.842 381.746,385.675 378,385.5C 367.792,384.542 358.458,381.209 350,375.5C 344.333,379.833 339.333,384.833 335,390.5C 334.333,391.833 334.333,393.167 335,394.5C 337.054,397.047 338.887,399.714 340.5,402.5C 338.596,402.262 337.262,401.262 336.5,399.5C 334.8,397.79 333.467,395.79 332.5,393.5C 334.098,389.908 336.098,386.574 338.5,383.5C 339.443,380.891 341.11,378.891 343.5,377.5C 345.839,375.827 347.839,373.827 349.5,371.5C 353.101,373.431 356.434,375.765 359.5,378.5C 360.689,379.429 362.022,379.762 363.5,379.5 Z"/></g>
<g><path style="opacity:0.976" fill="#a9642a" d="M 142.5,372.5 C 146.19,376.003 150.523,378.503 155.5,380C 158.849,380.388 162.183,380.221 165.5,379.5C 163.366,381.033 160.866,381.7 158,381.5C 154.765,381.418 151.598,380.918 148.5,380C 145.183,378.52 143.183,376.02 142.5,372.5 Z"/></g>
<g><path style="opacity:0.192" fill="#301101" d="M 385.5,369.5 C 386.167,369.5 386.833,369.5 387.5,369.5C 388.5,370.833 389.5,372.167 390.5,373.5C 391.125,377.927 389.459,380.927 385.5,382.5C 387.596,380.646 388.929,378.313 389.5,375.5C 388.568,373.235 387.235,371.235 385.5,369.5 Z"/></g>
<g><path style="opacity:0.345" fill="#381908" d="M 223.5,379.5 C 223.833,379.5 224.167,379.5 224.5,379.5C 225.255,386.768 227.589,393.434 231.5,399.5C 230.504,399.586 229.671,399.252 229,398.5C 225.455,392.652 223.622,386.319 223.5,379.5 Z"/></g>
<g><path style="opacity:0.004" fill="#2b1305" d="M 481.5,377.5 C 482.376,377.369 483.043,377.702 483.5,378.5C 485.557,382.201 487.557,385.867 489.5,389.5C 485.855,386.226 483.188,382.226 481.5,377.5 Z"/></g>
<g><path style="opacity:0.976" fill="#a05e26" d="M 519.5,373.5 C 524.669,378.679 528.669,384.679 531.5,391.5C 528.3,390.956 525.967,389.29 524.5,386.5C 523.092,382.026 521.425,377.693 519.5,373.5 Z"/></g>
<g><path style="opacity:1" fill="#492f1a" d="M 338.5,383.5 C 336.098,386.574 334.098,389.908 332.5,393.5C 333.467,395.79 334.8,397.79 336.5,399.5C 333.494,398.361 331.494,396.194 330.5,393C 332.319,389.022 334.986,385.856 338.5,383.5 Z"/></g>
<g><path style="opacity:0.063" fill="#2f1506" d="M 115.5,392.5 C 118.516,395.52 121.183,398.854 123.5,402.5C 119.755,400.082 117.088,396.749 115.5,392.5 Z"/></g>
<g><path style="opacity:0.137" fill="#311504" d="M 533.5,393.5 C 536.952,397.299 539.618,401.632 541.5,406.5C 538.067,402.632 535.4,398.299 533.5,393.5 Z"/></g>
<g><path style="opacity:0.984" fill="#4b2c15" d="M 422.5,386.5 C 420.927,396.401 415.594,403.401 406.5,407.5C 407.353,405.107 409.019,403.774 411.5,403.5C 411.5,402.5 411.5,401.5 411.5,400.5C 413.903,400.607 415.736,399.607 417,397.5C 418.879,393.741 420.713,390.075 422.5,386.5 Z"/></g>
<g><path style="opacity:0.047" fill="#301503" d="M 495.5,399.5 C 497.95,401.629 499.617,404.296 500.5,407.5C 497.836,405.516 496.169,402.849 495.5,399.5 Z"/></g>
<g><path style="opacity:0.855" fill="#47230e" d="M 235.5,404.5 C 237.749,405.08 239.415,406.413 240.5,408.5C 238.251,407.92 236.585,406.587 235.5,404.5 Z"/></g>
<g><path style="opacity:0.067" fill="#210e04" d="M 472.5,376.5 C 472.211,388.832 471.211,400.832 469.5,412.5C 469.5,412.167 469.5,411.833 469.5,411.5C 470.495,400.346 470.828,389.012 470.5,377.5C 471.167,377.167 471.833,376.833 472.5,376.5 Z"/></g>
<g><path style="opacity:0.263" fill="#381909" d="M 123.5,402.5 C 126.089,403.419 128.089,405.086 129.5,407.5C 126.911,406.581 124.911,404.914 123.5,402.5 Z"/></g>
<g><path style="opacity:0.992" fill="#d37623" d="M 112.5,386.5 C 116.094,388.262 119.261,390.595 122,393.5C 127.141,405.961 136.474,411.961 150,411.5C 154.47,410.736 158.97,410.403 163.5,410.5C 162.449,411.222 161.782,412.222 161.5,413.5C 161.167,413.5 160.833,413.5 160.5,413.5C 155.167,413.5 149.833,413.5 144.5,413.5C 138.801,413.049 133.801,411.049 129.5,407.5C 128.089,405.086 126.089,403.419 123.5,402.5C 121.183,398.854 118.516,395.52 115.5,392.5C 113.755,390.967 112.755,388.967 112.5,386.5 Z"/></g>
<g><path style="opacity:1" fill="#935523" d="M 171.5,408.5 C 171.833,408.5 172.167,408.5 172.5,408.5C 169.56,411.492 165.893,413.159 161.5,413.5C 161.782,412.222 162.449,411.222 163.5,410.5C 166.327,410.416 168.994,409.75 171.5,408.5 Z"/></g>
<g><path style="opacity:0.992" fill="#633b19" d="M 240.5,408.5 C 243.01,408.927 245.343,409.593 247.5,410.5C 249.072,411.687 250.739,412.687 252.5,413.5C 247.768,413.373 243.768,411.707 240.5,408.5 Z"/></g>
<g><path style="opacity:1" fill="#bb6b27" d="M 340.5,402.5 C 347.557,405.508 354.891,408.341 362.5,411C 377.405,413.03 392.072,411.863 406.5,407.5C 401.961,411.24 396.627,413.24 390.5,413.5C 380.764,414.984 371.097,414.651 361.5,412.5C 353.545,411.021 346.545,407.688 340.5,402.5 Z"/></g>
<g><path style="opacity:1" fill="#734526" d="M 541.5,406.5 C 543.054,407.914 544.388,409.581 545.5,411.5C 544.975,412.192 544.308,412.692 543.5,413C 530.5,413.667 517.5,413.667 504.5,413C 502.186,411.913 500.852,410.079 500.5,407.5C 502.026,408.105 503.026,409.271 503.5,411C 516.162,411.5 528.829,411.667 541.5,411.5C 541.5,409.833 541.5,408.167 541.5,406.5 Z"/></g>
<g><path style="opacity:0.992" fill="#c2742d" d="M 288.5,406.5 C 284.429,410.701 279.429,413.034 273.5,413.5C 266.5,414.833 259.5,414.833 252.5,413.5C 250.739,412.687 249.072,411.687 247.5,410.5C 257.36,412.329 267.36,412.996 277.5,412.5C 277.527,410.801 278.194,409.467 279.5,408.5C 282.426,407.539 285.426,406.873 288.5,406.5 Z"/></g>
<g><path style="opacity:0.027" fill="#371909" d="M 144.5,413.5 C 149.833,413.5 155.167,413.5 160.5,413.5C 158.366,415.033 155.866,415.7 153,415.5C 149.85,415.64 147.017,414.973 144.5,413.5 Z"/></g>
<g><path style="opacity:0.024" fill="#300c03" d="M 252.5,413.5 C 259.5,414.833 266.5,414.833 273.5,413.5C 273.082,414.222 272.416,414.722 271.5,415C 265.833,415.667 260.167,415.667 254.5,415C 253.584,414.722 252.918,414.222 252.5,413.5 Z"/></g>
<g><path style="opacity:0.024" fill="#321004" d="M 361.5,412.5 C 371.097,414.651 380.764,414.984 390.5,413.5C 386.797,415.055 382.797,415.722 378.5,415.5C 372.465,415.865 366.798,414.865 361.5,412.5 Z"/></g>
</svg>
