<?xml version="1.0" encoding="UTF-8"?>
<svg version="1.1" xmlns="http://www.w3.org/2000/svg" width="512" height="512">
<path d="M0 0 C0.69996094 0.55558594 1.39992188 1.11117187 2.12109375 1.68359375 C5.9033583 4.79195816 9.1077994 8.23078958 12.26953125 11.96484375 C13.34500867 13.22968289 14.44309289 14.47607748 15.57421875 15.69140625 C33.00405588 34.55614523 45.34968805 58.31027233 52 83 C52.25394531 83.90782227 52.50789063 84.81564453 52.76953125 85.75097656 C59.84895957 111.95393755 59.54534677 141.70566938 53 168 C52.81808105 168.76070801 52.63616211 169.52141602 52.44873047 170.30517578 C45.52326755 198.57022416 30.31223283 222.73813543 10.38574219 243.55126953 C9.14634371 244.8470043 7.91992768 246.1551282 6.6953125 247.46484375 C-2.86745795 257.43044153 -14.07168647 265.13428465 -26 272 C-26.56912109 272.33241699 -27.13824219 272.66483398 -27.72460938 273.00732422 C-40.95318633 280.67505376 -55.01868913 285.81283745 -69.75 289.8125 C-70.45672852 290.00739014 -71.16345703 290.20228027 -71.89160156 290.40307617 C-84.42297297 293.6239282 -97.17813012 294.41403612 -110.0625 294.375 C-111.1350856 294.37368576 -111.1350856 294.37368576 -112.2293396 294.37234497 C-157.44708809 294.19083839 -197.76741796 273.76004926 -229.625 242.5625 C-260.81072973 210.93938276 -275.40382598 169.18993421 -275.5625 125.3125 C-275.56612549 124.41736694 -275.56975098 123.52223389 -275.57348633 122.59997559 C-275.56619013 106.19010141 -273.33345887 91.60624133 -268 76 C-267.67402832 75.02144043 -267.34805664 74.04288086 -267.01220703 73.03466797 C-258.71649844 48.56212035 -245.68337042 26.99983248 -227 9 C-225.79730469 7.79537109 -225.79730469 7.79537109 -224.5703125 6.56640625 C-163.1023421 -54.80814778 -65.72820887 -52.70914137 0 0 Z M-141 -16.4375 C-141.5765332 -15.88336426 -142.15306641 -15.32922852 -142.74707031 -14.75830078 C-145.82403934 -11.66379654 -147.77324031 -9.55031117 -148 -5 C-147.9949542 -3.64520186 -147.9556603 -2.2899043 -147.875 -0.9375 C-148 3 -148 3 -149 5.3125 C-151.96652149 7.81550251 -155.32968689 8.84921299 -159 10 C-158.67 10.99 -158.34 11.98 -158 13 C-155.41746351 14.32600673 -155.41746351 14.32600673 -152.19140625 15.41796875 C-150.97718994 15.86430664 -149.76297363 16.31064453 -148.51196289 16.77050781 C-147.19551231 17.2429418 -145.87902396 17.71527055 -144.5625 18.1875 C-141.90335718 19.15760277 -139.24777141 20.13707264 -136.59375 21.12109375 C-135.60913536 21.48534958 -135.60913536 21.48534958 -134.60462952 21.85696411 C-128.40115428 24.17639895 -122.38113326 26.84267616 -116.45727539 29.80151367 C-112.07881031 31.89251668 -109.67486112 32.08070216 -105 31 C-103.19058039 30.31112454 -101.40567163 29.55500786 -99.6484375 28.7421875 C-98.64103516 28.28448975 -97.63363281 27.82679199 -96.59570312 27.35522461 C-95.53287109 26.86675049 -94.47003906 26.37827637 -93.375 25.875 C-84.36114703 21.80061658 -75.344751 18.15056243 -65.93115234 15.10693359 C-63.93767169 14.45271214 -61.96590194 13.73293953 -60 13 C-59.505 12.01 -59.505 12.01 -59 11 C-60.08514504 8.56143796 -61.22246861 6.27325749 -62.5 3.9375 C-62.86730225 3.25937256 -63.23460449 2.58124512 -63.61303711 1.88256836 C-66.60187859 -3.51615135 -69.98121166 -8.31296048 -74 -13 C-74.50660156 -13.66128906 -75.01320313 -14.32257813 -75.53515625 -15.00390625 C-81.89201057 -22.98511646 -90.94531611 -29.84542488 -101 -32 C-118.45927801 -33.43936232 -128.76837679 -28.36483734 -141 -16.4375 Z M-211 4 C-212.34434151 5.65780019 -213.67903997 7.32350957 -215 9 C-214.01306152 8.99476318 -213.02612305 8.98952637 -212.00927734 8.98413086 C-208.27800436 8.9657591 -204.54673518 8.95445293 -200.81542969 8.94506836 C-199.21353478 8.9401005 -197.61164426 8.93332392 -196.00976562 8.92456055 C-185.94950984 8.87098149 -176.02842329 9.10131224 -166 10 C-163.6253966 6.4380949 -163.91464898 5.22733912 -164.1875 1.0625 C-164.2772189 -4.66570662 -164.2772189 -4.66570662 -161.875 -7.5625 C-159 -9 -159 -9 -156.28125 -10.12109375 C-151.93817771 -12.60801967 -148.97660886 -15.82652474 -145.625 -19.5 C-144.98433594 -20.17675781 -144.34367187 -20.85351562 -143.68359375 -21.55078125 C-139.96114877 -25.16942192 -139.96114877 -25.16942192 -139 -30 C-163.56319008 -31.69401311 -194.05548673 -12.46222162 -211 4 Z M-81 -30 C-77.79285423 -25.49741888 -74.42232002 -21.33357892 -70.625 -17.3125 C-66.32751742 -12.61777113 -63.09585068 -7.60813722 -59.86328125 -2.140625 C-57.3977616 2.01509366 -54.7120608 6.00327882 -52 10 C-51.11368896 9.9285376 -50.22737793 9.8570752 -49.31420898 9.78344727 C-39.54550068 9.0563348 -29.85487787 8.8781251 -20.0625 8.9375 C-18.58919426 8.942535 -17.11588682 8.9470943 -15.64257812 8.95117188 C-12.0950156 8.96199623 -8.54751948 8.97914545 -5 9 C-4.68116037 6.02679588 -4.68116037 6.02679588 -6.37109375 4.34375 C-27.48526438 -14.49535877 -53.4291592 -25.12756693 -81 -30 Z M-49 17 C-48.71801758 17.89493164 -48.43603516 18.78986328 -48.14550781 19.71191406 C-36.52551495 56.77978647 -36.52551495 56.77978647 -34.421875 74.8203125 C-33.12734443 85.31456897 -30.85327889 91.41293396 -23 99 C-21.72962891 100.28970703 -21.72962891 100.28970703 -20.43359375 101.60546875 C-18.75703517 103.29738512 -17.06729469 104.97636304 -15.36328125 106.640625 C-12.58546971 109.41384512 -10.0131089 112.31872441 -7.47265625 115.30859375 C-6.04541597 116.94783789 -4.55487662 118.48225476 -3 120 C1.75870417 118.41376528 3.20205039 114.36992247 5.6875 110.1875 C6.21915771 109.29546875 6.75081543 108.4034375 7.29858398 107.484375 C18.50769463 88.1593736 27.10041007 64.68143741 24 42 C21.38857598 32.32957043 15.49529907 25.01527579 7.06640625 19.8046875 C-9.80126119 10.64116596 -31.18451055 10.89014598 -49 17 Z M-230 24 C-230.95132813 24.78697266 -230.95132813 24.78697266 -231.921875 25.58984375 C-238.13945058 31.23614636 -242.14520576 38.23230724 -242.62890625 46.69921875 C-242.63931081 48.69540811 -242.61623284 50.69200682 -242.5625 52.6875 C-242.54517822 53.74332275 -242.52785645 54.79914551 -242.51000977 55.88696289 C-242.25177487 64.47573724 -240.98605258 71.90010887 -238 80 C-237.77989258 80.63325195 -237.55978516 81.26650391 -237.33300781 81.91894531 C-233.97154163 91.49701424 -229.38148502 100.28036144 -224.3125 109.0625 C-223.75377197 110.04549072 -223.19504395 111.02848145 -222.61938477 112.04125977 C-222.08112061 112.94674561 -221.54285645 113.85223145 -220.98828125 114.78515625 C-220.50915283 115.59863525 -220.03002441 116.41211426 -219.53637695 117.25024414 C-219.02937256 117.82766357 -218.52236816 118.40508301 -218 119 C-213.90501451 119.45135496 -213.90501451 119.45135496 -211.4140625 116.62109375 C-210.47304991 115.56992527 -209.54387728 114.508072 -208.625 113.4375 C-208.13749268 112.88827881 -207.64998535 112.33905762 -207.14770508 111.77319336 C-204.61473274 108.90823565 -202.14328104 105.99380363 -199.6875 103.0625 C-197.84597078 100.86642349 -196.21094316 99.35587196 -193.9375 97.5 C-187.46653731 91.99279771 -185.62475162 87.64615193 -184.578125 79.234375 C-182.56439779 63.48359393 -178.81066548 48.0871699 -173.69775391 33.07763672 C-172.61078336 29.84106593 -171.61992477 26.57852512 -170.625 23.3125 C-170.30789062 22.27738281 -169.99078125 21.24226563 -169.6640625 20.17578125 C-169.44492188 19.45777344 -169.22578125 18.73976563 -169 18 C-171.77268154 14.96325355 -173.76530332 14.07412679 -177.94824219 13.82299805 C-205.63315986 12.53031576 -205.63315986 12.53031576 -230 24 Z M-100 35 C-98.67543617 38.09869396 -97.51171965 39.64473477 -94.6484375 41.41015625 C-93.97031006 41.8366748 -93.29218262 42.26319336 -92.59350586 42.70263672 C-91.86139893 43.1513916 -91.12929199 43.60014648 -90.375 44.0625 C-88.82053652 45.04386736 -87.26717597 46.02698362 -85.71484375 47.01171875 C-84.53124268 47.75881104 -84.53124268 47.75881104 -83.32373047 48.52099609 C-73.24542453 54.93561864 -63.7394452 61.86395495 -54.54272461 69.48657227 C-49.89111546 73.33011978 -45.12915146 76.81362562 -40 80 C-39.83518784 73.64205397 -40.32333499 67.90420203 -41.625 61.6875 C-41.8003125 60.8330127 -41.975625 59.97852539 -42.15625 59.09814453 C-44.19208141 49.55867082 -46.95074915 40.25965166 -50 31 C-50.54333984 29.33130859 -50.54333984 29.33130859 -51.09765625 27.62890625 C-52.42673052 23.92148854 -53.39097225 21.55964712 -56.3125 18.875 C-70.53662088 14.24389088 -88.13008993 28.36634898 -100 35 Z M-162 19 C-167.37957532 24.2965287 -168.7719814 29.91535268 -170.5625 37.125 C-170.85842041 38.27411865 -171.15434082 39.4232373 -171.45922852 40.60717773 C-173.2631215 47.72650913 -174.94560104 54.87117283 -176.4375 62.0625 C-176.6012915 62.83932129 -176.76508301 63.61614258 -176.93383789 64.41650391 C-177.96037408 69.68387832 -178.13294513 74.63433466 -178 80 C-174.64849286 78.39461928 -172.09270802 76.53512202 -169.25 74.125 C-153.6455532 61.21736393 -137.02602654 49.1564402 -119.3984375 39.15600586 C-118.93695313 38.77452393 -118.47546875 38.39304199 -118 38 C-118 37.01 -118 36.02 -118 35 C-131.64363473 27.6773967 -146.45175017 20.71205448 -162 19 Z M-119 45 C-119.86367187 45.54269531 -120.72734375 46.08539063 -121.6171875 46.64453125 C-124.60625665 48.55671658 -127.55592266 50.5192859 -130.5 52.5 C-131.55936768 53.21051514 -132.61873535 53.92103027 -133.71020508 54.65307617 C-145.5264669 62.63136304 -156.93225554 70.97963226 -167.68432617 80.35107422 C-170.34462661 82.66221286 -172.96149544 84.66013819 -176 86.4375 C-181.4018159 91.05155108 -183.53180298 96.48697618 -184.25439453 103.45214844 C-185.04105526 117.06951684 -183.77592649 130.74734048 -182.625 144.3125 C-182.53085815 145.44186981 -182.53085815 145.44186981 -182.43481445 146.59405518 C-182.25090923 148.74740635 -182.0539658 150.89909777 -181.8515625 153.05078125 C-181.73635254 154.29512939 -181.62114258 155.53947754 -181.50244141 156.8215332 C-180.59433118 162.56627909 -178.46267507 164.71132582 -173.9375 168.25 C-170.42427579 171.01219063 -167.04670884 173.83853872 -163.73046875 176.8359375 C-159.13181783 180.94882559 -154.32526248 184.69709218 -149.375 188.375 C-148.50762207 189.02202881 -147.64024414 189.66905762 -146.74658203 190.33569336 C-139.3316144 195.8283378 -131.76941509 201.02460395 -124 206 C-123.05511719 206.6290625 -122.11023438 207.258125 -121.13671875 207.90625 C-114.10386316 212.52186766 -114.10386316 212.52186766 -106 213 C-101.68278759 211.16906954 -97.87577622 208.6094335 -94 206 C-93.29907227 205.53722656 -92.59814453 205.07445312 -91.87597656 204.59765625 C-76.46115023 194.40494155 -61.73591258 183.40075371 -47.734375 171.33984375 C-45.93828291 169.80290209 -44.1102629 168.30236523 -42.25 166.84375 C-38.20332842 163.52772745 -36.81468338 160.04908247 -36 155 C-35.91259109 153.26892128 -35.87216272 151.53504124 -35.87060547 149.80175781 C-35.86587723 148.28427948 -35.86587723 148.28427948 -35.86105347 146.73614502 C-35.8630777 145.65274841 -35.86510193 144.56935181 -35.8671875 143.453125 C-35.86623077 142.32735046 -35.86527405 141.20157593 -35.86428833 140.04168701 C-35.86360845 137.66125431 -35.86544933 135.28081975 -35.86962891 132.90039062 C-35.87495983 129.27730073 -35.86968769 125.65433594 -35.86328125 122.03125 C-35.86394246 119.7135414 -35.8652245 117.39583287 -35.8671875 115.078125 C-35.86415115 113.46517548 -35.86415115 113.46517548 -35.86105347 111.81964111 C-35.45521981 99.722879 -35.45521981 99.722879 -40 89 C-42.25015365 86.86502008 -42.25015365 86.86502008 -44.875 84.875 C-46.35613281 83.70130859 -46.35613281 83.70130859 -47.8671875 82.50390625 C-48.64400879 81.88926514 -48.64400879 81.88926514 -49.43652344 81.26220703 C-51.48397872 79.60928014 -53.46552205 77.88244202 -55.45019531 76.1550293 C-67.27762945 65.90943063 -80.00105166 56.75674493 -93.125 48.25 C-93.88184082 47.74863525 -94.63868164 47.24727051 -95.41845703 46.73071289 C-103.95876828 41.32122137 -110.24365732 39.2722848 -119 45 Z M-251 53 C-262.6729099 77.62849128 -268.3202914 101.69113049 -268.4375 128.8125 C-268.44394531 129.64194122 -268.45039063 130.47138245 -268.45703125 131.32595825 C-268.52846561 146.365682 -266.72556835 160.29081938 -261.6875 174.5625 C-261.38553711 175.43874023 -261.08357422 176.31498047 -260.77246094 177.21777344 C-259.86626643 179.818694 -258.93869614 182.41064977 -258 185 C-257.71656738 185.78552246 -257.43313477 186.57104492 -257.14111328 187.38037109 C-254.83136517 193.80279054 -254.83136517 193.80279054 -252 200 C-251.01 200.33 -250.02 200.66 -249 201 C-248.91024902 200.42781738 -248.82049805 199.85563477 -248.72802734 199.26611328 C-244.61533709 173.61173532 -236.58445005 152.18414572 -221.51953125 130.8828125 C-219.7769127 128.14825419 -219.7769127 128.14825419 -220.07421875 125.32421875 C-221.07803637 122.80408592 -222.06339166 121.56583078 -224 119.6875 C-240.35599634 101.78658409 -245.54489238 76.1855906 -249 53 C-249.66 53 -250.32 53 -251 53 Z M31 53 C30.76216797 54.77890625 30.76216797 54.77890625 30.51953125 56.59375 C27.04395447 81.24830237 18.44234537 103.09486299 3.63671875 123.2109375 C1.80301773 125.76095548 1.80301773 125.76095548 2.08203125 128.08203125 C4.07524533 132.24657641 6.53962498 136.09871091 9 140 C9.53625 140.85207031 10.0725 141.70414062 10.625 142.58203125 C14.57976307 148.72291018 14.57976307 148.72291018 21.0625 152 C24 153 24 153 26 155 C26.23046875 156.875 26.23046875 156.875 26.1875 159 C26.18105469 159.70125 26.17460937 160.4025 26.16796875 161.125 C26 163 26 163 25 165 C25.44021674 171.60325106 26.80070734 177.88443302 28.234375 184.3359375 C29.38791381 189.85644464 30.21173701 195.41724331 31 201 C34.09375411 200.34252775 34.09375411 200.34252775 35.08740234 198.06079102 C35.41691895 197.21701904 35.74643555 196.37324707 36.0859375 195.50390625 C36.45710693 194.56135986 36.82827637 193.61881348 37.21069336 192.64770508 C37.59491455 191.6295874 37.97913574 190.61146973 38.375 189.5625 C38.77275635 188.52440186 39.1705127 187.48630371 39.58032227 186.41674805 C41.94991382 180.11700791 44.12559874 173.79528597 45.9375 167.3125 C46.12425293 166.64484619 46.31100586 165.97719238 46.50341797 165.28930664 C47.05354088 163.20135181 47.5393439 161.10951431 48 159 C48.18473877 158.16976318 48.36947754 157.33952637 48.55981445 156.48413086 C50.25139585 147.82783316 50.33852893 139.26150103 50.31567383 130.47583008 C50.31253546 127.965857 50.33597634 125.45709215 50.36132812 122.94726562 C50.44553277 101.48677179 45.95990261 82.35318528 37.875 62.5625 C37.53831299 61.72654297 37.20162598 60.89058594 36.85473633 60.02929688 C36.52884521 59.25779297 36.2029541 58.48628906 35.8671875 57.69140625 C35.43575439 56.65802124 35.43575439 56.65802124 34.99560547 55.60375977 C34.02048733 53.65171001 34.02048733 53.65171001 31 53 Z M-196 107 C-205.73584556 116.76979347 -205.73584556 116.76979347 -211 129 C-209.31073068 131.4080428 -207.65454127 133.46438804 -205.6875 135.625 C-205.14440186 136.23875488 -204.60130371 136.85250977 -204.04174805 137.48486328 C-199.2482248 142.85075795 -194.32417595 148.15578121 -189 153 C-188.67 153 -188.34 153 -188 153 C-188 135.84 -188 118.68 -188 101 C-190.80475636 101 -194.06614574 105.19712392 -196 107 Z M-30 101 C-30 118.16 -30 135.32 -30 153 C-26.44251253 151.22125627 -25.2721643 150.47991427 -22.875 147.625 C-22.28074219 146.91859375 -21.68648437 146.2121875 -21.07421875 145.484375 C-20.38972656 144.66453125 -19.70523438 143.8446875 -19 143 C-18.14019531 142.01515625 -17.28039062 141.0303125 -16.39453125 140.015625 C-15.49168614 138.96918235 -14.5893402 137.92230882 -13.6875 136.875 C-12.42486328 135.41707031 -12.42486328 135.41707031 -11.13671875 133.9296875 C-8.98384851 130.97785444 -7.94196551 128.50765059 -7 125 C-7.56847656 124.3709375 -8.13695312 123.741875 -8.72265625 123.09375 C-9.49480469 122.2378125 -10.26695312 121.381875 -11.0625 120.5 C-11.88621094 119.58734375 -12.70992188 118.6746875 -13.55859375 117.734375 C-16.12491397 114.86009636 -18.62972861 111.94011288 -21.1015625 108.984375 C-23.85644244 106.10478856 -26.97425226 103.59349806 -30 101 Z M-217 134 C-218.64401089 136.15432654 -220.14734479 138.29689153 -221.625 140.5625 C-222.0694043 141.24143311 -222.51380859 141.92036621 -222.97167969 142.61987305 C-233.9071962 159.56914085 -242.14030894 177.2164057 -242.25 197.6875 C-242.270625 198.63044922 -242.29125 199.57339844 -242.3125 200.54492188 C-242.37020095 211.03928148 -239.83292576 219.9063294 -233 228 C-224.49857912 236.36828901 -212.33458765 240.39814535 -200.6015625 240.3671875 C-196.8900245 239.84333679 -195.55966948 237.62530203 -193 235 C-189.5728409 234.31795025 -186.42890901 234.33180235 -183 235 C-181.64691687 236.31328657 -180.31129922 237.64499081 -179 239 C-176.09162295 239.17004624 -173.89697668 238.65415603 -171 238 C-170.34 237.34 -169.68 236.68 -169 236 C-169.21615967 235.32759277 -169.43231934 234.65518555 -169.6550293 233.96240234 C-173.3762899 222.3172782 -177.05193396 210.68110788 -179.75 198.75 C-179.94972412 197.86771729 -180.14944824 196.98543457 -180.35522461 196.07641602 C-181.36395094 191.44388791 -182.20025334 186.82195499 -182.875 182.12890625 C-184.5522254 170.72453333 -186.20551942 163.12115316 -195 155 C-196.70963583 153.27212111 -198.41796815 151.5429515 -200.125 149.8125 C-200.95386719 149.00296875 -201.78273437 148.1934375 -202.63671875 147.359375 C-205.41453029 144.58615488 -207.9868911 141.68127559 -210.52734375 138.69140625 C-211.96424735 137.04106339 -213.36539029 135.45645061 -215 134 C-215.66 134 -216.32 134 -217 134 Z M-4 134 C-5.76204462 135.92168285 -7.41899677 137.85563083 -9.0625 139.875 C-10.05739264 141.0739144 -11.05350168 142.27182036 -12.05078125 143.46875 C-12.79642334 144.3659375 -12.79642334 144.3659375 -13.55712891 145.28125 C-18.58687108 151.27268568 -23.83012001 157.03526403 -29.58984375 162.33203125 C-32.51179832 165.78819358 -33.28435681 169.90443926 -33.89453125 174.2890625 C-34.04253174 175.30307129 -34.19053223 176.31708008 -34.34301758 177.36181641 C-34.49794678 178.43866699 -34.65287598 179.51551758 -34.8125 180.625 C-37.71797162 199.63989527 -43.29308435 217.66217351 -49 236 C-46.15867608 239.1119262 -44.15437052 239.9465153 -39.86474609 240.14526367 C-36.44184535 240.16549564 -33.01915151 240.1856818 -29.59619141 240.18530273 C-27.40376859 240.18747154 -25.21186389 240.20558643 -23.01953125 240.22460938 C-7.47307574 240.28881839 4.25713927 237.35046034 15.80078125 226.38671875 C23.29483651 218.2537387 25.25851947 209.28107607 24.92504883 198.48510742 C24.20056223 182.6593811 24.20056223 182.6593811 17 169 C15.03625365 167.61382611 13.04087808 166.26987969 11 165 C9.67440717 162.34881433 10.21647514 160.69550826 10.5 157.75 C10.64201643 148.71556997 5.09639585 141.67200182 -0.66796875 135.09765625 C-1.96957419 133.78801827 -1.96957419 133.78801827 -4 134 Z M-178 174 C-177.73197619 189.86213667 -173.84161586 204.85486928 -168.9375 219.875 C-168.70458252 220.59341064 -168.47166504 221.31182129 -168.23168945 222.05200195 C-166.63697063 226.72781704 -164.56406224 230.77618994 -162 235 C-146.53015263 232.54121631 -131.71035022 226.50461275 -118 219 C-118 218.01 -118 217.02 -118 216 C-120.55105037 214.25924703 -123.07366765 212.71426863 -125.75 211.1875 C-139.79821164 202.87540684 -153.22138735 193.77387982 -165.44677734 182.93286133 C-169.41359133 179.42681453 -173.38736233 176.58307709 -178 174 Z M-44.625 176.75 C-45.41559814 177.37068359 -46.20619629 177.99136719 -47.02075195 178.63085938 C-49.09721903 180.28209567 -51.15347783 181.94564791 -53.19750977 183.63574219 C-63.18990602 191.84775663 -73.71321457 198.95590709 -84.57397461 205.95800781 C-86.75886799 207.37055027 -88.93626036 208.79411595 -91.11328125 210.21875 C-91.77773758 210.64168335 -92.44219391 211.0646167 -93.12678528 211.50036621 C-96.37021004 213.62737708 -98.738396 215.2319517 -100 219 C-90.59779897 223.69067679 -81.23582111 228.1826122 -71.25 231.5 C-70.52506348 231.74250488 -69.80012695 231.98500977 -69.05322266 232.23486328 C-64.70872676 233.62376862 -60.5314055 234.47805801 -56 235 C-43.6822198 217.97248032 -40.52468948 194.48912429 -40 174 C-41.85359478 174 -43.22718639 175.65059604 -44.625 176.75 Z M-122.5 226.9375 C-131.40373383 231.4676455 -140.53459752 234.86770096 -149.98632812 238.07983398 C-151.01435547 238.43376221 -152.04238281 238.78769043 -153.1015625 239.15234375 C-154.02275879 239.46163818 -154.94395508 239.77093262 -155.89306641 240.08959961 C-158.17103187 240.80567347 -158.17103187 240.80567347 -159 243 C-157.96401191 245.56573658 -156.86944195 247.97401863 -155.625 250.4375 C-155.26140381 251.15744141 -154.89780762 251.87738281 -154.52319336 252.61914062 C-147.32346483 266.39493867 -134.42078181 280.88319696 -119.2421875 285.9140625 C-108.81062897 288.143028 -98.5177488 287.00713559 -89.4140625 281.41015625 C-75.31763712 271.75588173 -65.13691544 257.89488558 -59 242 C-64.59300666 239.74535452 -70.19924276 237.52754266 -75.8203125 235.34375 C-77.61275391 234.64572266 -77.61275391 234.64572266 -79.44140625 233.93359375 C-81.90392167 232.97522348 -84.36747179 232.01950775 -86.83203125 231.06640625 C-96.87054342 227.14867339 -96.87054342 227.14867339 -101.3046875 224.65625 C-108.91438615 220.7482663 -115.43342079 223.13845604 -122.5 226.9375 Z M-182.0625 248.625 C-184.45028632 250.31955803 -186.08226701 250.78650734 -189 251 C-191.84719871 250.10088462 -194.30056199 248.8401266 -196.9375 247.4375 C-202.5438155 244.95970877 -208.97119224 245.24249019 -215 245 C-210.62625419 253.62766297 -204.30604067 257.51356959 -196 262 C-195.26990723 262.40395996 -194.53981445 262.80791992 -193.78759766 263.22412109 C-180.79283516 270.40350276 -167.68326217 276.24056948 -153.5625 280.875 C-152.60500854 281.1985144 -152.60500854 281.1985144 -151.62817383 281.52856445 C-146.90258167 283.01266015 -142.89017407 283.18412616 -138 283 C-141.36577201 278.34811998 -144.91026552 273.95044555 -148.6875 269.625 C-154.70551177 262.50033257 -159.34886805 254.61623811 -164.03540039 246.57543945 C-164.90537238 245.01668819 -164.90537238 245.01668819 -166 244 C-172.60904046 243.55192946 -176.71910309 244.41505092 -182.0625 248.625 Z M-52 244 C-52.64324219 245.11375 -53.28648437 246.2275 -53.94921875 247.375 C-60.07205615 257.78324974 -66.80133866 267.18845548 -74.62841797 276.37744141 C-76.46424475 278.54919378 -78.23663469 280.76923666 -80 283 C-75.96998981 284.57876688 -72.29428368 283.47509137 -68.25 282.5 C-67.49847656 282.31912842 -66.74695313 282.13825684 -65.97265625 281.9519043 C-43.81488494 276.28487799 -20.00695309 263.17474086 -4 247 C-3.67 246.34 -3.34 245.68 -3 245 C-4.05799805 245.00523682 -5.11599609 245.01047363 -6.20605469 245.01586914 C-10.18700288 245.03417202 -14.16794747 245.04552301 -18.14892578 245.05493164 C-19.86149728 245.05991472 -21.57406463 245.0667036 -23.28662109 245.07543945 C-32.91012342 245.12324762 -42.41966694 245.06488163 -52 244 Z " fill="#ED3439" transform="translate(365,129)"/>
<path d="M0 0 C0.83924515 -0.00705963 1.6784903 -0.01411926 2.54316711 -0.02139282 C37.25433555 -0.24694741 37.25433555 -0.24694741 54.0234375 3.203125 C55.01698242 3.39648438 56.01052734 3.58984375 57.03417969 3.7890625 C78.68540859 8.07041628 99.69002051 14.65243176 119.13867188 25.19824219 C121.09774081 26.2427406 123.07860432 27.23024389 125.0703125 28.2109375 C153.7998075 42.54714021 179.79395773 64.8039149 198.84423828 90.62255859 C199.95767709 92.11498154 201.11248959 93.57627763 202.26953125 95.03515625 C240.54642053 143.81942691 252.92017132 206.21725993 246.44628906 266.85595703 C239.06854096 325.25603004 207.53473213 382.72622829 160.90625 419.0546875 C159.95492188 419.76367188 159.00359375 420.47265625 158.0234375 421.203125 C157.17604004 421.84846191 157.17604004 421.84846191 156.31152344 422.50683594 C104.82026059 461.49732977 40.91873956 476.35373278 -22.8737793 468.36328125 C-71.19386018 461.40808109 -116.0691297 438.01672816 -150.9765625 404.203125 C-151.77852051 403.43186279 -151.77852051 403.43186279 -152.59667969 402.64501953 C-159.92797422 395.57085156 -166.81542986 388.34086675 -172.9765625 380.203125 C-173.63060059 379.34702637 -173.63060059 379.34702637 -174.29785156 378.47363281 C-195.61705997 350.30975847 -209.47485867 318.74235398 -217.2890625 284.453125 C-217.65281982 282.87640015 -217.65281982 282.87640015 -218.02392578 281.26782227 C-221.32807656 266.08857692 -222.39219829 250.82944582 -222.3515625 235.328125 C-222.35101868 234.53419342 -222.35047485 233.74026184 -222.34991455 232.92227173 C-222.18959747 181.47395677 -205.16683536 131.41422997 -172.9765625 91.203125 C-172.34492188 90.378125 -171.71328125 89.553125 -171.0625 88.703125 C-132.39266839 38.67917262 -75.07643154 9.477211 -13.22045898 0.66821289 C-8.80956909 0.12723431 -4.4402177 0.02487071 0 0 Z M-139.3125 65.72705078 C-140.8996783 67.13492637 -142.49962281 68.52694435 -144.1015625 69.91796875 C-176.94368127 98.79546846 -198.77754903 139.77290832 -208.6640625 182.015625 C-208.85452148 182.8192749 -209.04498047 183.6229248 -209.24121094 184.45092773 C-213.06951622 201.70335588 -214.53605346 218.81236814 -214.4140625 236.453125 C-214.41002411 237.43613586 -214.40598572 238.41914673 -214.40182495 239.4319458 C-214.3141299 254.6964526 -213.67950685 269.32526574 -209.9765625 284.203125 C-209.6863623 285.3890625 -209.39616211 286.575 -209.09716797 287.796875 C-201.49778584 317.96446758 -189.51662642 346.7606607 -169.9765625 371.203125 C-169.29335937 372.07839844 -168.61015625 372.95367187 -167.90625 373.85546875 C-161.87563305 381.43268304 -155.29832636 388.48141134 -148.61767578 395.48291016 C-147.18810562 396.98138551 -145.76712196 398.48804325 -144.34765625 399.99609375 C-138.30891638 406.25370064 -131.73904046 411.5870006 -124.81201172 416.81201172 C-123.01091004 418.17709251 -121.2296837 419.5651932 -119.44921875 420.95703125 C-96.2919208 438.79813637 -68.50663732 450.26937609 -40.1640625 456.890625 C-39.36057373 457.08100342 -38.55708496 457.27138184 -37.72924805 457.4675293 C-20.47598932 461.29694777 -3.36796555 462.75931656 14.2734375 462.640625 C15.25412201 462.63725128 16.23480652 462.63387756 17.24520874 462.63040161 C41.35641887 462.51060622 63.08326175 458.76285841 86.0234375 451.203125 C86.76883789 450.95836426 87.51423828 450.71360352 88.28222656 450.46142578 C111.14438738 442.78836044 133.02195588 431.03738513 152.0234375 416.203125 C152.62365723 415.73680664 153.22387695 415.27048828 153.84228516 414.79003906 C167.11029414 404.42798228 178.57516485 393.45074618 189.0234375 380.203125 C189.66539062 379.44 190.30734375 378.676875 190.96875 377.890625 C201.27973756 365.53413788 209.50452451 351.39114754 217.0234375 337.203125 C217.89548828 335.57890625 217.89548828 335.57890625 218.78515625 333.921875 C229.17104311 313.19852034 235.41294184 290.00569496 239.0234375 267.203125 C239.20156982 266.11563965 239.37970215 265.0281543 239.56323242 263.90771484 C240.06475279 259.87054243 240.2024623 255.89325946 240.2265625 251.83203125 C240.23357681 251.04118637 240.24059113 250.25034149 240.24781799 249.43553162 C240.26530722 246.87883799 240.27167608 244.32237636 240.2734375 241.765625 C240.27411224 240.89075439 240.27478699 240.01588379 240.27548218 239.11450195 C240.2581386 224.94788153 239.57888317 211.1675289 237.0234375 197.203125 C236.85714844 196.26726562 236.69085938 195.33140625 236.51953125 194.3671875 C229.26165216 154.69078179 212.21323766 117.88754433 186.0234375 87.203125 C185.08744842 86.07121563 184.15261483 84.93835009 183.21875 83.8046875 C173.27593771 71.83312987 162.1623132 61.90632233 149.77050781 52.52636719 C148.64063032 51.67059078 147.51468056 50.80959282 146.39355469 49.94238281 C69.6724815 -9.22903816 -38.74096243 -4.25949711 -139.3125 65.72705078 Z " fill="#ED3439" transform="translate(242.9765625,20.796875)"/>
<path d="M0 0 C1.98 0 3.96 0 6 0 C6 19.14 6 38.28 6 58 C4.02 58 2.04 58 0 58 C-4.97461932 48.00491233 -8.38869656 37.55067084 -12 27 C-12.66 36.9 -13.32 46.8 -14 57 C-15.65 57 -17.3 57 -19 57 C-19 38.52 -19 20.04 -19 1 C-17.02 1 -15.04 1 -13 1 C-8.85356334 10.52212667 -5.40205168 20.18943236 -2 30 C-1.34 20.1 -0.68 10.2 0 0 Z " fill="#EC2B31" transform="translate(218,227)"/>
<path d="M0 0 C3.39863525 1.27750119 3.89132225 1.80593259 5.75 5.125 C7.31997664 9.15602111 7.22556434 12.71427756 7 17 C5.02 17 3.04 17 1 17 C0.01 15.02 -0.98 13.04 -2 11 C-3.99954746 10.95745644 -6.00041636 10.95919217 -8 11 C-9.41577477 12.18424326 -9.41577477 12.18424326 -9.0625 15.5625 C-9.041875 16.696875 -9.02125 17.83125 -9 19 C-7.7625 19.309375 -7.7625 19.309375 -6.5 19.625 C-0.22812117 22.0889524 5.11777015 25.76390269 8 32 C8.31687382 34.70912838 8.47632548 37.11239282 8.4375 39.8125 C8.42940308 40.87718506 8.42940308 40.87718506 8.42114258 41.96337891 C8.25406226 47.71543238 7.27641701 51.31940427 4 56 C-0.45965473 58.97310315 -4.78181179 58.99748534 -10 58 C-13.66466292 55.34896725 -15.58465328 52.24604016 -17 48 C-17.06740865 46.43881572 -17.08514456 44.8749748 -17.0625 43.3125 C-17.05347656 42.50425781 -17.04445312 41.69601562 -17.03515625 40.86328125 C-17.02355469 40.24839844 -17.01195312 39.63351562 -17 39 C-14.03 38.505 -14.03 38.505 -11 38 C-10.49596232 39.29009643 -9.99690074 40.58213789 -9.5 41.875 C-9.2215625 42.59429687 -8.943125 43.31359375 -8.65625 44.0546875 C-8 46 -8 46 -8 48 C-5.36 47.34 -2.72 46.68 0 46 C0.23790362 43.14515656 0.42526458 40.79920989 0 38 C-2.06956129 35.61037195 -2.06956129 35.61037195 -5 34 C-10.4738461 30.53695451 -14.44456815 27.59427552 -16.25 21.1875 C-17.32631702 16.04832863 -17.98295975 11.16251145 -15.75 6.25 C-15.1725 5.5075 -14.595 4.765 -14 4 C-13.484375 3.236875 -12.96875 2.47375 -12.4375 1.6875 C-8.61341941 -0.95994041 -4.51389393 -0.62210718 0 0 Z " fill="#ED2F34" transform="translate(247,227)"/>
<path d="M0 0 C1.98 0 3.96 0 6 0 C6.05534912 1.25135742 6.11069824 2.50271484 6.16772461 3.79199219 C6.37422948 8.43638873 6.58608752 13.08052832 6.79956055 17.72460938 C6.89119065 19.73430893 6.98137051 21.74407515 7.07006836 23.75390625 C7.1978407 26.64341705 7.33083317 29.53264763 7.46484375 32.421875 C7.52272316 33.76895538 7.52272316 33.76895538 7.58177185 35.14324951 C7.62173782 35.98381897 7.6617038 36.82438843 7.70288086 37.69042969 C7.73619003 38.42767273 7.76949921 39.16491577 7.80381775 39.92449951 C8.0031481 42.03330517 8.43304516 43.9619024 9 46 C12.97754128 46.73334429 12.97754128 46.73334429 17 47 C17.99 23.735 17.99 23.735 19 0 C21.31 0 23.62 0 26 0 C26.09948619 6.22553948 26.17175931 12.45060782 26.21972656 18.67675781 C26.23974016 20.79109772 26.26695972 22.90538299 26.30175781 25.01953125 C26.35072941 28.07305448 26.37307182 31.12584078 26.390625 34.1796875 C26.41127014 35.11239471 26.43191528 36.04510193 26.45318604 37.006073 C26.4553767 43.53315138 25.38377406 49.32366994 22 55 C18.21932501 58.26893628 14.95849241 59.15835505 10 59 C5.84909617 57.30190298 3.46999018 54.70498526 1 51 C0.15799787 47.69413211 -0.12289998 44.61269193 -0.11352539 41.2097168 C-0.11344986 40.28913986 -0.11337433 39.36856293 -0.11329651 38.42008972 C-0.10813522 37.4397023 -0.10297394 36.45931488 -0.09765625 35.44921875 C-0.0962413 34.43527542 -0.09482635 33.42133209 -0.09336853 32.37666321 C-0.08778328 29.14691179 -0.07523345 25.91723038 -0.0625 22.6875 C-0.0574831 20.49414163 -0.05292052 18.30078217 -0.04882812 16.10742188 C-0.03781868 10.73825747 -0.0210952 5.36913374 0 0 Z " fill="#ED363C" transform="translate(261,227)"/>
<path d="M0 0 C8.58 0 17.16 0 26 0 C26 3.3 26 6.6 26 10 C22.7 10 19.4 10 16 10 C16 25.84 16 41.68 16 58 C14.02 58 12.04 58 10 58 C10 42.16 10 26.32 10 10 C6.7 10 3.4 10 0 10 C0 6.7 0 3.4 0 0 Z " fill="#EC282C" transform="translate(291,227)"/>
<path d="M0 0 C5.31455478 0.515103 8.90623121 2.36164705 13.375 5.0625 C14.33599609 5.62807617 14.33599609 5.62807617 15.31640625 6.20507812 C16.88254066 7.12839617 18.44198034 8.06305393 20 9 C20 10.32 20 11.64 20 13 C18.87252594 14.09330818 17.73766785 15.17984893 16.5703125 16.23046875 C13.60442905 19.572621 11.67689282 23.6426959 9.55078125 27.55078125 C8.78314453 28.76314453 8.78314453 28.76314453 8 30 C7.34 30 6.68 30 6 30 C6.061875 30.928125 6.12375 31.85625 6.1875 32.8125 C6 36 6 36 4.9375 37.875 C1.80077867 39.69632206 -0.45300373 39.48924087 -4 39 C-6.75 36.75 -6.75 36.75 -9 34 C-9.61875 33.319375 -10.2375 32.63875 -10.875 31.9375 C-12 30 -12 30 -11.6875 27.75 C-11.3471875 26.88375 -11.3471875 26.88375 -11 26 C-9.125 26.1875 -9.125 26.1875 -7 27 C-6.71125 27.825 -6.4225 28.65 -6.125 29.5 C-5.75375 30.325 -5.3825 31.15 -5 32 C-1.94727535 32.89830839 -1.94727535 32.89830839 1 33 C1 32.34 1 31.68 1 31 C0.01 30.67 -0.98 30.34 -2 30 C-2 29.01 -2 28.02 -2 27 C-1.113125 27 -0.22625 27 0.6875 27 C5.08399473 25.67275631 5.9505902 23.59155401 8.1171875 19.71484375 C8.40851563 19.14894531 8.69984375 18.58304688 9 18 C6.32114278 15.12807199 3.56170128 13.66212727 0 12 C0.33 15.96 0.66 19.92 1 24 C-0.65 23.67 -2.3 23.34 -4 23 C-4 18.71 -4 14.42 -4 10 C-5.65 9.67 -7.3 9.34 -9 9 C-9.33 9.66 -9.66 10.32 -10 11 C-10.99 10.67 -11.98 10.34 -13 10 C-13.33 7.69 -13.66 5.38 -14 3 C-6.09541456 4.1716974 0.71683718 6.78593098 8 10 C9.6638262 10.67372443 11.329583 11.34278675 13 12 C9.39299028 7.76568424 4.85413839 5.5307901 0 3 C0 2.01 0 1.02 0 0 Z " fill="#ED3439" transform="translate(350,69)"/>
<path d="M0 0 C3.3772445 1.39275254 4.87070305 2.82273931 6.75 5.9375 C7.17796875 6.62714844 7.6059375 7.31679688 8.046875 8.02734375 C9 10 9 10 9 13 C9.99 13 10.98 13 12 13 C12 13.99 12 14.98 12 16 C11.01 16 10.02 16 9 16 C9.02320313 16.7734375 9.04640625 17.546875 9.0703125 18.34375 C9.17928906 24.63325438 8.85126093 29.98340199 7 36 C5.68 36 4.36 36 3 36 C3.14154136 33.43719792 3.28808562 30.87484515 3.4375 28.3125 C3.47681641 27.59126953 3.51613281 26.87003906 3.55664062 26.12695312 C3.78185678 22.33292718 4.12839305 18.71348508 5 15 C3.35 15.33 1.7 15.66 0 16 C-0.09087891 17.55460937 -0.09087891 17.55460937 -0.18359375 19.140625 C-0.26803371 20.51042873 -0.35267997 21.88021975 -0.4375 23.25 C-0.47681641 23.93191406 -0.51613281 24.61382812 -0.55664062 25.31640625 C-0.76666472 28.64448041 -1.01934002 31.80255402 -2 35 C-3.32 35 -4.64 35 -6 35 C-6.33 33.35 -6.66 31.7 -7 30 C-8.60875 30.12375 -8.60875 30.12375 -10.25 30.25 C-14 30 -14 30 -16.4375 28.375 C-18.47161336 25.28314769 -18.60605429 23.63632575 -18 20 C-16.4375 17.5625 -16.4375 17.5625 -14 16 C-10.25 16.25 -10.25 16.25 -7 17 C-7 17.66 -7 18.32 -7 19 C-8.98 19.66 -10.96 20.32 -13 21 C-12.34 22.65 -11.68 24.3 -11 26 C-9.35 25.67 -7.7 25.34 -6 25 C-5.67 21.37 -5.34 17.74 -5 14 C-11.93 13.505 -11.93 13.505 -19 13 C-19 12.01 -19 11.02 -19 10 C-16.47909222 9.9727633 -13.95848543 9.95304793 -11.4375 9.9375 C-10.38079102 9.92493164 -10.38079102 9.92493164 -9.30273438 9.91210938 C-4.75975202 9.89117397 -0.48215108 10.25199318 4 11 C3.44119141 10.31164062 3.44119141 10.31164062 2.87109375 9.609375 C2.39800781 8.99578125 1.92492187 8.3821875 1.4375 7.75 C0.96183594 7.14671875 0.48617188 6.5434375 -0.00390625 5.921875 C-1 4 -1 4 -0.65234375 1.765625 C-0.43707031 1.18296875 -0.22179687 0.6003125 0 0 Z " fill="#ED3438" transform="translate(279,36)"/>
<path d="M0 0 C0 0.66 0 1.32 0 2 C-4.1205746 3.99785435 -7.45194365 4.17835515 -12 4 C-11.67 5.32 -11.34 6.64 -11 8 C-10.34 7.67 -9.68 7.34 -9 7 C-3.63230407 6.54317481 -3.63230407 6.54317481 -1.296875 8.23046875 C0.41463347 10.56574989 0.2088127 11.73236109 -0.1875 14.5625 C-0.33251953 15.74005859 -0.33251953 15.74005859 -0.48046875 16.94140625 C-1 19 -1 19 -3 21 C-4.32 20.67 -5.64 20.34 -7 20 C-6.34 17.03 -5.68 14.06 -5 11 C-6.65 11.33 -8.3 11.66 -10 12 C-9.67 16.29 -9.34 20.58 -9 25 C-14 24 -14 24 -16 22 C-17.65 23.32 -19.3 24.64 -21 26 C-22.91015625 25.30078125 -22.91015625 25.30078125 -25 24 C-26.84330599 19.6423938 -27.49136284 15.41628114 -25.9375 10.9375 C-23.64346705 8.64346705 -22.19360415 8.25894088 -19 8 C-19 12.33094958 -19.96564469 14.27034861 -22 18 C-20.02 17.67 -18.04 17.34 -16 17 C-16 13.04 -16 9.08 -16 5 C-17.381875 5.33 -18.76375 5.66 -20.1875 6 C-23.5311614 6.74889577 -26.55623067 7.22217867 -30 7 C-29.67 5.68 -29.34 4.36 -29 3 C-9.03189066 -0.44419134 -9.03189066 -0.44419134 0 0 Z " fill="#ED2D32" transform="translate(233,48)"/>
<path d="M0 0 C1.9375 0.3125 1.9375 0.3125 4 1 C5.04976964 4.14930893 5.10131595 6.38814456 5.0625 9.6875 C5.05347656 10.68136719 5.04445312 11.67523438 5.03515625 12.69921875 C5.02355469 13.45847656 5.01195312 14.21773438 5 15 C5.66 15 6.32 15 7 15 C7.19335938 14.38511719 7.38671875 13.77023437 7.5859375 13.13671875 C7.84632813 12.32847656 8.10671875 11.52023437 8.375 10.6875 C8.63023437 9.88699219 8.88546875 9.08648437 9.1484375 8.26171875 C10 6 10 6 12 3 C18.71868431 1.07483853 25.37906411 2.29546118 32 4 C32 4.99 32 5.98 32 7 C28.7 7 25.4 7 22 7 C21.67 8.32 21.34 9.64 21 11 C22.670625 10.9690625 22.670625 10.9690625 24.375 10.9375 C28 11 28 11 30 12 C30 12.99 30 13.98 30 15 C23.375 15.125 23.375 15.125 20 14 C20 15.98 20 17.96 20 20 C23.3 20 26.6 20 30 20 C30 20.99 30 21.98 30 23 C27.85423363 23.02685938 25.70837355 23.04633088 23.5625 23.0625 C22.36753906 23.07410156 21.17257813 23.08570313 19.94140625 23.09765625 C17 23 17 23 16 22 C15.5347708 17.67509147 15.29499527 13.34064463 15 9 C11.04 14.94 11.04 14.94 7 21 C5.35 20.67 3.7 20.34 2 20 C0.74158054 13.25846717 -0.26404456 6.86515862 0 0 Z " fill="#ED383C" transform="translate(215,440)"/>
<path d="M0 0 C-1.65 2.31 -3.3 4.62 -5 7 C-4.67 7.66 -4.34 8.32 -4 9 C-3.236875 8.319375 -2.47375 7.63875 -1.6875 6.9375 C-0.800625 6.298125 0.08625 5.65875 1 5 C1.99 5.33 2.98 5.66 4 6 C2.87548273 8.9719385 1.77706209 11.33440687 0 14 C0.66 14.66 1.32 15.32 2 16 C2.7425 15.154375 3.485 14.30875 4.25 13.4375 C5.1575 12.633125 6.065 11.82875 7 11 C9.171875 11.34765625 9.171875 11.34765625 11 12 C10.09373216 13.2989839 9.17450463 14.58893167 8.25 15.875 C7.48429687 16.95394531 7.48429687 16.95394531 6.703125 18.0546875 C4.92496453 20.08570565 3.47298393 20.97855012 1 22 C-3.38894929 18.73279209 -7.75259665 15.45101522 -12 12 C-12.99 13.485 -12.99 13.485 -14 15 C-11.1185719 20.46926127 -11.1185719 20.46926127 -7 25 C-7.99 27.475 -7.99 27.475 -9 30 C-11.76363188 27.31532903 -14.18713205 24.75213468 -16.4375 21.625 C-17.283125 20.75875 -18.12875 19.8925 -19 19 C-22.25789019 18.97172423 -22.25789019 18.97172423 -25 20 C-25 17.875 -25 17.875 -24 15 C-20.69066046 11.83164129 -17.68969985 9 -13 9 C-12.73960937 8.40832031 -12.47921875 7.81664062 -12.2109375 7.20703125 C-10.9230347 4.85972454 -9.62775822 3.44975232 -7.625 1.6875 C-7.03976562 1.15511719 -6.45453125 0.62273437 -5.8515625 0.07421875 C-4 -1 -4 -1 0 0 Z " fill="#EE383D" transform="translate(389,393)"/>
<path d="M0 0 C4 2 4 2 5.30078125 3.39453125 C7.8800538 5.83149911 11.02002052 7.16571197 14.1875 8.6875 C14.84169922 9.00783203 15.49589844 9.32816406 16.16992188 9.65820312 C17.77727907 10.44428292 19.38828858 11.22288683 21 12 C20.67 13.32 20.34 14.64 20 16 C17.36 15.34 14.72 14.68 12 14 C11.67 14.66 11.34 15.32 11 16 C12.32 16.99 13.64 17.98 15 19 C14.50958904 25.37534247 14.50958904 25.37534247 12.0625 28.375 C8.31976204 31.32382385 5.71285709 31.08727513 1 31 C1.33 29.68 1.66 28.36 2 27 C4.64 26.34 7.28 25.68 10 25 C10 23.35 10 21.7 10 20 C9.0925 20.515625 8.185 21.03125 7.25 21.5625 C4 23 4 23 1.625 22.6875 C1.08875 22.460625 0.5525 22.23375 0 22 C0 20.68 0 19.36 0 18 C-0.99 18 -1.98 18 -3 18 C-3.66 20.31 -4.32 22.62 -5 25 C-5.99 25 -6.98 25 -8 25 C-8.36190476 17.76190476 -8.36190476 17.76190476 -6.8125 14.5 C-5 13 -5 13 -2.5625 12.5625 C0.37931024 13.06476028 1.79180637 14.03716122 4 16 C5.56249809 14.68798827 5.56249809 14.68798827 7 13 C7 12.01 7 11.02 7 10 C4.69 9.34 2.38 8.68 0 8 C0 8.66 0 9.32 0 10 C-0.99 10 -1.98 10 -3 10 C-2.01 6.7 -1.02 3.4 0 0 Z " fill="#ED363A" transform="translate(69,158)"/>
<path d="M0 0 C7.91674573 1.17349992 14.70655522 3.7828414 22 7 C24.2480255 7.94222481 26.49796728 8.87989351 28.75 9.8125 C30.5 10.54166667 32.25 11.27083333 34 12 C34 13.32 34 14.64 34 16 C32.58208592 15.54554036 31.16571954 15.08625056 29.75 14.625 C28.96109375 14.36976562 28.1721875 14.11453125 27.359375 13.8515625 C25.13372042 13.04826333 23.09068328 12.10288338 21 11 C17.62258258 13.65860846 16.69965643 17.18324963 15.4375 21.125 C14.68637845 23.45510463 13.88587204 25.71368997 13 28 C12.34 28.33 11.68 28.66 11 29 C9.5 27.6875 9.5 27.6875 8 26 C8 25.01 8 24.02 8 23 C7.071875 22.731875 6.14375 22.46375 5.1875 22.1875 C0.56030796 20.46364414 0.56030796 20.46364414 -1 18 C-1.54141632 15.31945841 -1.77571102 12.73632553 -2 10 C-0.02 10 1.96 10 4 10 C4.33 8.35 4.66 6.7 5 5 C3.02 4.34 1.04 3.68 -1 3 C-0.67 2.01 -0.34 1.02 0 0 Z M9 6 C8.34 8.31 7.68 10.62 7 13 C5.35 13.33 3.7 13.66 2 14 C2.33 15.32 2.66 16.64 3 18 C5.64 18.33 8.28 18.66 11 19 C13.47785723 15.33708062 14.48964169 12.3890815 15 8 C13.02 7.34 11.04 6.68 9 6 Z " fill="#ED3438" transform="translate(314,54)"/>
<path d="M0 0 C0.515625 0.2475 1.03125 0.495 1.5625 0.75 C1.3975 1.45125 1.2325 2.1525 1.0625 2.875 C0.53834662 5.88888194 0.49150317 8.69713625 0.5625 11.75 C-3.3975 13.73 -3.3975 13.73 -7.4375 15.75 C-7.4375 17.07 -7.4375 18.39 -7.4375 19.75 C-3.11378107 17.72366931 -3.11378107 17.72366931 0.5625 14.75 C3.1875 15.125 3.1875 15.125 5.5625 15.75 C5.5625 17.4 5.5625 19.05 5.5625 20.75 C6.5525 21.08 7.5425 21.41 8.5625 21.75 C8.2325 22.74 7.9025 23.73 7.5625 24.75 C6.94761719 24.71519531 6.33273438 24.68039063 5.69921875 24.64453125 C4.89097656 24.61746094 4.08273438 24.59039062 3.25 24.5625 C2.44949219 24.52769531 1.64898437 24.49289063 0.82421875 24.45703125 C-1.94372705 24.81557345 -2.62437771 25.71823649 -4.4375 27.75 C-6.375 27.75 -6.375 27.75 -8.4375 26.75 C-11.484024 23.61643245 -13.09094963 21.13963796 -13.4375 16.75 C-11.9736389 12.35841671 -9.45918662 11.87052567 -5.4375 9.75 C-9.34673834 9.40060172 -9.34673834 9.40060172 -11.875 11.25 C-14.70144757 12.90450589 -16.22630183 13.02524556 -19.4375 12.75 C-19.4375 11.76 -19.4375 10.77 -19.4375 9.75 C-17.49609375 8.28515625 -17.49609375 8.28515625 -14.875 6.8125 C-13.96363281 6.296875 -13.05226562 5.78125 -12.11328125 5.25 C-11.23027344 4.755 -10.34726563 4.26 -9.4375 3.75 C-8.75042969 3.316875 -8.06335938 2.88375 -7.35546875 2.4375 C-2.98308368 -0.3059573 -2.98308368 -0.3059573 0 0 Z " fill="#ED3035" transform="translate(169.4375,64.25)"/>
<path d="M0 0 C2.42937444 0.37234614 3.66754085 0.60560099 5.28027344 2.51879883 C5.63637695 3.15841553 5.99248047 3.79803223 6.359375 4.45703125 C6.75253906 5.15763672 7.14570313 5.85824219 7.55078125 6.58007812 C7.94652344 7.31677734 8.34226562 8.05347656 8.75 8.8125 C9.16121094 9.53759766 9.57242187 10.26269531 9.99609375 11.00976562 C12.07480749 14.78390868 13 16.54009444 13 21 C12.21496094 21.24234375 11.42992187 21.4846875 10.62109375 21.734375 C3.55547862 23.94571064 3.55547862 23.94571064 -3 27.3125 C-6 29 -6 29 -8.4375 28.75 C-8.953125 28.5025 -9.46875 28.255 -10 28 C-7.80528594 23.48864333 -5.58826282 21.93726652 -1 20 C-1.66 17.03 -2.32 14.06 -3 11 C-5.93200474 13.85276137 -8.64315404 16.65079784 -11 20 C-11.99 19.67 -12.98 19.34 -14 19 C-13.54738642 17.56068883 -13.08767021 16.12361001 -12.625 14.6875 C-12.36976563 13.88699219 -12.11453125 13.08648437 -11.8515625 12.26171875 C-11 10 -11 10 -9 7 C-6.6875 6 -6.6875 6 -4 6 C-0.83026692 8.64144423 1.63095351 11.63346026 4 15 C4.66 14.67 5.32 14.34 6 14 C5.566875 13.32453125 5.13375 12.6490625 4.6875 11.953125 C4.130625 11.06109375 3.57375 10.1690625 3 9.25 C2.443125 8.36828125 1.88625 7.4865625 1.3125 6.578125 C0 4 0 4 0 0 Z " fill="#ED2F34" transform="translate(436,152)"/>
<path d="M0 0 C5.56017965 5.23311026 10.34800308 10.76042546 13 18 C12.38253906 18.20753906 11.76507813 18.41507813 11.12890625 18.62890625 C5.1383321 20.80812577 0.76162921 23.45315467 -3.9921875 27.70703125 C-6 29 -6 29 -8.2578125 28.69921875 C-8.83273437 28.46847656 -9.40765625 28.23773438 -10 28 C-9.79375 26.906875 -9.5875 25.81375 -9.375 24.6875 C-8.59653475 20.9161599 -8.59653475 20.9161599 -11 18 C-11.54170249 11.93293207 -11.54170249 11.93293207 -9.875 9.0625 C-7.09808875 7.48891696 -5.13770673 7.61579101 -2 8 C0.375 9.25 0.375 9.25 2 11 C2 12.32 2 13.64 2 15 C0 15 0 15 -1.625 13.5 C-2.07875 13.005 -2.5325 12.51 -3 12 C-3.99 12.33 -4.98 12.66 -6 13 C-6.73323796 15.01508358 -6.73323796 15.01508358 -7 17 C-4.25158089 19.27671738 -4.25158089 19.27671738 -1.5 18.8125 C1.13662075 17.95559826 2.25689748 17.11007147 4 15 C3.04062088 11.82666905 2.11243345 9.17489648 0.3125 6.375 C-1 4 -1 4 -0.6875 1.6875 C-0.460625 1.130625 -0.23375 0.57375 0 0 Z " fill="#EE3438" transform="translate(425,132)"/>
<path d="M0 0 C7.59 0 15.18 0 23 0 C23 0.99 23 1.98 23 3 C22.34 3 21.68 3 21 3 C21 9.93 21 16.86 21 24 C19.68 24 18.36 24 17 24 C17 19.38 17 14.76 17 10 C13.7 10.33 10.4 10.66 7 11 C8.87702327 15.89562693 8.87702327 15.89562693 12 20 C11.625 22.125 11.625 22.125 11 24 C10.01 24 9.02 24 8 24 C4.6505332 20.33270059 2.21652933 16.48863917 1.5 11.5625 C2 9 2 9 4 7 C7.0390625 6.8046875 7.0390625 6.8046875 10.625 6.875 C12.40777344 6.90207031 12.40777344 6.90207031 14.2265625 6.9296875 C15.14179688 6.95289063 16.05703125 6.97609375 17 7 C17 5.68 17 4.36 17 3 C11.39 3 5.78 3 0 3 C0 2.01 0 1.02 0 0 Z " fill="#EC2A2C" transform="translate(235,46)"/>
<path d="M0 0 C5.30472102 2.51276259 8.24990807 6.32123553 10.37890625 11.78125 C11.47340538 15.76124685 11.7678798 19.579904 11.5625 23.6875 C6.43021897 20.65379998 5.68789709 16.02020671 3.90625 10.62109375 C2.83018334 7.6239571 2.83018334 7.6239571 0.546875 6.26171875 C-1.82079322 5.57658641 -3.14169811 5.86757075 -5.4375 6.6875 C-5.4375 8.6675 -5.4375 10.6475 -5.4375 12.6875 C-7.0875 12.6875 -8.7375 12.6875 -10.4375 12.6875 C-10.68242187 13.23921875 -10.92734375 13.7909375 -11.1796875 14.359375 C-12.69488114 17.16389491 -14.54834126 19.46853123 -16.5625 21.9375 C-17.28695313 22.82953125 -18.01140625 23.7215625 -18.7578125 24.640625 C-19.58925781 25.65382813 -19.58925781 25.65382813 -20.4375 26.6875 C-21.7575 26.0275 -23.0775 25.3675 -24.4375 24.6875 C-22.36062133 20.69350256 -20.55340411 17.63198069 -17.1875 14.625 C-14.677479 12.28525681 -14.46773442 11.9596098 -14.0625 8.3125 C-14.18625 7.44625 -14.31 6.58 -14.4375 5.6875 C-13.550625 5.254375 -12.66375 4.82125 -11.75 4.375 C-8.48360883 2.82741199 -8.48360883 2.82741199 -6 0.875 C-3.4375 -0.3125 -3.4375 -0.3125 0 0 Z " fill="#EE3438" transform="translate(400.4375,89.3125)"/>
<path d="M0 0 C5.34495447 0.32724211 7.81164792 3.27500469 11.3125 6.9375 C12.13717773 7.76411133 12.13717773 7.76411133 12.97851562 8.60742188 C17 12.71882764 17 12.71882764 17 15 C15.865625 15.474375 14.73125 15.94875 13.5625 16.4375 C8.02163128 19.16332987 4.14165747 23.5132044 0 28 C-1.32 27.34 -2.64 26.68 -4 26 C-3.34 24.68 -2.68 23.36 -2 22 C-2.639375 21.38125 -3.27875 20.7625 -3.9375 20.125 C-6.44692468 17.53953215 -6.94395702 16.65850498 -7.25 13.0625 C-7 10 -7 10 -5.875 8.125 C-3.10703881 6.46422329 -1.16909182 6.61194794 2 7 C4.375 8.5 4.375 8.5 6 10 C5.67 10.99 5.34 11.98 5 13 C2.03 12.505 2.03 12.505 -1 12 C-1 13.65 -1 15.3 -1 17 C1.33165034 17.33498301 1.33165034 17.33498301 4 17 C6.31377147 15.10415891 6.31377147 15.10415891 8 13 C6.59578698 8.53204949 4.3156598 6.23064288 1 3 C0.67 2.01 0.34 1.02 0 0 Z " fill="#ED3035" transform="translate(395,102)"/>
<path d="M0 0 C1.8125 0.1875 1.8125 0.1875 4 1 C5.0303922 2.64805027 6.02522578 4.31845518 7 6 C8.84237968 7.82638217 10.74224736 9.59610061 12.6875 11.3125 C13.19861328 11.76689453 13.70972656 12.22128906 14.23632812 12.68945312 C15.48576335 13.79876478 16.74217823 14.90020678 18 16 C17.34 17.32 16.68 18.64 16 20 C13.39619281 18.88408263 11.93900464 17.93328633 10 15.8125 C9.34 15.214375 8.68 14.61625 8 14 C5.78141747 14.13641377 5.78141747 14.13641377 4 15 C3.06576355 18.01031744 2.95550089 18.86650268 4 22 C1.03 22 -1.94 22 -5 22 C-4.02193105 18.49525294 -3.12953659 16.15914496 -0.8125 13.3125 C-0.214375 12.549375 0.38375 11.78625 1 11 C0.67 10.01 0.34 9.02 0 8 C-4.33409466 11.18683431 -7.6189962 14.86378916 -11 19 C-11.66 18.34 -12.32 17.68 -13 17 C-9.69240426 10.38480852 -5.04893179 5.36179295 0 0 Z " fill="#EE3438" transform="translate(102,112)"/>
<path d="M0 0 C0.5775 0.226875 1.155 0.45375 1.75 0.6875 C1.82863281 1.56277344 1.90726563 2.43804687 1.98828125 3.33984375 C3.10680413 8.2556084 6.05625256 11.19160231 9.23046875 15.00390625 C10.75 17.6875 10.75 17.6875 9.98828125 20.52734375 C9.57964844 21.24019531 9.17101562 21.95304687 8.75 22.6875 C6.10247996 20.10965154 3.80567935 17.77101902 1.75 14.6875 C1.09 16.6675 0.43 18.6475 -0.25 20.6875 C-2.89 20.6875 -5.53 20.6875 -8.25 20.6875 C-9.24 17.7175 -10.23 14.7475 -11.25 11.6875 C-11.91 13.0075 -12.57 14.3275 -13.25 15.6875 C-14.24 15.3575 -15.23 15.0275 -16.25 14.6875 C-16.375 11.8125 -16.375 11.8125 -16.25 8.6875 C-15.59 8.0275 -14.93 7.3675 -14.25 6.6875 C-10.8125 6.75 -10.8125 6.75 -7.25 7.6875 C-5.3125 10.25 -5.3125 10.25 -4.25 12.6875 C-3.26 12.3575 -2.27 12.0275 -1.25 11.6875 C-1.58 10.3675 -1.91 9.0475 -2.25 7.6875 C-3.9 7.3575 -5.55 7.0275 -7.25 6.6875 C-6.87492618 3.96821483 -6.40781339 2.84531339 -4.4375 0.875 C-2.25 -0.3125 -2.25 -0.3125 0 0 Z " fill="#ED363B" transform="translate(147.25,77.3125)"/>
<path d="M0 0 C6.34339651 1.80610595 11.56938255 4.25627734 17 8 C16.6875 9.875 16.6875 9.875 16 12 C13.09907498 13.93395001 12.10325263 14.30131941 8.8125 14.625 C7.554375 14.74875 6.29625 14.8725 5 15 C6.98 15.99 8.96 16.98 11 18 C10.67 19.32 10.34 20.64 10 22 C5.73755739 21.42441468 2.85648347 19.93509887 -0.75 17.625 C-1.71421875 17.01914062 -2.6784375 16.41328125 -3.671875 15.7890625 C-6 14 -6 14 -7 11 C-6.67 10.34 -6.34 9.68 -6 9 C-3.71484375 8.3671875 -3.71484375 8.3671875 -0.9375 7.875 C-0.01839844 7.70742188 0.90070313 7.53984375 1.84765625 7.3671875 C2.55792969 7.24601562 3.26820313 7.12484375 4 7 C2.35 6.01 0.7 5.02 -1 4 C-0.67 2.68 -0.34 1.36 0 0 Z " fill="#ED3035" transform="translate(419,350)"/>
<path d="M0 0 C8.51304348 6.95869565 8.51304348 6.95869565 11 11 C11.08397844 14.44311591 10.26763036 15.68057021 8.0625 18.3125 C3.71708095 20.70691458 -0.14329334 20.33949794 -5 20 C-5.33 21.98 -5.66 23.96 -6 26 C-7.32 26 -8.64 26 -10 26 C-10 21.05 -10 16.1 -10 11 C-8.68 11.33 -7.36 11.66 -6 12 C-5.67 12.99 -5.34 13.98 -5 15 C-4.01 14.67 -3.02 14.34 -2 14 C-2.33 13.67 -2.66 13.34 -3 13 C-2.94921875 11.07421875 -2.94921875 11.07421875 -2.6875 8.6875 C-2.60886719 7.90761719 -2.53023438 7.12773438 -2.44921875 6.32421875 C-1.98413721 3.91792729 -1.19341444 2.12866168 0 0 Z M1 8 C0.67 8.99 0.34 9.98 0 11 C1.37485532 12.54166642 1.37485532 12.54166642 3 14 C3.66 14 4.32 14 5 14 C5 12.35 5 10.7 5 9 C3.68 8.67 2.36 8.34 1 8 Z " fill="#ED3337" transform="translate(413,117)"/>
<path d="M0 0 C1.66666667 1.66666667 3.33333333 3.33333333 5 5 C5.763125 5.66 6.52625 6.32 7.3125 7 C9 9 9 9 9.5 11.5625 C9 14 9 14 7.125 15.8125 C5 17 5 17 3 17 C2.9071875 18.175625 2.9071875 18.175625 2.8125 19.375 C2 22 2 22 -0.1875 23.5625 C-3 24 -3 24 -6 22.4375 C-8.86847353 20.10686526 -11.4634972 17.68570885 -14 15 C-12.55053895 11.66026243 -10.71827612 9.47695341 -8.125 6.9375 C-7.44695312 6.26589844 -6.76890625 5.59429687 -6.0703125 4.90234375 C-4.1292063 3.11872353 -2.1380399 1.53881347 0 0 Z M0 5 C-1.485 6.98 -1.485 6.98 -3 9 C0.09327895 11.97675459 0.09327895 11.97675459 4 13 C4.33 11.68 4.66 10.36 5 9 C3.35 7.68 1.7 6.36 0 5 Z M-7 11 C-7.66 12.32 -8.32 13.64 -9 15 C-6.69433317 17.12802546 -6.69433317 17.12802546 -4 19 C-3.01 18.67 -2.02 18.34 -1 18 C-1.6954344 14.99615946 -1.6954344 14.99615946 -3 12 C-5.03243548 11.03122943 -5.03243548 11.03122943 -7 11 Z " fill="#EE3A3E" transform="translate(114,380)"/>
<path d="M0 0 C1.953125 0.15234375 1.953125 0.15234375 4 1 C5.046875 3.06640625 5.046875 3.06640625 5.75 5.5625 C5.99234375 6.38878906 6.2346875 7.21507812 6.484375 8.06640625 C6.65453125 8.70449219 6.8246875 9.34257812 7 10 C8.32 7.69 9.64 5.38 11 3 C11.99 3.33 12.98 3.66 14 4 C13.0122936 10.42590164 11.86390108 16.14202052 9 22 C7.1875 21.9375 7.1875 21.9375 5 21 C2.90330932 17.03126406 2 14.51561274 2 10 C1.34 10 0.68 10 0 10 C-0.144375 10.94875 -0.28875 11.8975 -0.4375 12.875 C-1 16 -1 16 -2 18 C-3.32 18 -4.64 18 -6 18 C-3.86163522 3.86163522 -3.86163522 3.86163522 0 0 Z " fill="#ED3439" transform="translate(192,434)"/>
<path d="M0 0 C-0.6953125 4.71875 -0.6953125 4.71875 -3.4375 7.25 C-6 9 -6 9 -8 10 C-5.36 10.66 -2.72 11.32 0 12 C0 13.32 0 14.64 0 16 C-6.27 16 -12.54 16 -19 16 C-19 14.35 -19 12.7 -19 11 C-17.25 9.41796875 -17.25 9.41796875 -15 8.1875 C-14.2575 7.76855469 -13.515 7.34960938 -12.75 6.91796875 C-12.1725 6.61503906 -11.595 6.31210937 -11 6 C-13.64 5.34 -16.28 4.68 -19 4 C-19 3.01 -19 2.02 -19 1 C-12.65758005 -0.15316726 -6.43311296 -0.09507063 0 0 Z " fill="#ED3338" transform="translate(68,262)"/>
<path d="M0 0 C2.91927604 1.3961755 4.72202996 2.72202996 7 5 C7.57887875 13.9726206 7.57887875 13.9726206 5 17 C1.00816478 19.39510113 -1.57781633 20.4133205 -6.1875 19.5 C-10.05967577 18.26691878 -12.01786669 16.63391108 -14 13 C-14.69416823 8.92176163 -14.1781762 7.31477795 -12.125 3.6875 C-8.70465248 -0.63823363 -5.26779622 -0.58643413 0 0 Z M-7 4 C-9.14762184 7.22143276 -9.561068 8.2595467 -9 12 C-6.75098447 14.50851732 -5.26658639 14.95647569 -1.9375 15.5 C1.1646795 15.28699158 1.1646795 15.28699158 3 12.75 C4.26355988 10.1125875 4.26355988 10.1125875 3.375 7.8125 C1.95229942 5.73157513 1.95229942 5.73157513 -1 4 C-4.04211431 3.5832448 -4.04211431 3.5832448 -7 4 Z " fill="#EE3B40" transform="translate(450,300)"/>
<path d="M0 0 C9.9609375 -0.1953125 9.9609375 -0.1953125 13 0 C15.60704898 2.60704898 15.23905333 4.47338241 15.265625 8.02734375 C15 10 15 10 13 13 C13.66 13.598125 14.32 14.19625 15 14.8125 C17 17 17 17 17 20 C13.81390075 19.64598897 12.20933322 19.16972964 9.6875 17.125 C8 15 8 15 8 12 C7.01 12 6.02 12 5 12 C4.67 14.64 4.34 17.28 4 20 C2.68 20 1.36 20 0 20 C0 13.4 0 6.8 0 0 Z M4 4 C4 5.32 4 6.64 4 8 C6.31 8 8.62 8 11 8 C11 6.68 11 5.36 11 4 C8.69 4 6.38 4 4 4 Z " fill="#EE3A3E" transform="translate(249,444)"/>
<path d="M0 0 C-0.51420661 2.57103303 -1.03102424 5.13340425 -1.625 7.6875 C-2.23427015 10.01864219 -2.23427015 10.01864219 -1 12 C1.35599235 12.46751788 1.35599235 12.46751788 4.0625 12.625 C5.44115234 12.73714844 5.44115234 12.73714844 6.84765625 12.8515625 C7.55792969 12.90054687 8.26820313 12.94953125 9 13 C9.33 10.36 9.66 7.72 10 5 C8.68 5 7.36 5 6 5 C6 5.99 6 6.98 6 8 C5.01 8 4.02 8 3 8 C2.875 2.25 2.875 2.25 4 0 C9.625 -0.25 9.625 -0.25 13 2 C14.00027309 7.17641323 13.80815217 11.67045934 11.0625 16.1875 C6.99513586 18.59471551 3.62617351 18.78620122 -1 18 C-3.35527884 17.00852383 -4.68799963 16.40560049 -6.25 14.375 C-7.64798929 9.94803393 -7.84622258 5.69244516 -5.75 1.5 C-4 0 -4 0 0 0 Z " fill="#ED2E33" transform="translate(448,281)"/>
<path d="M0 0 C2.96025953 2.72023849 3.89812746 4.59250985 4.875 8.5 C5.00522165 12.14620631 4.95704917 13.9367926 3 17 C-0.42500735 19.44643382 -3.05510856 20.24952219 -7.1875 19.9375 C-11 19 -11 19 -12.9375 17.125 C-15.07726268 12.84547465 -15.68615962 8.72687738 -15 4 C-13.08763819 1.2376996 -11.7854731 0.26871448 -8.625 -0.8125 C-5.43985774 -1.04001016 -3.07468811 -0.91586454 0 0 Z M-11 5 C-11.31537716 9.33643601 -11.44897847 11.32653229 -9 15 C-4.90753225 16.12264974 -4.90753225 16.12264974 -1 15 C-0.41740332 12.98291985 -0.41740332 12.98291985 -0.1875 10.625 C-0.07792969 9.83351563 0.03164063 9.04203125 0.14453125 8.2265625 C0.19614194 5.93506543 0.19614194 5.93506543 -1.296875 4.23046875 C-4.67063672 1.79300328 -8.14652456 2.14652456 -11 5 Z " fill="#EE3438" transform="translate(345,426)"/>
<path d="M0 0 C3.4375 0.875 3.4375 0.875 4.875 2.5 C5.62493116 5.66637601 5.56211626 8.63497731 5.4375 11.875 C4.4475 12.205 3.4575 12.535 2.4375 12.875 C1.7775 9.905 1.1175 6.935 0.4375 3.875 C-0.2225 3.875 -0.8825 3.875 -1.5625 3.875 C-1.2325 4.865 -0.9025 5.855 -0.5625 6.875 C-0.359375 9.03125 -0.359375 9.03125 -0.3125 11.375 C-0.27382812 12.53515625 -0.27382812 12.53515625 -0.234375 13.71875 C-0.64482805 16.41601292 -1.39885758 17.25860204 -3.5625 18.875 C-7.04884568 19.39424297 -8.87413508 19.27352706 -11.9375 17.5 C-14.43213042 13.4702124 -13.87985888 9.49433486 -13.5625 4.875 C-12.2425 5.205 -10.9225 5.535 -9.5625 5.875 C-9.5625 8.185 -9.5625 10.495 -9.5625 12.875 C-8.2425 13.205 -6.9225 13.535 -5.5625 13.875 C-5.7275 13.38 -5.8925 12.885 -6.0625 12.375 C-6.78922185 8.74139077 -6.80210918 5.58894234 -6.5625 1.875 C-3.5625 -0.125 -3.5625 -0.125 0 0 Z " fill="#ED3539" transform="translate(93.5625,354.125)"/>
<path d="M0 0 C0 1.32 0 2.64 0 4 C-2.22385681 5.72525399 -4.57141647 6.97706561 -7.03125 8.33984375 C-9.30017791 9.86385376 -9.30017791 9.86385376 -9.28125 12.69140625 C-9.14203125 13.83416016 -9.14203125 13.83416016 -9 15 C-4.51951064 14.59268279 -2.08841783 12.75521306 1.25390625 9.9609375 C3 9 3 9 5.21484375 9.3515625 C6.09849609 9.67253906 6.09849609 9.67253906 7 10 C4.60393469 15.43108138 0.24831234 18.52405198 -5 21 C-8.9921129 21.12877784 -10.87709671 20.94178985 -13.9375 18.375 C-15.49067224 14.90320322 -15.57609439 12.77661877 -15 9 C-11.29879222 3.05890272 -7.18025707 -0.39890317 0 0 Z " fill="#EE3236" transform="translate(105,367)"/>
<path d="M0 0 C1.43861294 0.08746284 2.87597508 0.19565348 4.3125 0.3125 C5.11300781 0.37050781 5.91351563 0.42851562 6.73828125 0.48828125 C9.4170136 1.09435023 10.38258968 1.80198085 12 4 C12.1875 7.1875 12.1875 7.1875 12 10 C10.125 9.8125 10.125 9.8125 8 9 C6.75 6.4375 6.75 6.4375 6 4 C5.01 4.495 5.01 4.495 4 5 C4.99 5.9590625 4.99 5.9590625 6 6.9375 C8.68221553 11.04464253 8.37381974 14.23379829 8 19 C4.97562661 20.5121867 2.33758466 20.17263369 -1 20 C-3.76142665 18.98263229 -4.68085371 18.63829259 -6 16 C-6.04022391 13.6670134 -6.04320247 11.33293334 -6 9 C-4.0625 9.75 -4.0625 9.75 -2 11 C-1.25 13.125 -1.25 13.125 -1 15 C0.32 15 1.64 15 3 15 C1.24545615 11.81765895 1.24545615 11.81765895 -1 9 C-1.23728814 2.47457627 -1.23728814 2.47457627 0 0 Z " fill="#ED2A2F" transform="translate(153,417)"/>
<path d="M0 0 C3.66292167 1.08086213 5.3083716 2.52231561 7.3828125 5.703125 C8.07506239 9.933541 7.62182491 12.16534708 5.8828125 16.078125 C2.98267561 19.12326873 1.49923169 19.65416497 -2.5859375 19.8828125 C-6.77128357 19.51257035 -9.71264484 17.60766766 -12.6171875 14.703125 C-13.44691047 9.76845682 -13.29256863 5.85127292 -10.7421875 1.515625 C-6.80945554 -0.76535954 -4.41822412 -0.71219135 0 0 Z M-9.6171875 5.703125 C-10.00940812 8.77551986 -10.14455292 10.80350164 -8.5546875 13.515625 C-5.6411689 15.30132995 -2.99094563 15.51910183 0.3828125 15.703125 C2.79403109 13.74678525 2.79403109 13.74678525 2.5078125 10.078125 C2.4665625 8.964375 2.4253125 7.850625 2.3828125 6.703125 C-3.60096555 3.27564748 -3.60096555 3.27564748 -9.6171875 5.703125 Z " fill="#ED3135" transform="translate(436.6171875,334.296875)"/>
<path d="M0 0 C0.680625 -0.00515625 1.36125 -0.0103125 2.0625 -0.015625 C4 0.25 4 0.25 7 2.25 C7 3.24 7 4.23 7 5.25 C6.36191406 5.23839844 5.72382813 5.22679687 5.06640625 5.21484375 C4.24011719 5.20582031 3.41382813 5.19679688 2.5625 5.1875 C1.73878906 5.17589844 0.91507812 5.16429687 0.06640625 5.15234375 C-1.99163938 5.01732652 -1.99163938 5.01732652 -3 6.25 C-2.30132812 6.44335938 -1.60265625 6.63671875 -0.8828125 6.8359375 C0.48230469 7.22652344 0.48230469 7.22652344 1.875 7.625 C2.77992188 7.88023437 3.68484375 8.13546875 4.6171875 8.3984375 C7 9.25 7 9.25 9 11.25 C8.53846154 17.71153846 8.53846154 17.71153846 6 20.25 C-1.21875 21.51041667 -1.21875 21.51041667 -5 20.25 C-6.1875 17.6875 -6.1875 17.6875 -7 15.25 C-2.99799622 13.64919849 0.04556236 14.95720308 4 16.25 C4 15.26 4 14.27 4 13.25 C0.37 12.26 -3.26 11.27 -7 10.25 C-7.29296875 4.1953125 -7.29296875 4.1953125 -7 2.25 C-4.00261059 0.25174039 -3.36652492 -0.02550398 0 0 Z " fill="#ED393D" transform="translate(274,442.75)"/>
<path d="M0 0 C6.26017123 2.26431725 10.8928969 5.77303258 16 10 C15.34 11.32 14.68 12.64 14 14 C11.69 13.01 9.38 12.02 7 11 C6.34 12.32 5.68 13.64 5 15 C5.680625 15.763125 6.36125 16.52625 7.0625 17.3125 C8.0215625 18.6428125 8.0215625 18.6428125 9 20 C8.67 20.99 8.34 21.98 8 23 C3.36711185 21.70931268 0.30246056 19.9561156 -3.375 16.875 C-4.24898438 16.15054687 -5.12296875 15.42609375 -6.0234375 14.6796875 C-6.67570312 14.12539063 -7.32796875 13.57109375 -8 13 C-7.67 12.01 -7.34 11.02 -7 10 C-4.36 10.33 -1.72 10.66 1 11 C1.66 9.68 2.32 8.36 3 7 C1.68 5.68 0.36 4.36 -1 3 C-0.67 2.01 -0.34 1.02 0 0 Z " fill="#EE353A" transform="translate(409,365)"/>
<path d="M0 0 C2.3992233 4.64849515 2.19957409 8.91086074 2 14 C0.68 13.67 -0.64 13.34 -2 13 C-2 10.03 -2 7.06 -2 4 C-3.98 4.99 -3.98 4.99 -6 6 C-6 8.97 -6 11.94 -6 15 C-6.99 15 -7.98 15 -9 15 C-10.4783226 12.04335481 -10.06032783 9.25770263 -10 6 C-11.65 6 -13.3 6 -15 6 C-14.67 9.63 -14.34 13.26 -14 17 C-14.99 17 -15.98 17 -17 17 C-18.33583899 12.15758367 -19.25328119 8.06562383 -19 3 C-12.49577707 0.99134292 -6.8218683 -0.38614349 0 0 Z " fill="#ED3035" transform="translate(69,280)"/>
<path d="M0 0 C1.32 0.33 2.64 0.66 4 1 C3.67 3.64 3.34 6.28 3 9 C3.99 9.66 4.98 10.32 6 11 C7.65 9.68 9.3 8.36 11 7 C11.66 8.32 12.32 9.64 13 11 C9.04 15.29 5.08 19.58 1 24 C0.01 23.34 -0.98 22.68 -2 22 C-1.690625 21.4225 -1.38125 20.845 -1.0625 20.25 C-0.07416636 18.15705816 0.5168613 16.25464725 1 14 C-1.475 13.01 -1.475 13.01 -4 12 C-5.65 13.32 -7.3 14.64 -9 16 C-9.66 14.68 -10.32 13.36 -11 12 C-10.28972656 11.30132812 -9.57945313 10.60265625 -8.84765625 9.8828125 C-7.92855469 8.97273438 -7.00945312 8.06265625 -6.0625 7.125 C-4.68771484 5.76761719 -4.68771484 5.76761719 -3.28515625 4.3828125 C-0.98812373 2.22317745 -0.98812373 2.22317745 0 0 Z " fill="#EE373C" transform="translate(125,394)"/>
<path d="M0 0 C1.65 0.33 3.3 0.66 5 1 C3.41078475 6.36095277 1.81027062 11.70843973 0 17 C2.89460915 16.97767855 2.89460915 16.97767855 6 16 C8.02285536 13.28406428 8.02285536 13.28406428 9.375 9.9375 C9.87773437 8.83277344 10.38046875 7.72804688 10.8984375 6.58984375 C11.26195312 5.73519531 11.62546875 4.88054687 12 4 C12.99 4.33 13.98 4.66 15 5 C14.52412884 11.02770138 11.80277043 15.76678289 9 21 C7.39620659 21.05416188 5.79188594 21.09286638 4.1875 21.125 C3.29417969 21.14820313 2.40085938 21.17140625 1.48046875 21.1953125 C-1 21 -1 21 -4 19 C-5.46481119 12.01905298 -3.28862461 6.07808298 0 0 Z " fill="#ED2E32" transform="translate(174,427)"/>
<path d="M0 0 C0.95827504 3.04498611 0.99431517 5.02273931 0.22265625 8.109375 C0.03896484 8.86347656 -0.14472656 9.61757813 -0.33398438 10.39453125 C-0.53314453 11.17183594 -0.73230469 11.94914062 -0.9375 12.75 C-1.23043945 13.93916016 -1.23043945 13.93916016 -1.52929688 15.15234375 C-2.01124079 17.10362885 -2.50452088 19.05210783 -3 21 C-4.32 21 -5.64 21 -7 21 C-7.15855469 20.43410156 -7.31710938 19.86820312 -7.48046875 19.28515625 C-8.18458961 17.07164924 -8.90370093 15.0496026 -10 13 C-12.43810155 11.84525388 -12.43810155 11.84525388 -15 12 C-15.99 12 -16.98 12 -18 12 C-17.67539864 8.99909355 -17.12817102 8.10918272 -14.78515625 6.11328125 C-13.88667969 5.51902344 -12.98820313 4.92476563 -12.0625 4.3125 C-11.16660156 3.71050781 -10.27070313 3.10851562 -9.34765625 2.48828125 C-5.89868115 0.30182615 -4.07154194 -0.10714584 0 0 Z M-5 4 C-6.32 4.99 -7.64 5.98 -9 7 C-8.67 7.99 -8.34 8.98 -8 10 C-7.01 10.33 -6.02 10.66 -5 11 C-4.34 9.02 -3.68 7.04 -3 5 C-3.66 4.67 -4.32 4.34 -5 4 Z " fill="#ED383C" transform="translate(147,409)"/>
<path d="M0 0 C0 1.32 0 2.64 0 4 C-1.98 4.66 -3.96 5.32 -6 6 C-5.34 8.31 -4.68 10.62 -4 13 C-0.02245872 13.73334429 -0.02245872 13.73334429 4 14 C4 12.02 4 10.04 4 8 C5.9375 7.4375 5.9375 7.4375 8 7 C9 8 9 8 9.3125 10.75 C9 14 9 14 7.625 16.875 C4.16527284 19.67573151 1.78059682 19.72651237 -2.58203125 19.46875 C-5 19 -5 19 -8.125 17.125 C-10.76137573 12.73104045 -10.90263575 9.00245793 -10 4 C-7.33708529 -0.30163145 -4.8582279 -0.44165708 0 0 Z " fill="#ED3135" transform="translate(402,381)"/>
<path d="M0 0 C0.474375 1.134375 0.94875 2.26875 1.4375 3.4375 C4.16332987 8.97836872 8.5132044 12.85834253 13 17 C12.34 18.32 11.68 19.64 11 21 C7.31152357 19.21164779 5.14952492 17.07748472 2.625 13.9375 C-0.67026455 9.99042488 -2.96795207 8.82155884 -8 8 C-8 7.34 -8 6.68 -8 6 C-13.94 5.01 -13.94 5.01 -20 4 C-20 3.01 -20 2.02 -20 1 C-18.41058594 1.01740234 -18.41058594 1.01740234 -16.7890625 1.03515625 C-15.40104342 1.04453476 -14.01302245 1.05363489 -12.625 1.0625 C-11.57699219 1.07506836 -11.57699219 1.07506836 -10.5078125 1.08789062 C-6.7243012 1.10608058 -3.64142767 0 0 0 Z " fill="#EE383C" transform="translate(114,103)"/>
<path d="M0 0 C0.66 0.33 1.32 0.66 2 1 C2.33 1.99 2.66 2.98 3 4 C6.51190809 5.22969878 6.51190809 5.22969878 10 6 C9.505 6.474375 9.01 6.94875 8.5 7.4375 C6.29546331 11.20358351 6.75391887 14.73459379 7 19 C6.10474609 18.49533203 6.10474609 18.49533203 5.19140625 17.98046875 C1.35372416 16.26343095 -2.16626058 17.72208686 -6 19 C-5.896875 17.783125 -5.79375 16.56625 -5.6875 15.3125 C-5.65408479 11.54994773 -5.90669702 11.11196358 -8.5 8 C-9.325 7.34 -10.15 6.68 -11 6 C-8.03 6 -5.06 6 -2 6 C-1.34 4.02 -0.68 2.04 0 0 Z " fill="#ED3B3F" transform="translate(451,217)"/>
<path d="M0 0 C0.99 0.33 1.98 0.66 3 1 C3.33 2.65 3.66 4.3 4 6 C6.64 6 9.28 6 12 6 C11.01 7.485 11.01 7.485 10 9 C9.34 9 8.68 9 8 9 C8 12.3 8 15.6 8 19 C6.68 18.34 5.36 17.68 4 17 C0.7887064 17.32768302 -1.93844769 17.97948256 -5 19 C-4.95359375 18.39671875 -4.9071875 17.7934375 -4.859375 17.171875 C-4.52189688 11.91586667 -4.52189688 11.91586667 -7 7.4375 C-7.66 6.963125 -8.32 6.48875 -9 6 C-6.36 5.67 -3.72 5.34 -1 5 C-0.67 3.35 -0.34 1.7 0 0 Z " fill="#ED353A" transform="translate(57,217)"/>
<path d="M0 0 C3.31248187 -0.02888146 6.62493167 -0.04675799 9.9375 -0.0625 C10.88302734 -0.07087891 11.82855469 -0.07925781 12.80273438 -0.08789062 C14.15141602 -0.09272461 14.15141602 -0.09272461 15.52734375 -0.09765625 C16.77632446 -0.10551147 16.77632446 -0.10551147 18.05053711 -0.11352539 C20 0 20 0 21 1 C21.32421875 3.3046875 21.32421875 3.3046875 21 6 C19.20703125 8.1328125 19.20703125 8.1328125 16.8125 10.125 C16.03519531 10.78757812 15.25789063 11.45015625 14.45703125 12.1328125 C8.05230126 17 8.05230126 17 5 17 C5.10699219 16.31292969 5.21398438 15.62585938 5.32421875 14.91796875 C5.44410156 14.01691406 5.56398438 13.11585938 5.6875 12.1875 C5.87892578 10.84751953 5.87892578 10.84751953 6.07421875 9.48046875 C6.2338213 6.96938287 6.2338213 6.96938287 4.70703125 5.23828125 C2.90681929 3.80167571 2.90681929 3.80167571 0 3 C0 2.01 0 1.02 0 0 Z M9 3 C9.33 4.65 9.66 6.3 10 8 C11.94999129 7.80528889 11.94999129 7.80528889 14 7 C15.28436734 5.0162233 15.28436734 5.0162233 16 3 C13.69 3 11.38 3 9 3 Z " fill="#EC252A" transform="translate(57,315)"/>
<path d="M0 0 C0.99 0.99 1.98 1.98 3 3 C0.69 4.65 -1.62 6.3 -4 8 C-3.01 9.485 -3.01 9.485 -2 11 C-1.13375 10.2265625 -1.13375 10.2265625 -0.25 9.4375 C2 8 2 8 4.25 8.3125 C4.8275 8.539375 5.405 8.76625 6 9 C6 9.99 6 10.98 6 12 C4.02 12.99 4.02 12.99 2 14 C2.33 16.64 2.66 19.28 3 22 C-0.33126085 21.70707879 -1.674468 21.35180525 -3.984375 18.85546875 C-4.85835938 17.53482422 -4.85835938 17.53482422 -5.75 16.1875 C-6.34296875 15.31480469 -6.9359375 14.44210937 -7.546875 13.54296875 C-9 11 -9 11 -10 7 C-6.7 4.69 -3.4 2.38 0 0 Z " fill="#ED3438" transform="translate(355,415)"/>
<path d="M0 0 C1.32 0 2.64 0 4 0 C3.9278125 1.09699219 3.855625 2.19398438 3.78125 3.32421875 C3.68741634 4.77864044 3.593671 6.23306783 3.5 7.6875 C3.45230469 8.40873047 3.40460938 9.12996094 3.35546875 9.87304688 C3.11796481 13.58828714 2.94125363 17.27694874 3 21 C0.50866302 20.63208104 -0.67585001 20.4076733 -2.2734375 18.3984375 C-2.63695312 17.73070312 -3.00046875 17.06296875 -3.375 16.375 C-5.82378158 12.14875391 -8.72113492 8.60562483 -12 5 C-7.94568308 3.84162374 -5.78187881 4.16308743 -2 6 C-1.34 4.02 -0.68 2.04 0 0 Z " fill="#ED373A" transform="translate(317,433)"/>
<path d="M0 0 C6.65783664 3.71302428 6.65783664 3.71302428 8.9375 5.625 C12.07424584 7.7161639 15.32804772 8.20441034 19 9 C18.67 10.32 18.34 11.64 18 13 C17.29875 13.10957031 16.5975 13.21914063 15.875 13.33203125 C9.90903906 14.32906005 4.58657632 15.68104379 -1 18 C-0.25 13.25 -0.25 13.25 2 11 C2.99 11 3.98 11 5 11 C4.175 10.113125 3.35 9.22625 2.5 8.3125 C0.53900524 5.98692593 0.02740522 5.25212806 -0.3125 2.125 C-0.209375 1.42375 -0.10625 0.7225 0 0 Z " fill="#ED3337" transform="translate(444,261)"/>
<path d="M0 0 C0.94875 0.86625 1.8975 1.7325 2.875 2.625 C6.57116168 5.83741045 10.54393991 8.12811527 14.86328125 10.41015625 C17.4482648 12.33353524 18.07249205 13.96125848 19 17 C14.61211921 17 13.78672037 16.44018705 10.3125 14.0625 C5.38329311 10.94970219 1.78668866 10.18666738 -4 10 C-3.5205537 5.78087253 -2.83374881 3.20336822 0 0 Z " fill="#EE383C" transform="translate(76,148)"/>
<path d="M0 0 C-0.19456787 0.57524414 -0.38913574 1.15048828 -0.58959961 1.74316406 C-1.08103914 4.44564294 -0.64579858 5.6097296 0.43359375 8.109375 C0.75263672 8.86347656 1.07167969 9.61757812 1.40039062 10.39453125 C1.74263672 11.17183594 2.08488281 11.94914062 2.4375 12.75 C2.77587891 13.54277344 3.11425781 14.33554688 3.46289062 15.15234375 C4.29845982 17.10592806 5.14790442 19.0535672 6 21 C5.01 21.99 4.02 22.98 3 24 C0.20170725 21.55457114 -1.15306136 18.9887844 -2.6875 15.625 C-3.12449219 14.68914062 -3.56148437 13.75328125 -4.01171875 12.7890625 C-5.00747184 9.97891346 -5.19862672 7.9525594 -5 5 C-6.32 5.33 -7.64 5.66 -9 6 C-9 4.68 -9 3.36 -9 2 C-3.375 0 -3.375 0 0 0 Z " fill="#ED3337" transform="translate(181,60)"/>
<path d="M0 0 C2.0625 0.4375 2.0625 0.4375 4 1 C3.67 2.98 3.34 4.96 3 7 C3.65226562 6.71125 4.30453125 6.4225 4.9765625 6.125 C9.79241835 4.07932672 13.6591018 2.43780019 19 3 C19 4.32 19 5.64 19 7 C7.34575809 12.70273249 7.34575809 12.70273249 2.8125 11.375 C0 10 0 10 -1 9 C-1.1328125 7.1875 -1.1328125 7.1875 -1.125 5 C-1.12757812 4.278125 -1.13015625 3.55625 -1.1328125 2.8125 C-1 1 -1 1 0 0 Z " fill="#EE3539" transform="translate(66,332)"/>
<path d="M0 0 C2.75328098 2.37783357 3.96944911 4.51198161 5 8 C5.07646165 10.3320802 5.09143299 12.66845878 5 15 C3.68 14.34 2.36 13.68 1 13 C1 12.34 1 11.68 1 11 C0.18015625 11.2165625 -0.6396875 11.433125 -1.484375 11.65625 C-2.56203125 11.9346875 -3.6396875 12.213125 -4.75 12.5 C-5.81734375 12.7784375 -6.8846875 13.056875 -7.984375 13.34375 C-11 14 -11 14 -15 14 C-14.67 12.35 -14.34 10.7 -14 9 C-9.15758367 7.66416101 -5.06562383 6.74671881 0 7 C-0.185625 6.030625 -0.37125 5.06125 -0.5625 4.0625 C-0.706875 3.051875 -0.85125 2.04125 -1 1 C-0.67 0.67 -0.34 0.34 0 0 Z " fill="#EE363B" transform="translate(70,296)"/>
<path d="M0 0 C-0.33 0.99 -0.66 1.98 -1 3 C-2.32 3 -3.64 3 -5 3 C-4.7834375 3.64066406 -4.566875 4.28132813 -4.34375 4.94140625 C-2.65940004 10.1738082 -1.64173214 14.5065595 -2 20 C-3.32 19.67 -4.64 19.34 -6 19 C-7.33583899 14.15758367 -8.25328119 10.06562383 -8 5 C-10.31 5 -12.62 5 -15 5 C-14.67 3.68 -14.34 2.36 -14 1 C-9.23692563 0.04738513 -4.8333472 -0.08333357 0 0 Z " fill="#ED2D31" transform="translate(304,439)"/>
<path d="M0 0 C-0.33 0.721875 -0.66 1.44375 -1 2.1875 C-2.04684003 5.13173758 -2.56689432 6.92257371 -2 10 C0.8190166 12.19256847 3.49957156 13.35177251 7 14 C7 14.99 7 15.98 7 17 C3.49348982 18.16883673 1.96019096 17.98695911 -1.625 16.8125 C-6.43020759 14.23192555 -6.43020759 14.23192555 -8 11 C-8.5 8.0625 -8.5 8.0625 -8 5 C-3.97826087 0 -3.97826087 0 0 0 Z " fill="#ED3035" transform="translate(444,302)"/>
<path d="M0 0 C0.99 0 1.98 0 3 0 C2.50269348 4.97306516 1.44697666 8.63799813 -1 13 C-7.29722557 11.60061654 -13.06084316 9.50710309 -19 7 C-18.67 6.01 -18.34 5.02 -18 4 C-12.72 5.32 -7.44 6.64 -2 8 C-1.67 5.69 -1.34 3.38 -1 1 C-0.67 0.67 -0.34 0.34 0 0 Z " fill="#EE363A" transform="translate(449,323)"/>
<path d="M0 0 C8.58 0 17.16 0 26 0 C26 3.3 26 6.6 26 10 C23.03 10 20.06 10 17 10 C17 9.67 17 9.34 17 9 C19.31 9 21.62 9 24 9 C24 6.69 24 4.38 24 2 C16.74 2 9.48 2 2 2 C2 4.31 2 6.62 2 9 C4.31 9 6.62 9 9 9 C9 9.33 9 9.66 9 10 C6.03 10 3.06 10 0 10 C0 6.7 0 3.4 0 0 Z " fill="#EE454A" transform="translate(291,227)"/>
<path d="M0 0 C-1.49233485 4.2023417 -3.91634948 5.37643507 -7.8125 7.3125 C-9.36904297 8.11107422 -9.36904297 8.11107422 -10.95703125 8.92578125 C-14.22288643 10.07868263 -15.74654912 10.02835508 -19 9 C-17.66736376 5.00209129 -15.89342837 4.38181959 -12.3125 2.25 C-11.27738281 1.61578125 -10.24226563 0.9815625 -9.17578125 0.328125 C-5.55192756 -1.18738577 -3.73797122 -1.00874785 0 0 Z " fill="#EE353A" transform="translate(89,342)"/>
<path d="M0 0 C6.34339651 1.80610595 11.56938255 4.25627734 17 8 C16.67 9.32 16.34 10.64 16 12 C13.69 12 11.38 12 9 12 C9 11.01 9 10.02 9 9 C5.7 7.35 2.4 5.7 -1 4 C-0.67 2.68 -0.34 1.36 0 0 Z " fill="#ED2F33" transform="translate(419,350)"/>
<path d="M0 0 C0 1.32 0 2.64 0 4 C-2.01171875 5.8515625 -2.01171875 5.8515625 -4.6875 7.625 C-5.99267578 8.51058594 -5.99267578 8.51058594 -7.32421875 9.4140625 C-9.83343608 10.90127744 -12.26397057 12.00418388 -15 13 C-14.56562648 8.07710011 -12.356381 5.51249175 -9 2 C-5.96808359 -0.08444253 -3.63890389 -0.20216133 0 0 Z " fill="#ED2D32" transform="translate(105,367)"/>
<path d="M0 0 C3.96 0 7.92 0 12 0 C12 0.33 12 0.66 12 1 C9.69 1 7.38 1 5 1 C5.33 2.98 5.66 4.96 6 7 C6.66 7 7.32 7 8 7 C8 7.99 8 8.98 8 10 C8.66 10.33 9.32 10.66 10 11 C8.87926138 11.83905565 7.75325453 12.67107831 6.625 13.5 C5.99851562 13.9640625 5.37203125 14.428125 4.7265625 14.90625 C3 16 3 16 1 16 C1.10699219 15.32453125 1.21398438 14.6490625 1.32421875 13.953125 C1.50404297 12.61507813 1.50404297 12.61507813 1.6875 11.25 C1.81511719 10.36828125 1.94273438 9.4865625 2.07421875 8.578125 C1.98397191 5.44323483 1.07384637 4.28176413 -1 2 C-0.67 1.34 -0.34 0.68 0 0 Z " fill="#ED282B" transform="translate(61,316)"/>
<path d="M0 0 C0.99 0.33 1.98 0.66 3 1 C2.7159949 3.06356895 2.42246648 5.1258285 2.125 7.1875 C1.96257812 8.33605469 1.80015625 9.48460937 1.6328125 10.66796875 C1.05939755 13.68724625 0.25240957 16.20575848 -1 19 C-2.32 19 -3.64 19 -5 19 C-3.57142857 3.57142857 -3.57142857 3.57142857 0 0 Z " fill="#EE363A" transform="translate(210,439)"/>
<path d="M0 0 C0.99 0 1.98 0 3 0 C5.00865708 6.50422293 6.38614349 12.1781317 6 19 C5.01 19 4.02 19 3 19 C0.6969113 12.43345544 -0.33693273 6.96327638 0 0 Z " fill="#ED2C31" transform="translate(284,442)"/>
<path d="M0 0 C3.62732988 -0.51818998 4.80004811 -0.14663138 7.8125 2.0625 C10.50969342 5.68444546 10.58378066 7.57994641 10 12 C9.34 12.66 8.68 13.32 8 14 C8 13.34 8 12.68 8 12 C7.01 12.33 6.02 12.66 5 13 C4.67 10.69 4.34 8.38 4 6 C1.525 5.01 1.525 5.01 -1 4 C-0.67 2.68 -0.34 1.36 0 0 Z " fill="#EE343A" transform="translate(434,335)"/>
<path d="M0 0 C2.0625 0.4375 2.0625 0.4375 4 1 C4.33975517 4.65236803 4.20830209 6.61672415 2.4375 9.875 C0 12 0 12 -3.75 12.3125 C-4.8225 12.209375 -5.895 12.10625 -7 12 C-6.25 10.0625 -6.25 10.0625 -5 8 C-2.875 7.25 -2.875 7.25 -1 7 C-1.020625 6.030625 -1.04125 5.06125 -1.0625 4.0625 C-1 1 -1 1 0 0 Z " fill="#ED2F34" transform="translate(407,388)"/>
<path d="M0 0 C2.64 0 5.28 0 8 0 C10.3992233 4.64849515 10.19957409 8.91086074 10 14 C8.68 13.67 7.36 13.34 6 13 C6 10.03 6 7.06 6 4 C4.68 3.67 3.36 3.34 2 3 C1.34 2.67 0.68 2.34 0 2 C0 1.34 0 0.68 0 0 Z " fill="#ED2A2F" transform="translate(61,280)"/>
<path d="M0 0 C2.64 0 5.28 0 8 0 C8.66 0.66 9.32 1.32 10 2 C7.69 2 5.38 2 3 2 C3 2.928125 3 3.85625 3 4.8125 C3 9.54166667 3 14.27083333 3 19 C2.01 19 1.02 19 0 19 C0 12.73 0 6.46 0 0 Z " fill="#EC1216" transform="translate(249,445)"/>
<path d="M0 0 C0.66 0 1.32 0 2 0 C2 1.98 2 3.96 2 6 C5.3 6 8.6 6 12 6 C12 6.99 12 7.98 12 9 C9.85423363 9.02685938 7.70837355 9.04633088 5.5625 9.0625 C4.36753906 9.07410156 3.17257813 9.08570313 1.94140625 9.09765625 C-1 9 -1 9 -2 8 C-2.1875 5.0625 -2.1875 5.0625 -2 2 C-1.34 1.34 -0.68 0.68 0 0 Z " fill="#EC181C" transform="translate(233,454)"/>
<path d="M0 0 C0 0.66 0 1.32 0 2 C2.475 2.495 2.475 2.495 5 3 C3 5 3 5 1.0546875 5.1953125 C-0.96354167 5.13020833 -2.98177083 5.06510417 -5 5 C-5.33 4.01 -5.66 3.02 -6 2 C-9.3 1.67 -12.6 1.34 -16 1 C-10.86339576 -1.56830212 -5.12845967 -3.63265894 0 0 Z " fill="#EF6367" transform="translate(429,359)"/>
<path d="M0 0 C3.375 0.3125 3.375 0.3125 7 1 C7.66 1.99 8.32 2.98 9 4 C8.01 4.495 8.01 4.495 7 5 C7 7.97 7 10.94 7 14 C6.01 14 5.02 14 4 14 C2.5216774 11.04335481 2.93967217 8.25770263 3 5 C2.34 4.67 1.68 4.34 1 4 C1.33 3.01 1.66 2.02 2 1 C1.34 0.67 0.68 0.34 0 0 Z " fill="#EE4F54" transform="translate(56,281)"/>
<path d="M0 0 C0.99 0.33 1.98 0.66 3 1 C2.88512252 2.58409994 2.75765492 4.16728963 2.625 5.75 C2.55539063 6.63171875 2.48578125 7.5134375 2.4140625 8.421875 C2.00149945 10.99066382 1.28839043 12.75841015 0 15 C-0.99 14.67 -1.98 14.34 -3 14 C-2.88512252 12.41590006 -2.75765492 10.83271037 -2.625 9.25 C-2.55539063 8.36828125 -2.48578125 7.4865625 -2.4140625 6.578125 C-2.00149945 4.00933618 -1.28839043 2.24158985 0 0 Z " fill="#ED2A2F" transform="translate(143,416)"/>
<path d="M0 0 C-0.33 1.32 -0.66 2.64 -1 4 C-5.24551856 5.09587955 -8.9592839 4.92865836 -13.3125 4.5625 C-14.56675781 4.46066406 -15.82101563 4.35882813 -17.11328125 4.25390625 C-18.06589844 4.17011719 -19.01851563 4.08632812 -20 4 C-20 3.01 -20 2.02 -20 1 C-18.41058594 1.01740234 -18.41058594 1.01740234 -16.7890625 1.03515625 C-15.40104342 1.04453476 -14.01302245 1.05363489 -12.625 1.0625 C-11.57699219 1.07506836 -11.57699219 1.07506836 -10.5078125 1.08789062 C-6.7243012 1.10608058 -3.64142767 0 0 0 Z " fill="#EC282E" transform="translate(114,103)"/>
<path d="M0 0 C-1.44186047 4.56589147 -1.44186047 4.56589147 -3.6875 6.3125 C-6.83356663 7.2478171 -9.73924509 7.12541365 -13 7 C-12.73828125 5.109375 -12.73828125 5.109375 -12 3 C-10.29296875 1.953125 -10.29296875 1.953125 -8.1875 1.25 C-7.15689453 0.88648438 -7.15689453 0.88648438 -6.10546875 0.515625 C-4 0 -4 0 0 0 Z " fill="#EC262A" transform="translate(83,182)"/>
<path d="M0 0 C0.680625 -0.00515625 1.36125 -0.0103125 2.0625 -0.015625 C4 0.25 4 0.25 7 2.25 C7 3.24 7 4.23 7 5.25 C-5 5.25 -5 5.25 -7 4.25 C-7 3.59 -7 2.93 -7 2.25 C-4.00261059 0.25174039 -3.36652492 -0.02550398 0 0 Z " fill="#EE3C41" transform="translate(274,442.75)"/>
<path d="M0 0 C0.99 0.33 1.98 0.66 3 1 C2.69024532 2.77131561 2.37709575 4.54203778 2.0625 6.3125 C1.88847656 7.29863281 1.71445313 8.28476562 1.53515625 9.30078125 C1 12 1 12 0 15 C-0.66 15 -1.32 15 -2 15 C-3.09644404 9.05542387 -3.41029848 5.32006564 0 0 Z " fill="#EC1E22" transform="translate(203,437)"/>
<path d="M0 0 C0 0.99 0 1.98 0 3 C-4.26616316 4.13764351 -7.56486311 5 -12 5 C-11.67 3.35 -11.34 1.7 -11 0 C-6.94952424 -1.35015859 -4.2079832 -0.62084998 0 0 Z " fill="#ED2A2E" transform="translate(67,305)"/>
<path d="M0 0 C0.99 0.33 1.98 0.66 3 1 C3 1.66 3 2.32 3 3 C5.64 3.33 8.28 3.66 11 4 C11 5.32 11 6.64 11 8 C9.54119891 7.85892253 8.08296449 7.71197585 6.625 7.5625 C5.40683594 7.44068359 5.40683594 7.44068359 4.1640625 7.31640625 C2 7 2 7 0 6 C0 4.02 0 2.04 0 0 Z " fill="#EC262B" transform="translate(267,447)"/>
<path d="M0 0 C0.99 0 1.98 0 3 0 C3.33 2.31 3.66 4.62 4 7 C4.99 7 5.98 7 7 7 C7.33 7.99 7.66 8.98 8 10 C1.56777857 9.51454933 1.56777857 9.51454933 -1 7.1875 C-2 5 -2 5 -1.75 2.8125 C-1 1 -1 1 0 0 Z " fill="#ED3E43" transform="translate(92,378)"/>
<path d="M0 0 C-0.28875 0.680625 -0.5775 1.36125 -0.875 2.0625 C-2.12597355 5.32893093 -3.07447955 8.62846123 -4 12 C-5.32 11.67 -6.64 11.34 -8 11 C-8.3125 8.3125 -8.3125 8.3125 -8 5 C-3.97826087 0 -3.97826087 0 0 0 Z " fill="#EC262B" transform="translate(444,302)"/>
<path d="M0 0 C0.33 0.66 0.66 1.32 1 2 C0.0625 4.625 0.0625 4.625 -1 7 C0.32 7.99 1.64 8.98 3 10 C2.67 11.32 2.34 12.64 2 14 C-1.36591866 12.55746343 -3.51047079 10.66735273 -6 8 C-4.55746343 4.63408134 -2.66735273 2.48952921 0 0 Z " fill="#ED2E31" transform="translate(107,388)"/>
<path d="M0 0 C0 1.32 0 2.64 0 4 C-0.969375 4.2475 -1.93875 4.495 -2.9375 4.75 C-4.4534375 5.36875 -4.4534375 5.36875 -6 6 C-6.96877057 8.03243548 -6.96877057 8.03243548 -7 10 C-7.33 8.35 -7.66 6.7 -8 5 C-8.99 5.495 -8.99 5.495 -10 6 C-7.83322503 -0.036016 -6.28508493 -0.13663228 0 0 Z " fill="#EE3E42" transform="translate(402,381)"/>
<path d="M0 0 C1.0725 0.2475 2.145 0.495 3.25 0.75 C3.25 1.41 3.25 2.07 3.25 2.75 C2.280625 3.03875 1.31125 3.3275 0.3125 3.625 C-2.85664203 4.39214682 -2.85664203 4.39214682 -3.75 6.75 C-4.41 6.75 -5.07 6.75 -5.75 6.75 C-6.08 8.07 -6.41 9.39 -6.75 10.75 C-7.75 9.75 -7.75 9.75 -8.0625 6.9375 C-7.75 3.75 -7.75 3.75 -6.1875 1.3125 C-3.75 -0.25 -3.75 -0.25 0 0 Z " fill="#EE4043" transform="translate(268.75,52.25)"/>
<path d="M0 0 C1.32 0 2.64 0 4 0 C3.34 4.29 2.68 8.58 2 13 C1.34 13 0.68 13 0 13 C-1.18306728 10.63386544 -1.13354608 9.13219264 -1.125 6.5 C-1.12757813 5.7059375 -1.13015625 4.911875 -1.1328125 4.09375 C-1 2 -1 2 0 0 Z " fill="#ED2F32" transform="translate(317,433)"/>
<path d="M0 0 C3.15981259 0.56425225 6.11755821 1.59773102 9 3 C9.33 3.99 9.66 4.98 10 6 C4.375 7.125 4.375 7.125 1 6 C-0.1875 3.4375 -0.1875 3.4375 -1 1 C-0.67 0.67 -0.34 0.34 0 0 Z " fill="#ED2A2D" transform="translate(268,457)"/>
<path d="M0 0 C2.60444348 -0.05394705 5.20776998 -0.09364469 7.8125 -0.125 C8.55048828 -0.14175781 9.28847656 -0.15851562 10.04882812 -0.17578125 C13.91246426 -0.21074628 15.70903668 -0.19397555 19 2 C12.62641289 2.96205088 6.44070471 3.10655578 0 3 C0 2.01 0 1.02 0 0 Z " fill="#ED272C" transform="translate(260,46)"/>
<path d="M0 0 C2.875 -0.125 2.875 -0.125 6 0 C6.66 0.66 7.32 1.32 8 2 C6.6875 3.5 6.6875 3.5 5 5 C4.01 5 3.02 5 2 5 C2 5.99 2 6.98 2 8 C1.01 8 0.02 8 -1 8 C-1.125 2.25 -1.125 2.25 0 0 Z " fill="#EC252A" transform="translate(452,281)"/>
<path d="M0 0 C-0.433125 0.8353125 -0.433125 0.8353125 -0.875 1.6875 C-2.0413253 4.08494645 -3.0339881 6.51596939 -4 9 C-5.65 7.68 -7.3 6.36 -9 5 C-5.28508772 -1.58552632 -5.28508772 -1.58552632 0 0 Z " fill="#ED3C40" transform="translate(215,57)"/>
<path d="M0 0 C1.32 0.33 2.64 0.66 4 1 C1.03 4.96 1.03 4.96 -2 9 C-3.32 8.67 -4.64 8.34 -6 8 C-4.56036361 4.64084842 -2.87583411 2.28375062 0 0 Z " fill="#ED272A" transform="translate(396,404)"/>
<path d="M0 0 C1.32 0.33 2.64 0.66 4 1 C2.02 3.97 0.04 6.94 -2 10 C-2.33 9.01 -2.66 8.02 -3 7 C-3.99 6.67 -4.98 6.34 -6 6 C-5.09972412 4.96468274 -4.17906965 3.94705835 -3.25 2.9375 C-2.48429687 2.08478516 -2.48429687 2.08478516 -1.703125 1.21484375 C-1.14109375 0.81394531 -0.5790625 0.41304688 0 0 Z " fill="#ED282B" transform="translate(385,392)"/>
<path d="M0 0 C0 1.65 0 3.3 0 5 C-2.97 4.67 -5.94 4.34 -9 4 C-8.67 2.68 -8.34 1.36 -8 0 C-2.25 -1.125 -2.25 -1.125 0 0 Z " fill="#ED373B" transform="translate(298,440)"/>
<path d="M0 0 C0.66 0 1.32 0 2 0 C2 0.99 2 1.98 2 3 C2.66 3.33 3.32 3.66 4 4 C2.87926138 4.83905565 1.75325453 5.67107831 0.625 6.5 C-0.00148438 6.9640625 -0.62796875 7.428125 -1.2734375 7.90625 C-3 9 -3 9 -5 9 C-4.67 7.02 -4.34 5.04 -4 3 C-3.01 3.33 -2.02 3.66 -1 4 C-0.67 2.68 -0.34 1.36 0 0 Z " fill="#EE3D41" transform="translate(67,323)"/>
<path d="M0 0 C0.99 0 1.98 0 3 0 C3.66 0.66 4.32 1.32 5 2 C4.625 5.625 4.625 5.625 4 9 C2.35 8.67 0.7 8.34 -1 8 C-0.67 5.36 -0.34 2.72 0 0 Z " fill="#EE3D43" transform="translate(345,433)"/>
<path d="M0 0 C-5.14285714 4.42857143 -5.14285714 4.42857143 -9 5 C-9 4.01 -9 3.02 -9 2 C-10.98 2 -12.96 2 -15 2 C-10.59410693 -0.93726205 -5.06616281 -1.89981105 0 0 Z " fill="#EE494D" transform="translate(283,48)"/>
<path d="M0 0 C0.66 0 1.32 0 2 0 C2 2.97 2 5.94 2 9 C0.68 9.33 -0.64 9.66 -2 10 C-2.1953125 3.9453125 -2.1953125 3.9453125 -2 2 C-1.34 1.34 -0.68 0.68 0 0 Z " fill="#EC1E22" transform="translate(276,51)"/>
<path d="M0 0 C2.31 0 4.62 0 7 0 C7 0.33 7 0.66 7 1 C5.02 1 3.04 1 1 1 C1 2.32 1 3.64 1 5 C2.98 5 4.96 5 7 5 C7 5.33 7 5.66 7 6 C5.02 6 3.04 6 1 6 C1.33 6.99 1.66 7.98 2 9 C1.83988879 11.70123106 1.39559392 14.31875231 1 17 C0.67 17 0.34 17 0 17 C0 14.36 0 11.72 0 9 C-0.66 8.67 -1.32 8.34 -2 8 C-1.34 5.36 -0.68 2.72 0 0 Z " fill="#F17F81" transform="translate(252,447)"/>
<path d="M0 0 C1.32 0.33 2.64 0.66 4 1 C4.1875 4.375 4.1875 4.375 4 8 C3.01 8.66 2.02 9.32 1 10 C-0.60725635 6.78548731 -0.05748185 3.56387464 0 0 Z " fill="#EC1D22" transform="translate(215,440)"/>
<path d="M0 0 C0.66 0.66 1.32 1.32 2 2 C0.2711195 3.41701589 -1.45811746 4.83359686 -3.1875 6.25 C-4.63189453 7.43335938 -4.63189453 7.43335938 -6.10546875 8.640625 C-8.72500523 10.77584772 -11.35729197 12.89356361 -14 15 C-12.55053895 11.66026243 -10.71827612 9.47695341 -8.125 6.9375 C-7.44695312 6.26589844 -6.76890625 5.59429687 -6.0703125 4.90234375 C-4.1292063 3.11872353 -2.1380399 1.53881347 0 0 Z " fill="#EE4145" transform="translate(114,380)"/>
<path d="M0 0 C0.99 0 1.98 0 3 0 C3.66 0.99 4.32 1.98 5 3 C5.99 3.66 6.98 4.32 8 5 C7.34 5.66 6.68 6.32 6 7 C1.44444444 6.44444444 1.44444444 6.44444444 0 5 C-0.04063832 3.33382885 -0.042721 1.66611905 0 0 Z " fill="#ED2A2F" transform="translate(263,59)"/>
<path d="M0 0 C0.91007812 0.00902344 1.82015625 0.01804687 2.7578125 0.02734375 C3.45648438 0.03894531 4.15515625 0.05054688 4.875 0.0625 C4.875 1.0525 4.875 2.0425 4.875 3.0625 C3.4379191 3.11672947 2.00024538 3.15539723 0.5625 3.1875 C-0.23800781 3.21070313 -1.03851563 3.23390625 -1.86328125 3.2578125 C-4.125 3.0625 -4.125 3.0625 -7.125 1.0625 C-4.60024538 -0.19987731 -2.81299534 -0.03606404 0 0 Z " fill="#EC2229" transform="translate(63.125,273.9375)"/>
<path d="M0 0 C0 0.99 0 1.98 0 3 C-4.29 3 -8.58 3 -13 3 C-8.48332093 -0.01111938 -5.3360009 -0.10067926 0 0 Z " fill="#ED2B30" transform="translate(245,460)"/>
<path d="M0 0 C3.3 0 6.6 0 10 0 C10 0.99 10 1.98 10 3 C6.7 3 3.4 3 0 3 C0 2.01 0 1.02 0 0 Z " fill="#ED2328" transform="translate(237,444)"/>
<path d="M0 0 C1.32 0.33 2.64 0.66 4 1 C3.67 3.31 3.34 5.62 3 8 C2.01 8 1.02 8 0 8 C0 5.36 0 2.72 0 0 Z " fill="#EC1E23" transform="translate(80,359)"/>
<path d="M0 0 C-0.62759865 2.92879371 -1.58622659 5.36095629 -3 8 C-3.33 7.34 -3.66 6.68 -4 6 C-4.99 5.67 -5.98 5.34 -7 5 C-6.1875 3.0625 -6.1875 3.0625 -5 1 C-2 0 -2 0 0 0 Z " fill="#EE4146" transform="translate(432,158)"/>
<path d="M0 0 C3.375 -0.125 3.375 -0.125 7 0 C7.66 0.66 8.32 1.32 9 2 C6.69 2 4.38 2 2 2 C2 3.98 2 5.96 2 8 C1.34 8 0.68 8 0 8 C0 5.36 0 2.72 0 0 Z " fill="#EC222B" transform="translate(250,445)"/>
<path d="M0 0 C2.29633824 3.44450737 2.54016485 5.93812283 3 10 C1.68 10 0.36 10 -1 10 C-1.125 3.375 -1.125 3.375 0 0 Z " fill="#EC1F26" transform="translate(348,83)"/>
<path d="M0 0 C0.99 0.495 0.99 0.495 2 1 C2.625 3.5625 2.625 3.5625 3 6 C3.66 6 4.32 6 5 6 C5 6.66 5 7.32 5 8 C5.99 8.33 6.98 8.66 8 9 C6.35 9.33 4.7 9.66 3 10 C0.59185923 6.48812804 -0.36629408 4.27343092 0 0 Z " fill="#EE4045" transform="translate(312,64)"/>
<path d="M0 0 C1.98 0.66 3.96 1.32 6 2 C5.34 3.65 4.68 5.3 4 7 C2.68 6.34 1.36 5.68 0 5 C0 3.35 0 1.7 0 0 Z " fill="#EC2328" transform="translate(112,391)"/>
<path d="M0 0 C1.98 0 3.96 0 6 0 C6 1.32 6 2.64 6 4 C4.35 4.33 2.7 4.66 1 5 C0.67 3.35 0.34 1.7 0 0 Z " fill="#ED2B30" transform="translate(79,335)"/>
<path d="M0 0 C0.99 0 1.98 0 3 0 C3 2.97 3 5.94 3 9 C2.01 9 1.02 9 0 9 C0 6.03 0 3.06 0 0 Z " fill="#ED272B" transform="translate(60,286)"/>
<path d="M0 0 C0.99 0.33 1.98 0.66 3 1 C2.67 3.31 2.34 5.62 2 8 C0.68 7.34 -0.64 6.68 -2 6 C-1.125 1.125 -1.125 1.125 0 0 Z " fill="#EE3338" transform="translate(203,437)"/>
<path d="M0 0 C3.465 1.98 3.465 1.98 7 4 C5.68 4.99 4.36 5.98 3 7 C2.01 6.34 1.02 5.68 0 5 C-0.1875 2.375 -0.1875 2.375 0 0 Z " fill="#ED3B40" transform="translate(444,261)"/>
<path d="M0 0 C-0.33 1.32 -0.66 2.64 -1 4 C-3.375 4.625 -3.375 4.625 -6 5 C-6.66 4.34 -7.32 3.68 -8 3 C-3.375 0 -3.375 0 0 0 Z " fill="#EC1E23" transform="translate(114,103)"/>
<path d="M0 0 C2.64 0 5.28 0 8 0 C7.67 0.99 7.34 1.98 7 3 C5.1875 3.8125 5.1875 3.8125 3 4 C0.75 3.0625 0.75 3.0625 -1 2 C-0.67 1.34 -0.34 0.68 0 0 Z " fill="#EC2228" transform="translate(317,73)"/>
<path d="M0 0 C0.99 0 1.98 0 3 0 C2.67 1.32 2.34 2.64 2 4 C2.66 4 3.32 4 4 4 C4 4.66 4 5.32 4 6 C0.25 7.125 0.25 7.125 -2 6 C-2 5.01 -2 4.02 -2 3 C-1.34 3 -0.68 3 0 3 C0 2.01 0 1.02 0 0 Z " fill="#ED3B3F" transform="translate(172,440)"/>
<path d="M0 0 C0.99 0.33 1.98 0.66 3 1 C2.34 2.65 1.68 4.3 1 6 C-0.65 6 -2.3 6 -4 6 C-2.68 4.02 -1.36 2.04 0 0 Z " fill="#EE3135" transform="translate(390,398)"/>
<path d="M0 0 C5.28 0 10.56 0 16 0 C16 0.33 16 0.66 16 1 C10.555 1.495 10.555 1.495 5 2 C5 2.33 5 2.66 5 3 C3.35 3 1.7 3 0 3 C0 2.01 0 1.02 0 0 Z " fill="#EC191E" transform="translate(57,315)"/>
<path d="M0 0 C0.33 1.32 0.66 2.64 1 4 C-2.01031744 4.93423645 -2.86650268 5.04449911 -6 4 C-5.67 3.01 -5.34 2.02 -5 1 C-3 0 -3 0 0 0 Z " fill="#EC1D24" transform="translate(74,339)"/>
<path d="M0 0 C0.99 0 1.98 0 3 0 C2.67 2.31 2.34 4.62 2 7 C1.01 7 0.02 7 -1 7 C-1.04254356 5.00045254 -1.04080783 2.99958364 -1 1 C-0.67 0.67 -0.34 0.34 0 0 Z " fill="#ED272C" transform="translate(449,323)"/>
<path d="M0 0 C0.66 0 1.32 0 2 0 C2.625 1.875 2.625 1.875 3 4 C2.34 4.66 1.68 5.32 1 6 C-1.125 5.625 -1.125 5.625 -3 5 C-1.125 1.125 -1.125 1.125 0 0 Z " fill="#EE363B" transform="translate(229,63)"/>
<path d="M0 0 C-0.33 1.65 -0.66 3.3 -1 5 C-2.32 5.33 -3.64 5.66 -5 6 C-4.625 3.5625 -4.625 3.5625 -4 1 C-2 0 -2 0 0 0 Z " fill="#ED282D" transform="translate(442,347)"/>
<path d="M0 0 C0.66 0.33 1.32 0.66 2 1 C1.67 2.98 1.34 4.96 1 7 C0.67 6.34 0.34 5.68 0 5 C-0.99 5.33 -1.98 5.66 -3 6 C-3 4.35 -3 2.7 -3 1 C-2.01 0.67 -1.02 0.34 0 0 Z " fill="#EF4146" transform="translate(442,342)"/>
<path d="M0 0 C3.96 0 7.92 0 12 0 C12 0.33 12 0.66 12 1 C9.69 1 7.38 1 5 1 C5 1.66 5 2.32 5 3 C3.125 3.625 3.125 3.625 1 4 C0.34 3.34 -0.32 2.68 -1 2 C-0.67 1.34 -0.34 0.68 0 0 Z " fill="#ED3B3F" transform="translate(61,316)"/>
<path d="M0 0 C1.9375 0.3125 1.9375 0.3125 4 1 C4.33 1.99 4.66 2.98 5 4 C2.69 4 0.38 4 -2 4 C-1.34 2.68 -0.68 1.36 0 0 Z " fill="#EC171C" transform="translate(402,396)"/>
<path d="M0 0 C4.29 0 8.58 0 13 0 C13 0.66 13 1.32 13 2 C12.34 2 11.68 2 11 2 C10.67 2.66 10.34 3.32 10 4 C10 3.34 10 2.68 10 2 C6.7 1.67 3.4 1.34 0 1 C0 0.67 0 0.34 0 0 Z " fill="#EE5156" transform="translate(249,444)"/>
<path d="M0 0 C1.4540625 0.0309375 1.4540625 0.0309375 2.9375 0.0625 C2.6075 1.0525 2.2775 2.0425 1.9375 3.0625 C0.6175 3.0625 -0.7025 3.0625 -2.0625 3.0625 C-2.3925 3.7225 -2.7225 4.3825 -3.0625 5.0625 C-3.625 3.125 -3.625 3.125 -4.0625 1.0625 C-3.0625 0.0625 -3.0625 0.0625 0 0 Z " fill="#EC191D" transform="translate(301.0625,438.9375)"/>
<path d="M0 0 C0 0.66 0 1.32 0 2 C-1.98 2.33 -3.96 2.66 -6 3 C-6.66 2.01 -7.32 1.02 -8 0 C-4.94736336 -0.98120464 -3.05263664 -0.98120464 0 0 Z " fill="#EE5357" transform="translate(56,223)"/>
<path d="M0 0 C0.99 0 1.98 0 3 0 C3 1.98 3 3.96 3 6 C2.01 6 1.02 6 0 6 C0 4.02 0 2.04 0 0 Z " fill="#EC1C24" transform="translate(261,447)"/>
<path d="M0 0 C0.33 1.32 0.66 2.64 1 4 C0.01 4 -0.98 4 -2 4 C-2 4.99 -2 5.98 -2 7 C-2.66 7 -3.32 7 -4 7 C-3.6875 4.625 -3.6875 4.625 -3 2 C-2.01 1.34 -1.02 0.68 0 0 Z " fill="#EC1E23" transform="translate(174,436)"/>
<path d="M0 0 C0.99 0 1.98 0 3 0 C3.33 1.32 3.66 2.64 4 4 C2.68 4.33 1.36 4.66 0 5 C-0.5625 3.0625 -0.5625 3.0625 -1 1 C-0.67 0.67 -0.34 0.34 0 0 Z " fill="#ED2F33" transform="translate(433,184)"/>
<path d="M0 0 C0.99 0 1.98 0 3 0 C3.33 1.32 3.66 2.64 4 4 C2.68 4.33 1.36 4.66 0 5 C-0.5625 3.0625 -0.5625 3.0625 -1 1 C-0.67 0.67 -0.34 0.34 0 0 Z " fill="#ED2D31" transform="translate(445,179)"/>
<path d="M0 0 C0 1.65 0 3.3 0 5 C-1.32 4.67 -2.64 4.34 -4 4 C-4 3.01 -4 2.02 -4 1 C-2 0 -2 0 0 0 Z " fill="#ED2C2E" transform="translate(320,449)"/>
<path d="M0 0 C0.99 0.33 1.98 0.66 3 1 C3 2.98 3 4.96 3 7 C2.34 7 1.68 7 1 7 C0.67 4.69 0.34 2.38 0 0 Z " fill="#EC161B" transform="translate(316,439)"/>
<path d="M0 0 C0.66 1.32 1.32 2.64 2 4 C-1.75 5.125 -1.75 5.125 -4 4 C-4 3.34 -4 2.68 -4 2 C-2.68 1.34 -1.36 0.68 0 0 Z " fill="#ED3338" transform="translate(159,432)"/>
</svg>
